// The following music data was created by compiling a modified version of pret/pokeemerald
// Basically swapped mus_littleroot.mid with my own midi file 
// then copied the corisponding .s file generated by mid2agb
// then slightly modified the .s file to be compatible with gvasm

//You may need to go through and manually set the VOICE for each Midi-Chn manually depending 
//On which instrament each channel is supposed to be and which voicegroup you are using.


	//Added def for pointer to voicegroup051 (the one used by littleroot)
	//All other def come from MPlayDef.s (see bottom of this file)
	.def 	voicegroup051 = 0x08682cd0
               
	.def	mus_littleroot_grp= voicegroup051
	.def	mus_littleroot_pri= 0
	.def	mus_littleroot_rev= reverb_set+50
	.def	mus_littleroot_mvl= 100
	.def	mus_littleroot_key= 0
	.def	mus_littleroot_tbs= 1
	.def	mus_littleroot_exg= 1
	.def	mus_littleroot_cmp= 1

	.begin rodata

	// Important! must set the base to wherever you plan to copy the compiled music.bin into ram!!
	.base 0x02020000
	
	
	//.global	mus_littleroot
	.align	2

//**************** Track 1 (Midi-Chn.1) Electric Piano****************//

mus_littleroot_1:
	.um8	KEYSH , mus_littleroot_key+0
// 000   ----------------------------------------
	.um8	TEMPO , 114*mus_littleroot_tbs/2
	.um8	W96
// 001   ----------------------------------------
	.um8	W24
	.um8		VOICE , 1
	.um8		VOL   , 105*mus_littleroot_mvl/mxv
	.um8		PAN   , c_v+0
	.um8	W01
	.um8	W68
	.um8	W03
// 002   ----------------------------------------
	.um8	W96
// 003   ----------------------------------------
	.um8	W01
	.um8		N24   , Fn3 , v084, gtp3
	.um8	W01
	.um8		MOD   , 0
	.um8		BEND  , c_v+0
	.um8		N24   , Fs2 , v060, gtp1
	.um8		N28   , As2 , v060, gtp1
	.um8		N24   , Cs3 
	.um8	W32
	.um8	W02
	.um8		N48   , Ds3 , v072, gtp3
	.um8	W01
	.um8		        Gs2 , v060, gtp2
	.um8		N52   , As2 , v052
	.um8		N48   , Cn3 , v064, gtp1
	.um8	W56
	.um8	W02
	.um8		N28   , Gs2 , v064, gtp1
	.um8		N30   , Cn3 , v068, gtp1
	.um8		N30   , Ds3 , v076, gtp1
	.um8	W01
// 004   ----------------------------------------
	.um8	W36
	.um8		N44   , Fn2 , v064, gtp3
	.um8		N44   , Gs2 , v068, gtp3
	.um8		N48   , Cs3 , v072, gtp2
	.um8	W60
// 005   ----------------------------------------
	.um8		N24   , Fs2 , v072, gtp2
	.um8		N30   , As2 
	.um8		N23   , Cs3 , v068
	.um8		N24   , Fn3 , v092, gtp2
	.um8	W36
	.um8		N52   , Gs2 , v072
	.um8		N52   , As2 , v068, gtp1
	.um8		N52   , Cn3 , v068, gtp1
	.um8		N48   , Ds3 , v076, gtp3
	.um8	W56
	.um8	W03
	.um8		N24   , Gs2 , v072, gtp3
	.um8		N30   , Ds3 , v072, gtp1
	.um8	W01
// 006   ----------------------------------------
	.um8		N28   , Cn3 , v072, gtp1
	.um8	W36
	.um8		N44   , Gs2 , v076, gtp1
	.um8		N48   , Cs3 , v072, gtp1
	.um8	W01
	.um8		N44   , Fn2 , v068, gtp2
	.um8	W56
	.um8	W02
	.um8		N32   , As2 , v072
	.um8		N24   , Cs3 , v068, gtp3
	.um8		N30   , Fn3 , v084
	.um8	W01
// 007   ----------------------------------------
	.um8		N28   , Fs2 , v064
	.um8	W36
	.um8		N48   , Gs2 , v072, gtp2
	.um8		N52   , As2 , v048
	.um8		N48   , Ds3 , v072, gtp2
	.um8	W01
	.um8		        Cn3 , v060, gtp2
	.um8	W56
	.um8	W03
// 008   ----------------------------------------
	.um8		N28   , Gs2 , v072
	.um8		N28   , Cn3 , v072, gtp1
	.um8		N30   , Ds3 , v072, gtp1
	.um8	W36
	.um8		N44   , Fn2 , v068, gtp3
	.um8		N44   , Gs2 , v072, gtp3
	.um8		N48   , Cs3 , v076, gtp3
	.um8	W60
// 009   ----------------------------------------
	.um8		N28   , Fs2 , v060
	.um8		N30   , As2 , v068
	.um8		N24   , Cs3 , v064, gtp3
	.um8		N28   , Fn3 , v084
	.um8	W36
	.um8		N36   , Ds3 , v076, gtp3
	.um8	W01
	.um8		        Gs2 , v064, gtp1
	.um8		N32   , As2 , v060, gtp3
	.um8		N36   , Cn3 , v064
	.um8	W44
	.um8	W03
	.um8		N18   , Gs2 , v068
	.um8		N21   , Cn3 , v076
	.um8		N21   , Ds3 
	.um8	W12
// 010   ----------------------------------------
	.um8	W11
	.um8		N07   , Cs3 , v072
	.um8		N07   , Fn3 , v092
	.um8	W01
	.um8		N05   , Gs2 , v084
	.um8	W12
	.um8		N60   , Gs2 , v072, gtp2
	.um8		N60   , Cs3 , v064, gtp3
	.um8		N60   , Fn3 , v076, gtp2
	.um8	W68
	.um8	W03
	.um8		N84   , Fs2 , v068, gtp3
	.um8		N90   , As2 
	.um8		N84   , Cs3 , v064, gtp2
	.um8		N84   , Fn3 , v096, gtp2
	.um8	W01
// 011   ----------------------------------------
	.um8	W92
	.um8	W02
	.um8		N88   , As2 , v052
	.um8		N84   , Ds3 , v072, gtp3
	.um8	W01
	.um8		        Gs2 , v064, gtp3
	.um8		N84   , Cn3 , v060, gtp1
	.um8	W01
// 012   ----------------------------------------
	.um8	W92
	.um8	W03
	.um8		N92   , Fs2 
	.um8		N92   , As2 , v072
	.um8		N92   , Cs3 
	.um8		N92   , Fn3 , v092
	.um8	W01
// 013   ----------------------------------------
	.um8	W96
// 014   ----------------------------------------
	.um8	W96
// 015   ----------------------------------------
	.um8		N84   , Fs2 , v072, gtp2
	.um8		N92   , As2 
	.um8		N84   , Cs3 , v068, gtp1
	.um8		N84   , Fn3 , v092, gtp2
	.um8	W96
// 016   ----------------------------------------
	.um8		        Gs2 , v068
	.um8		N84   , As2 , v044, gtp1
	.um8		N84   , Cn3 , v068
	.um8	W01
	.um8		        Ds3 , v072, gtp2
	.um8	W92
	.um8	W03
// 017   ----------------------------------------
	.um8		N92   , Fs2 , v060, gtp3
	.um8		N92   , As2 , v072, gtp3
	.um8		N92   , Cs3 , v064, gtp3
	.um8		N92   , Fn3 , v080, gtp3
	.um8	W96
// 018   ----------------------------------------
	.um8	W96
// 019   ----------------------------------------
	.um8	W96
// 020   ----------------------------------------
	.um8	W96
// 021   ----------------------------------------
	.um8	W96
// 022   ----------------------------------------
	.um8	W96
// 023   ----------------------------------------
	.um8		N28   , Fs2 , v060
	.um8		N32   , As2 , v064, gtp1
	.um8		N30   , Cs3 
	.um8		N28   , Fn3 , v080, gtp1
	.um8	W36
	.um8		N52   , As2 , v048, gtp1
	.um8	W01
	.um8		N48   , Gs2 , v060, gtp3
	.um8		N48   , Cn3 , v052, gtp2
	.um8		N52   , Ds3 , v076
	.um8	W56
	.um8	W03
// 024   ----------------------------------------
	.um8		N30   , Ds3 , v068
	.um8	W01
	.um8		N28   , Gs2 , v064
	.um8		N28   , Cn3 , v068, gtp1
	.um8	W32
	.um8	W03
	.um8		N44   , Fn2 , v064, gtp1
	.um8		N44   , Gs2 , v068, gtp3
	.um8		N48   , Cs3 , v072, gtp1
	.um8	W60
// 025   ----------------------------------------
	.um8		N24   , Fn3 , v084, gtp3
	.um8	W01
	.um8		        Fs2 , v068, gtp3
	.um8		N30   , As2 
	.um8		N24   , Cs3 , v064, gtp1
	.um8	W32
	.um8	W03
	.um8		N44   , Gs2 , v068, gtp3
	.um8		N44   , Cn3 , v068, gtp3
	.um8		N52   , Ds3 , v076
	.um8	W01
	.um8		N48   , As2 , v064
	.um8	W56
	.um8	W02
	.um8		N17   , Gs2 , v068
	.um8		N22   , Ds3 , v072
	.um8	W01
// 026   ----------------------------------------
	.um8		        Cn3 , v068
	.um8	W24
	.um8	W01
	.um8		N56   , Gs2 
	.um8		N56   , Cs3 , v064, gtp1
	.um8		N56   , Fn3 , v076, gtp1
	.um8	W68
	.um8	W01
	.um8		N28   , Fs2 , v064
	.um8		N28   , Fn3 , v084
	.um8	W01
	.um8		N32   , As2 , v072, gtp1
	.um8		N24   , Cs3 , v072, gtp2
	.um8	W01
// 027   ----------------------------------------
	.um8	W36
	.um8		N48   , Gs2 , v064, gtp1
	.um8		N52   , As2 , v048
	.um8		N44   , Cn3 , v060, gtp2
	.um8		N48   , Ds3 , v072, gtp2
	.um8	W56
	.um8	W03
	.um8		N30   , Ds3 , v064
	.um8	W01
// 028   ----------------------------------------
	.um8		N28   , Gs2 , v060
	.um8		N28   , Cn3 , v064, gtp1
	.um8	W36
	.um8		N44   , Fn2 , v060
	.um8		N44   , Gs2 , v072
	.um8		N48   , Cs3 , v076
	.um8	W60
// 029   ----------------------------------------
	.um8		N24   , Fs2 , v060, gtp3
	.um8		N30   , As2 , v068, gtp1
	.um8		N28   , Fn3 , v080
	.um8	W01
	.um8		N24   , Cs3 , v064, gtp3
	.um8	W32
	.um8	W03
	.um8		N48   , As2 , v060
	.um8		N48   , Ds3 , v068, gtp1
	.um8	W01
	.um8		N44   , Gs2 , v060
	.um8		N44   , Cn3 , v056, gtp2
	.um8	W56
	.um8	W02
	.um8		N16   , Gs2 , v064
	.um8		N20   , Cn3 , v072
	.um8		N20   , Ds3 , v068
	.um8	W01
// 030   ----------------------------------------
	.um8	W23
	.um8		N66   , Gs2 
	.um8	W01
	.um8		N64   , Cs3 , v068, gtp1
	.um8		N66   , Fn3 , v076
	.um8	W72
// 031   ----------------------------------------
	.um8		N84   , Fs2 , v064, gtp1
	.um8		N84   , As2 , v064, gtp3
	.um8		N84   , Cs3 
	.um8		N84   , Fn3 , v092, gtp1
	.um8	W92
	.um8	W02
	.um8		        Ds3 , v068, gtp2
	.um8	W01
	.um8		        Gs2 , v060, gtp1
	.um8		N84   , As2 , v052, gtp2
	.um8		N84   , Cn3 , v060, gtp1
	.um8	W01
// 032   ----------------------------------------
	.um8	W92
	.um8	W03
	.um8		N90   , Fn3 , v092
	.um8	W01
// 033   ----------------------------------------
	.um8		        Fs2 , v056
	.um8		N90   , As2 , v060
	.um8		N90   , Cs3 , v064
	.um8	W96
// 034   ----------------------------------------
	.um8	W96
// 035   ----------------------------------------
	.um8		N80   , Fn3 , v080, gtp3
	.um8	W01
	.um8		        Fs2 , v056, gtp3
	.um8		N84   , As2 , v064
	.um8		N80   , Cs3 , v060, gtp3
	.um8	W92
	.um8	W02
	.um8		N84   , Ds3 , v072, gtp2
	.um8	W01
// 036   ----------------------------------------
	.um8		        Gs2 , v056, gtp1
	.um8		N84   , As2 , v060, gtp1
	.um8		N84   , Cn3 , v064
	.um8	W96
// 037   ----------------------------------------
	.um8		        Fs2 
	.um8		N84   , As2 , v072
	.um8		N84   , Cs3 , v064
	.um8		N84   , Fn3 , v084, gtp1
	.um8	W96
// 038   ----------------------------------------
	.um8	W96
// 039   ----------------------------------------
	.um8	W96
// 040   ----------------------------------------
	.um8	W96
// 041   ----------------------------------------
	.um8	W96
// 042   ----------------------------------------
	.um8	W96
// 043   ----------------------------------------
	.um8		N24   , Fs2 , v060, gtp3
	.um8		N28   , As2 , v064, gtp1
	.um8		N24   , Cs3 , v064, gtp2
	.um8		N24   , Fn3 , v080, gtp3
	.um8	W32
	.um8	W03
	.um8		N52   , Ds3 , v068
	.um8	W01
	.um8		N48   , Gs2 , v060, gtp3
	.um8		N52   , As2 , v056, gtp1
	.um8	W01
	.um8		N48   , Cn3 , v056, gtp2
	.um8	W56
	.um8	W03
// 044   ----------------------------------------
	.um8		N24   , Gs2 , v060, gtp2
	.um8		N28   , Ds3 , v072
	.um8	W01
	.um8		N24   , Cn3 , v068, gtp3
	.um8	W32
	.um8	W02
	.um8		N48   , Fn2 , v060, gtp1
	.um8		N48   , Gs2 , v064
	.um8		N52   , Cs3 , v072
	.um8	W60
	.um8	W01
// 045   ----------------------------------------
	.um8	W01
	.um8		N24   , Fs2 , v064, gtp1
	.um8		N28   , As2 , v068, gtp1
	.um8		N24   , Fn3 , v084, gtp2
	.um8	W01
	.um8		        Cs3 , v068, gtp1
	.um8	W32
	.um8	W01
	.um8		N48   , Gs2 , v068, gtp1
	.um8		N44   , As2 , v056, gtp1
	.um8		N48   , Ds3 , v072, gtp3
	.um8	W01
	.um8		N44   , Cn3 , v064
	.um8	W56
	.um8	W03
	.um8		N18   , Gs2 , v068
	.um8		N21   , Cn3 
	.um8		N22   , Ds3 , v064
	.um8	W01
// 046   ----------------------------------------
	.um8	W24
	.um8		N56   , Gs2 , v072, gtp1
	.um8		N56   , Cs3 , v068, gtp2
	.um8		N56   , Fn3 , v084, gtp1
	.um8	W68
	.um8	W02
	.um8		N32   , As2 , v072
	.um8		N24   , Fn3 , v084, gtp3
	.um8	W01
	.um8		        Fs2 , v064, gtp3
	.um8		N24   , Cs3 , v068, gtp1
	.um8	W01
// 047   ----------------------------------------
	.um8	W32
	.um8	W03
	.um8		N48   , Gs2 , v064, gtp3
	.um8		N52   , As2 , v048
	.um8		N48   , Cn3 , v068, gtp2
	.um8		N48   , Ds3 , v072, gtp2
	.um8	W60
	.um8		N28   , Gs2 , v060, gtp1
	.um8		N30   , Cn3 , v068
	.um8		N32   , Ds3 , v064
	.um8	W01
// 048   ----------------------------------------
	.um8	W36
	.um8		N44   , Fn2 , v068, gtp2
	.um8		N44   , Gs2 , v068, gtp2
	.um8		N48   , Cs3 , v076, gtp2
	.um8	W60
// 049   ----------------------------------------
	.um8		N24   , Fs2 , v064, gtp3
	.um8		N30   , As2 
	.um8		N28   , Cs3 , v064, gtp1
	.um8		N28   , Fn3 , v080
	.um8	W36
	.um8		N48   , Gs2 , v068
	.um8		N44   , Cn3 , v068, gtp3
	.um8		N48   , Ds3 , v072, gtp3
	.um8	W01
	.um8		N44   , As2 , v060, gtp2
	.um8	W56
	.um8	W02
	.um8		N21   , Ds3 , v068
	.um8	W01
// 050   ----------------------------------------
	.um8		N17   , Gs2 , v072
	.um8		N21   , Cn3 
	.um8	W24
	.um8		N56   , Gs2 , v068, gtp3
	.um8		N56   , Fn3 , v084, gtp2
	.um8	W01
	.um8		        Cs3 , v072, gtp1
	.um8	W68
	.um8	W03
// 051   ----------------------------------------
	.um8	W01
	.um8		N28   , Fs2 , v064
	.um8		N30   , As2 , v076, gtp1
	.um8		N24   , Cs3 , v064, gtp2
	.um8		N28   , Fn3 , v084
	.um8	W36
	.um8		N48   , Gs2 , v060, gtp1
	.um8		N48   , As2 , v048, gtp3
	.um8		N48   , Cn3 , v064, gtp1
	.um8		N44   , Ds3 , v068, gtp3
	.um8	W56
	.um8	W01
	.um8		N28   , Gs2 , v068, gtp1
	.um8		N30   , Cn3 
	.um8		N32   , Ds3 , v072
	.um8	W02
// 052   ----------------------------------------
	.um8	W32
	.um8	W03
	.um8		N48   , Fn2 , v068
	.um8		N44   , Gs2 , v068, gtp3
	.um8		N48   , Cs3 , v072, gtp3
	.um8	W60
	.um8	W01
// 053   ----------------------------------------
	.um8		N28   , Fs2 , v064
	.um8		N30   , As2 , v072, gtp1
	.um8		N28   , Cs3 , v064
	.um8		N28   , Fn3 , v084
	.um8	W36
	.um8		N48   , Gs2 , v068
	.um8		N48   , As2 , v048
	.um8		N44   , Cn3 , v068, gtp2
	.um8		N52   , Ds3 , v072
	.um8	W60
// 054   ----------------------------------------
	.um8		N18   , Gs2 , v064
	.um8		N20   , Cn3 , v068
	.um8		N21   , Ds3 
	.um8	W24
	.um8		N54   , Gs2 , v068, gtp1
	.um8	W01
	.um8		        Cs3 , v064, gtp1
	.um8		N54   , Fn3 , v076, gtp1
	.um8	W68
	.um8	W01
	.um8		N28   , Fs2 , v064
	.um8		N32   , As2 , v076, gtp1
	.um8		N28   , Cs3 , v068
	.um8		N28   , Fn3 , v076
	.um8	W02
// 055   ----------------------------------------
	.um8	W32
	.um8	W03
	.um8		N48   , Gs2 , v064, gtp1
	.um8		N48   , As2 , v056, gtp3
	.um8		N48   , Ds3 , v072, gtp1
	.um8	W01
	.um8		N44   , Cn3 , v060, gtp3
	.um8	W56
	.um8	W03
	.um8		N28   , Gs2 , v072
	.um8		N30   , Ds3 , v068, gtp1
	.um8	W01
// 056   ----------------------------------------
	.um8		N28   , Cn3 , v072, gtp1
	.um8	W36
	.um8		N44   , Fn2 , v068, gtp2
	.um8		N44   , Gs2 , v072, gtp1
	.um8		N48   , Cs3 , v068, gtp1
	.um8	W60
// 057   ----------------------------------------
	.um8		N24   , Fs2 , v068, gtp2
	.um8		N30   , As2 , v072, gtp1
	.um8		N24   , Cs3 , v060, gtp3
	.um8		N24   , Fn3 , v084, gtp2
	.um8	W32
	.um8	W03
	.um8		N52   , Gs2 , v068
	.um8		N48   , As2 , v052, gtp1
	.um8		N52   , Ds3 , v072
	.um8	W01
	.um8		N44   , Cn3 , v060, gtp3
	.um8	W60
// 058   ----------------------------------------
	.um8		N16   , Gs2 , v072
	.um8		N19   , Cn3 
	.um8		N19   , Ds3 , v068
	.um8	W24
	.um8		N48   , Gs2 , v068, gtp3
	.um8	W01
	.um8		        Cs3 , v072, gtp2
	.um8		N48   , Fn3 , v084, gtp3
	.um8	W68
	.um8	W03
// 059   ----------------------------------------
	.um8	W96
// 060   ----------------------------------------
	.um8	W96
// 061   ----------------------------------------
	.um8	W96
// 062   ----------------------------------------
	.um8	W96
// 063   ----------------------------------------
	.um8	W96
// 064   ----------------------------------------
	.um8	W96
// 065   ----------------------------------------
	.um8	W96
// 066   ----------------------------------------
	.um8	W96
// 067   ----------------------------------------
	.um8	W96
// 068   ----------------------------------------
	.um8	W96
// 069   ----------------------------------------
	.um8	W96
// 070   ----------------------------------------
	.um8	W96
// 071   ----------------------------------------
	.um8	W96
// 072   ----------------------------------------
	.um8	W96
// 073   ----------------------------------------
	.um8	W96
// 074   ----------------------------------------
	.um8	W96
// 075   ----------------------------------------
	.um8	W96
// 076   ----------------------------------------
	.um8	W96
// 077   ----------------------------------------
	.um8	W96
// 078   ----------------------------------------
	.um8	W96
// 079   ----------------------------------------
	.um8		N28   , Fs2 , v064, gtp1
	.um8		N30   , As2 , v064, gtp1
	.um8		N30   , Cs3 , v068
	.um8		N28   , Fn3 , v080
	.um8	W36
	.um8		N48   , Gs2 , v072, gtp2
	.um8		N48   , As2 , v056, gtp3
	.um8		N48   , Ds3 , v076, gtp3
	.um8	W01
	.um8		        Cn3 , v064, gtp2
	.um8	W56
	.um8	W03
// 080   ----------------------------------------
	.um8		N24   , Gs2 , v068, gtp3
	.um8		N28   , Cn3 
	.um8		N28   , Ds3 , v072, gtp1
	.um8	W32
	.um8	W03
	.um8		N48   , Fn2 , v068, gtp2
	.um8		N48   , Gs2 , v068, gtp1
	.um8		N52   , Cs3 , v072, gtp1
	.um8	W60
	.um8	W01
// 081   ----------------------------------------
	.um8	W02
	.um8		N24   , Fs2 , v064, gtp3
	.um8		N30   , As2 , v068, gtp1
	.um8		N24   , Cs3 , v064
	.um8		N24   , Fn3 , v084, gtp3
	.um8	W32
	.um8	W02
	.um8		N44   , Gs2 , v060, gtp3
	.um8		N44   , Cn3 , v068
	.um8		N48   , Ds3 , v072, gtp3
	.um8	W01
	.um8		N44   , As2 , v060, gtp2
	.um8	W56
	.um8	W03
// 082   ----------------------------------------
	.um8		N17   , Gs2 , v068
	.um8		N21   , Cn3 
	.um8		N22   , Ds3 , v072
	.um8	W24
	.um8	W01
	.um8		N54   , Gs2 , v072, gtp1
	.um8		N54   , Cs3 , v068
	.um8		N56   , Fn3 , v080
	.um8	W68
	.um8	W01
	.um8		N28   
	.um8	W01
	.um8		        Fs2 , v064
	.um8		N30   , As2 , v072, gtp1
	.um8		N24   , Cs3 , v068, gtp2
	.um8	W01
// 083   ----------------------------------------
	.um8	W32
	.um8	W03
	.um8		N48   , Gs2 , v068, gtp1
	.um8		N48   , As2 , v060, gtp3
	.um8		N48   , Cn3 , v068
	.um8		N48   , Ds3 , v076, gtp2
	.um8	W60
	.um8		N28   , Gs2 , v076, gtp1
	.um8		N28   , Cn3 , v076, gtp1
	.um8		N30   , Ds3 , v068, gtp1
	.um8	W01
// 084   ----------------------------------------
	.um8	W32
	.um8	W03
	.um8		N44   , Fn2 , v064, gtp3
	.um8		N44   , Gs2 , v064, gtp3
	.um8		N48   , Cs3 , v076, gtp3
	.um8	W60
	.um8	W01
// 085   ----------------------------------------
	.um8		N28   , Fs2 , v064
	.um8		N28   , As2 , v068, gtp1
	.um8		N24   , Cs3 , v068, gtp3
	.um8		N28   , Fn3 , v080
	.um8	W36
	.um8		N44   , Gs2 , v072, gtp3
	.um8		N44   , Cn3 , v064, gtp1
	.um8		N48   , Ds3 , v072, gtp3
	.um8	W01
	.um8		N44   , As2 , v060, gtp3
	.um8	W56
	.um8	W02
	.um8		N18   , Gs2 , v064
	.um8		N21   , Cn3 , v068
	.um8		N22   , Ds3 
	.um8	W01
// 086   ----------------------------------------
	.um8	W24
	.um8	W01
	.um8		N56   , Gs2 , v068, gtp1
	.um8		N56   , Cs3 , v068, gtp1
	.um8		N56   , Fn3 , v084, gtp1
	.um8	W68
	.um8	W03
// 087   ----------------------------------------
	.um8	W01
	.um8		N24   , Fs2 , v064, gtp2
	.um8		N30   , As2 , v076, gtp1
	.um8		N24   , Cs3 , v068, gtp1
	.um8		N24   , Fn3 , v084, gtp3
	.um8	W32
	.um8	W03
	.um8		N48   , Gs2 , v060, gtp1
	.um8		N48   , As2 , v060, gtp3
	.um8		N48   , Cn3 , v060, gtp2
	.um8		N48   , Ds3 , v068, gtp2
	.um8	W56
	.um8	W02
	.um8		N32   , Ds3 , v072, gtp2
	.um8	W01
	.um8		N30   , Gs2 , v064, gtp1
	.um8		N32   , Cn3 , v072
	.um8	W01
// 088   ----------------------------------------
	.um8	W36
	.um8		N48   , Gs2 , v068
	.um8		N48   , Cs3 , v072, gtp2
	.um8	W01
	.um8		        Fn2 , v076
	.um8	W56
	.um8	W02
	.um8		N28   , Fn3 , v084
	.um8	W01
// 089   ----------------------------------------
	.um8		N24   , Fs2 , v068, gtp3
	.um8		N30   , As2 , v076, gtp1
	.um8		N24   , Cs3 , v068, gtp1
	.um8	W36
	.um8		N48   , As2 , v048
	.um8		N44   , Cn3 , v068, gtp3
	.um8		N52   , Ds3 , v068, gtp1
	.um8	W01
	.um8		N48   , Gs2 , v056, gtp1
	.um8	W56
	.um8	W03
// 090   ----------------------------------------
	.um8		N18   , Gs2 , v072
	.um8		N22   , Ds3 
	.um8	W01
	.um8		N21   , Cn3 , v076
	.um8	W24
	.um8		N56   , Gs2 , v064, gtp2
	.um8		N56   , Cs3 , v064, gtp2
	.um8		N56   , Fn3 , v084, gtp2
	.um8	W68
	.um8	W01
	.um8		N32   , As2 , v076, gtp1
	.um8		N28   , Cs3 , v064, gtp1
	.um8		N28   , Fn3 , v080, gtp1
	.um8	W01
	.um8		        Fs2 , v064
	.um8	W01
// 091   ----------------------------------------
	.um8	W32
	.um8	W03
	.um8		N48   , As2 , v060, gtp3
	.um8	W01
	.um8		        Gs2 , v068, gtp2
	.um8		N48   , Cn3 , v056, gtp3
	.um8		N48   , Ds3 , v068, gtp2
	.um8	W56
	.um8	W03
	.um8		N28   , Gs2 , v068, gtp1
	.um8		N30   , Cn3 , v068, gtp1
	.um8		N30   , Ds3 , v064
	.um8	W01
// 092   ----------------------------------------
	.um8	W36
	.um8		N48   , Fn2 , v068
	.um8		N44   , Gs2 , v076, gtp3
	.um8		N48   , Cs3 , v072, gtp1
	.um8	W56
	.um8	W03
	.um8		N28   , Fs2 , v068
	.um8		N32   , As2 , v072
	.um8		N24   , Cs3 , v072, gtp2
	.um8		N28   , Fn3 , v080
	.um8	W01
// 093   ----------------------------------------
	.um8	W32
	.um8	W03
	.um8		N44   , Gs2 , v064, gtp3
	.um8		N44   , As2 , v052, gtp2
	.um8		N48   , Ds3 , v072, gtp2
	.um8	W01
	.um8		N44   , Cn3 , v064, gtp1
	.um8	W56
	.um8	W03
	.um8		N17   , Gs2 , v068
	.um8	W01
// 094   ----------------------------------------
	.um8		N21   , Cn3 , v072
	.um8		N21   , Ds3 , v064
	.um8	W24
	.um8		N56   , Fn3 , v092, gtp2
	.um8	W01
	.um8		        Gs2 , v068
	.um8		N56   , Cs3 , v064
	.um8	W68
	.um8	W02
	.um8		N24   , Fs2 , v064, gtp3
	.um8		N24   , Fn3 , v092, gtp3
	.um8	W01
// 095   ----------------------------------------
	.um8		N32   , As2 , v068
	.um8		N24   , Cs3 , v064, gtp3
	.um8	W36
	.um8	W01
	.um8		N48   , Gs2 , v068, gtp2
	.um8		N48   , Cn3 , v064, gtp3
	.um8		N48   , Ds3 , v072, gtp3
	.um8	W01
	.um8		        As2 , v052, gtp3
	.um8	W56
	.um8	W02
// 096   ----------------------------------------
	.um8		N24   , Gs2 , v052, gtp2
	.um8		N28   , Cn3 , v056, gtp1
	.um8		N30   , Ds3 , v060, gtp1
	.um8	W32
	.um8	W03
	.um8		N44   , Fn2 , v052, gtp3
	.um8		N44   , Gs2 , v056, gtp3
	.um8		N48   , Cs3 , v060, gtp3
	.um8	W60
	.um8		N28   , Fs2 , v040
	.um8		N30   , As2 , v044
	.um8		N30   , Cs3 
	.um8		N28   , Fn3 , v052
	.um8	W01
// 097   ----------------------------------------
	.um8	W32
	.um8	W03
	.um8		N52   , Ds3 , v044
	.um8	W01
	.um8		N48   , Gs2 , v036
	.um8		N48   , As2 , v028, gtp1
	.um8		N48   , Cn3 , v040
	.um8	W56
	.um8	W03
	.um8		N20   , Gs2 , v036
	.um8		N22   , Ds3 , v028
	.um8	W01
// 098   ----------------------------------------
	.um8		N21   , Cn3 , v036
	.um8	W24
	.um8	W01
	.um8		N56   , Fn3 , v040, gtp2
	.um8	W01
	.um8		        Gs2 , v028, gtp1
	.um8		N56   , Cs3 , v028, gtp2
	.um8	W68
	.um8	W02
// 099   ----------------------------------------
	.um8		N32   , As2 , v020
	.um8		N28   , Fn3 , v024, gtp1
	.um8	W01
	.um8		        Fs2 , v016
	.um8		N28   , Cs3 
	.um8	W36
	.um8		N48   , Gs2 , v008, gtp3
	.um8		N52   , As2 , v016
	.um8		N48   , Cn3 , v016, gtp2
	.um8		N52   , Ds3 , v020
	.um8	W56
	.um8	W03
// 100   ----------------------------------------
	.um8	W01
	.um8		N24   , Gs2 , v008, gtp3
	.um8		N30   , Cn3 
	.um8		N30   , Ds3 
	.um8	W32
	.um8	W03
	.um8		N44   , Fn2 , v004, gtp3
	.um8		N44   , Gs2 , v004, gtp2
	.um8		N48   , Cs3 , v004, gtp2
	.um8	W60
// 101   ----------------------------------------
	.um8	W01
	.um8		N24   , Fs2 , v004, gtp2
	.um8		N30   , As2 
	.um8		N28   , Cs3 
	.um8		N24   , Fn3 , v004, gtp3
	.um8	W32
	.um8	W02
	.um8		N48   , Gs2 , v004, gtp1
	.um8		N48   , As2 
	.um8	W01
	.um8		N44   , Cn3 , v004, gtp1
	.um8		N48   , Ds3 , v004, gtp3
	.um8	W48
	.um8	W03
	.um8	FINE

//**************** Track 2 (Midi-Chn.2) Synth Bass 2****************//

mus_littleroot_2:
	.um8	KEYSH , mus_littleroot_key+0
// 000   ----------------------------------------
	.um8	W96
// 001   ----------------------------------------
	.um8	W24
	.um8	W01
	.um8		VOICE , 5
	.um8	W01
	.um8		VOL   , 55*mus_littleroot_mvl/mxv
	.um8		PAN   , c_v+0
	.um8	W68
	.um8	W02
// 002   ----------------------------------------
	.um8	W96
// 003   ----------------------------------------
	.um8		MOD   , 0
	.um8		BEND  , c_v+0
	.um8		N05   , Ds0 , v108
	.um8	W11
	.um8		N04   , Ds0 , v116
	.um8	W07
	.um8		        Ds0 , v108
	.um8	W11
	.um8		        Cn1 
	.um8	W06
	.um8		        As0 , v116
	.um8	W12
	.um8		N05   , Gs0 , v108
	.um8	W12
	.um8		N06   , Gs0 , v120
	.um8	W24
	.um8		N05   , Ds0 , v100
	.um8	W07
	.um8		N03   , Gs0 
	.um8	W06
// 004   ----------------------------------------
mus_littleroot_2_004:
	.um8		N05   , Fn0 , v116
	.um8	W11
	.um8		N03   , Fn0 , v108
	.um8	W06
	.um8		N05   
	.um8	W13
	.um8		        Cn1 
	.um8	W06
	.um8		N06   , As0 , v116
	.um8	W24
	.um8		N03   , As0 , v108
	.um8	W06
	.um8		        As0 , v116
	.um8	W06
	.um8		        As0 , v120
	.um8	W06
	.um8		N04   , Cn1 , v108
	.um8	W12
	.um8		N03   , As0 
	.um8	W06
	.um8	PEND
// 005   ----------------------------------------
mus_littleroot_2_005:
	.um8		N05   , Ds0 , v108
	.um8	W11
	.um8		N03   
	.um8	W07
	.um8		N05   , Ds0 , v104
	.um8	W12
	.um8		N04   , Cn1 , v108
	.um8	W06
	.um8		N05   , As0 , v116
	.um8	W12
	.um8		N06   , Gs0 
	.um8	W12
	.um8		N05   , Gs0 , v108
	.um8	W24
	.um8		N02   , Gs0 , v104
	.um8	W05
	.um8		N03   , Gs0 , v116
	.um8	W07
	.um8	PEND
// 006   ----------------------------------------
mus_littleroot_2_006:
	.um8		N04   , Fn0 , v116
	.um8	W11
	.um8		N03   , Fn0 , v120
	.um8	W07
	.um8		N05   
	.um8	W12
	.um8		N03   , Cn1 , v108
	.um8	W06
	.um8		N06   , As0 , v120
	.um8	W24
	.um8		N05   , Gs0 , v116
	.um8	W12
	.um8		N03   , Gs0 , v108
	.um8	W06
	.um8		N05   , Gs0 , v116
	.um8	W11
	.um8		        Cs1 , v104
	.um8	W07
	.um8	PEND
// 007   ----------------------------------------
mus_littleroot_2_007:
	.um8		N05   , Ds0 , v108
	.um8	W11
	.um8		N04   , Ds0 , v116
	.um8	W07
	.um8		        Ds0 , v108
	.um8	W11
	.um8		        Cn1 
	.um8	W06
	.um8		        As0 , v116
	.um8	W12
	.um8		N05   , Gs0 , v108
	.um8	W12
	.um8		N06   , Gs0 , v120
	.um8	W24
	.um8		N05   , Ds0 , v100
	.um8	W07
	.um8		N03   , Gs0 
	.um8	W06
	.um8	PEND
// 008   ----------------------------------------
	.um8	PATT
	 .um32	mus_littleroot_2_004
// 009   ----------------------------------------
	.um8	PATT
	 .um32	mus_littleroot_2_005
// 010   ----------------------------------------
	.um8	PATT
	 .um32	mus_littleroot_2_006
// 011   ----------------------------------------
mus_littleroot_2_011:
	.um8		N03   , As0 , v116
	.um8	W12
	.um8		N02   
	.um8	W06
	.um8		N04   , As0 , v120
	.um8	W12
	.um8		N03   , Cs1 , v116
	.um8	W06
	.um8		N04   , Cn1 
	.um8	W11
	.um8		        Gs0 
	.um8	W12
	.um8		N05   , As0 , v108
	.um8	W24
	.um8		N03   , Fn0 
	.um8	W06
	.um8		N04   , As0 
	.um8	W07
	.um8	PEND
// 012   ----------------------------------------
mus_littleroot_2_012:
	.um8	W12
	.um8		N02   , Gs0 , v108
	.um8	W06
	.um8		N04   , As0 , v116
	.um8	W12
	.um8		N03   , Cs1 
	.um8	W06
	.um8		N05   , Cn1 , v120
	.um8	W48
	.um8		N03   , Fn0 , v116
	.um8	W06
	.um8		N05   , As0 , v120
	.um8	W06
	.um8	PEND
// 013   ----------------------------------------
mus_littleroot_2_013:
	.um8	W12
	.um8		N03   , Gs0 , v116
	.um8	W06
	.um8		N05   , As0 
	.um8	W12
	.um8		N03   , Cs1 , v108
	.um8	W06
	.um8		N04   , Cn1 , v120
	.um8	W12
	.um8		N05   , Gs0 , v116
	.um8	W12
	.um8		        As0 
	.um8	W24
	.um8		N03   , As0 , v108
	.um8	W06
	.um8		        As0 , v116
	.um8	W06
	.um8	PEND
// 014   ----------------------------------------
mus_littleroot_2_014:
	.um8		N05   , Ds0 , v108
	.um8	W12
	.um8		N03   
	.um8	W06
	.um8		N05   , Ds0 , v116
	.um8	W12
	.um8		N03   , Ds0 , v104
	.um8	W06
	.um8		N04   , Gs0 , v120
	.um8	W24
	.um8		N02   , Gs0 , v104
	.um8	W06
	.um8		N04   , Gs0 , v116
	.um8	W18
	.um8		N03   , Fn0 
	.um8	W06
	.um8		        Gs0 , v124
	.um8	W06
	.um8	PEND
// 015   ----------------------------------------
	.um8	PATT
	 .um32	mus_littleroot_2_011
// 016   ----------------------------------------
	.um8	PATT
	 .um32	mus_littleroot_2_012
// 017   ----------------------------------------
	.um8	PATT
	 .um32	mus_littleroot_2_013
// 018   ----------------------------------------
	.um8	PATT
	 .um32	mus_littleroot_2_014
// 019   ----------------------------------------
	.um8	PATT
	 .um32	mus_littleroot_2_011
// 020   ----------------------------------------
	.um8	PATT
	 .um32	mus_littleroot_2_012
// 021   ----------------------------------------
mus_littleroot_2_021:
	.um8	W12
	.um8		N03   , Gs0 , v116
	.um8	W06
	.um8		N05   , As0 
	.um8	W12
	.um8		N03   , Cs1 , v108
	.um8	W06
	.um8		N04   , Cn1 , v120
	.um8	W12
	.um8		N05   , Gs0 , v116
	.um8	W12
	.um8		        As0 
	.um8	W24
	.um8		N03   , Gs0 , v108
	.um8	W06
	.um8		        As0 , v116
	.um8	W06
	.um8	PEND
// 022   ----------------------------------------
mus_littleroot_2_022:
	.um8		N05   , As0 , v108
	.um8	W12
	.um8		N03   , Gs0 
	.um8	W06
	.um8		N05   , As0 , v116
	.um8	W12
	.um8		N03   , Cs1 , v104
	.um8	W06
	.um8		N04   , Cn1 , v120
	.um8	W48
	.um8		N03   , Gs0 , v116
	.um8	W06
	.um8		        As0 , v124
	.um8	W06
	.um8	PEND
// 023   ----------------------------------------
	.um8	PATT
	 .um32	mus_littleroot_2_007
// 024   ----------------------------------------
	.um8	PATT
	 .um32	mus_littleroot_2_004
// 025   ----------------------------------------
	.um8	PATT
	 .um32	mus_littleroot_2_005
// 026   ----------------------------------------
	.um8	PATT
	 .um32	mus_littleroot_2_006
// 027   ----------------------------------------
	.um8	PATT
	 .um32	mus_littleroot_2_007
// 028   ----------------------------------------
	.um8	PATT
	 .um32	mus_littleroot_2_004
// 029   ----------------------------------------
	.um8	PATT
	 .um32	mus_littleroot_2_005
// 030   ----------------------------------------
	.um8	PATT
	 .um32	mus_littleroot_2_006
// 031   ----------------------------------------
	.um8	PATT
	 .um32	mus_littleroot_2_011
// 032   ----------------------------------------
	.um8	PATT
	 .um32	mus_littleroot_2_012
// 033   ----------------------------------------
	.um8	PATT
	 .um32	mus_littleroot_2_013
// 034   ----------------------------------------
	.um8	PATT
	 .um32	mus_littleroot_2_014
// 035   ----------------------------------------
	.um8	PATT
	 .um32	mus_littleroot_2_011
// 036   ----------------------------------------
	.um8	PATT
	 .um32	mus_littleroot_2_012
// 037   ----------------------------------------
	.um8	PATT
	 .um32	mus_littleroot_2_013
// 038   ----------------------------------------
	.um8	PATT
	 .um32	mus_littleroot_2_014
// 039   ----------------------------------------
	.um8	PATT
	 .um32	mus_littleroot_2_011
// 040   ----------------------------------------
	.um8	PATT
	 .um32	mus_littleroot_2_012
// 041   ----------------------------------------
	.um8	PATT
	 .um32	mus_littleroot_2_021
// 042   ----------------------------------------
	.um8	PATT
	 .um32	mus_littleroot_2_022
// 043   ----------------------------------------
	.um8	PATT
	 .um32	mus_littleroot_2_007
// 044   ----------------------------------------
	.um8	PATT
	 .um32	mus_littleroot_2_004
// 045   ----------------------------------------
	.um8	PATT
	 .um32	mus_littleroot_2_005
// 046   ----------------------------------------
	.um8	PATT
	 .um32	mus_littleroot_2_006
// 047   ----------------------------------------
	.um8	PATT
	 .um32	mus_littleroot_2_007
// 048   ----------------------------------------
	.um8	PATT
	 .um32	mus_littleroot_2_004
// 049   ----------------------------------------
	.um8	PATT
	 .um32	mus_littleroot_2_005
// 050   ----------------------------------------
	.um8	PATT
	 .um32	mus_littleroot_2_006
// 051   ----------------------------------------
	.um8	PATT
	 .um32	mus_littleroot_2_007
// 052   ----------------------------------------
	.um8	PATT
	 .um32	mus_littleroot_2_004
// 053   ----------------------------------------
	.um8	PATT
	 .um32	mus_littleroot_2_005
// 054   ----------------------------------------
	.um8	PATT
	 .um32	mus_littleroot_2_006
// 055   ----------------------------------------
	.um8	PATT
	 .um32	mus_littleroot_2_007
// 056   ----------------------------------------
	.um8	PATT
	 .um32	mus_littleroot_2_004
// 057   ----------------------------------------
	.um8	PATT
	 .um32	mus_littleroot_2_005
// 058   ----------------------------------------
	.um8	PATT
	 .um32	mus_littleroot_2_006
// 059   ----------------------------------------
mus_littleroot_2_059:
	.um8		N05   , Ds1 , v120
	.um8	W12
	.um8		N03   , Cs1 , v108
	.um8	W06
	.um8		N04   , Ds1 , v120
	.um8	W11
	.um8		N03   , Fs1 , v116
	.um8	W06
	.um8		N04   , Fn1 , v120
	.um8	W12
	.um8		N06   , Cs1 , v116
	.um8	W12
	.um8		        Ds1 
	.um8	W24
	.um8		N04   , Fn0 , v108
	.um8	W07
	.um8		N03   , Gs0 , v116
	.um8	W06
	.um8	PEND
// 060   ----------------------------------------
mus_littleroot_2_060:
	.um8		N04   , As0 , v120
	.um8	W12
	.um8		        Gs0 , v108
	.um8	W06
	.um8		N05   , As0 , v120
	.um8	W12
	.um8		N03   , Cs1 , v108
	.um8	W06
	.um8		N06   , Cn1 , v124
	.um8	W44
	.um8	W03
	.um8		N04   , As0 , v116
	.um8	W06
	.um8		N05   , Cs1 
	.um8	W07
	.um8	PEND
// 061   ----------------------------------------
	.um8	PATT
	 .um32	mus_littleroot_2_059
// 062   ----------------------------------------
	.um8	PATT
	 .um32	mus_littleroot_2_060
// 063   ----------------------------------------
	.um8	PATT
	 .um32	mus_littleroot_2_059
// 064   ----------------------------------------
	.um8	PATT
	 .um32	mus_littleroot_2_060
// 065   ----------------------------------------
	.um8	PATT
	 .um32	mus_littleroot_2_059
// 066   ----------------------------------------
	.um8	PATT
	 .um32	mus_littleroot_2_060
// 067   ----------------------------------------
	.um8	W96
// 068   ----------------------------------------
	.um8	W96
// 069   ----------------------------------------
	.um8	W96
// 070   ----------------------------------------
	.um8	W96
// 071   ----------------------------------------
	.um8	W96
// 072   ----------------------------------------
	.um8	W96
// 073   ----------------------------------------
	.um8	W96
// 074   ----------------------------------------
	.um8	W96
// 075   ----------------------------------------
	.um8	PATT
	 .um32	mus_littleroot_2_011
// 076   ----------------------------------------
	.um8	PATT
	 .um32	mus_littleroot_2_012
// 077   ----------------------------------------
	.um8	PATT
	 .um32	mus_littleroot_2_021
// 078   ----------------------------------------
	.um8	PATT
	 .um32	mus_littleroot_2_022
// 079   ----------------------------------------
	.um8	PATT
	 .um32	mus_littleroot_2_007
// 080   ----------------------------------------
	.um8	PATT
	 .um32	mus_littleroot_2_004
// 081   ----------------------------------------
	.um8	PATT
	 .um32	mus_littleroot_2_005
// 082   ----------------------------------------
	.um8	PATT
	 .um32	mus_littleroot_2_006
// 083   ----------------------------------------
	.um8	PATT
	 .um32	mus_littleroot_2_007
// 084   ----------------------------------------
	.um8	PATT
	 .um32	mus_littleroot_2_004
// 085   ----------------------------------------
	.um8	PATT
	 .um32	mus_littleroot_2_005
// 086   ----------------------------------------
	.um8	PATT
	 .um32	mus_littleroot_2_006
// 087   ----------------------------------------
	.um8	PATT
	 .um32	mus_littleroot_2_007
// 088   ----------------------------------------
	.um8	PATT
	 .um32	mus_littleroot_2_004
// 089   ----------------------------------------
	.um8	PATT
	 .um32	mus_littleroot_2_005
// 090   ----------------------------------------
	.um8	PATT
	 .um32	mus_littleroot_2_006
// 091   ----------------------------------------
	.um8	PATT
	 .um32	mus_littleroot_2_007
// 092   ----------------------------------------
	.um8	PATT
	 .um32	mus_littleroot_2_004
// 093   ----------------------------------------
	.um8	PATT
	 .um32	mus_littleroot_2_005
// 094   ----------------------------------------
	.um8	PATT
	 .um32	mus_littleroot_2_006
// 095   ----------------------------------------
	.um8		N05   , Ds0 , v108
	.um8	W11
	.um8		N04   , Ds0 , v116
	.um8	W07
	.um8		        Ds0 , v104
	.um8	W11
	.um8		        Cn1 , v108
	.um8	W06
	.um8		        As0 , v112
	.um8	W12
	.um8		N05   , Gs0 , v100
	.um8	W12
	.um8		N06   , Gs0 , v112
	.um8	W24
	.um8		N05   , Ds0 , v088
	.um8	W07
	.um8		N03   , Gs0 
	.um8	W06
// 096   ----------------------------------------
	.um8		N05   , Fn0 , v100
	.um8	W11
	.um8		N03   , Fn0 , v096
	.um8	W06
	.um8		N05   
	.um8	W13
	.um8		        Cn1 , v092
	.um8	W06
	.um8		N06   , As0 , v096
	.um8	W24
	.um8		N03   , As0 , v084
	.um8	W06
	.um8		        As0 , v092
	.um8	W06
	.um8		N03   
	.um8	W06
	.um8		N04   , Cn1 , v084
	.um8	W12
	.um8		N03   , As0 , v080
	.um8	W06
// 097   ----------------------------------------
	.um8		N05   , Ds0 
	.um8	W11
	.um8		N03   
	.um8	W07
	.um8		N05   , Ds0 , v076
	.um8	W12
	.um8		N04   , Cn1 
	.um8	W06
	.um8		N05   , As0 , v080
	.um8	W12
	.um8		N06   , Gs0 
	.um8	W12
	.um8		N05   , Gs0 , v072
	.um8	W24
	.um8		N02   , Gs0 , v064
	.um8	W05
	.um8		N03   , Gs0 , v072
	.um8	W07
// 098   ----------------------------------------
	.um8		N04   , Fn0 
	.um8	W11
	.um8		N03   
	.um8	W07
	.um8		N05   
	.um8	W12
	.um8		N03   , Cn1 , v064
	.um8	W06
	.um8		N06   , As0 , v068
	.um8	W24
	.um8		N05   , Gs0 , v064
	.um8	W12
	.um8		N03   , Gs0 , v056
	.um8	W06
	.um8		N05   , Gs0 , v060
	.um8	W11
	.um8		        Cs1 , v052
	.um8	W07
// 099   ----------------------------------------
	.um8		        Ds0 
	.um8	W11
	.um8		N04   , Ds0 , v056
	.um8	W07
	.um8		        Ds0 , v052
	.um8	W11
	.um8		        Cn1 
	.um8	W06
	.um8		        As0 
	.um8	W12
	.um8		N05   , Gs0 , v048
	.um8	W12
	.um8		N06   
	.um8	W24
	.um8		N05   , Ds0 , v040
	.um8	W07
	.um8		N03   , Gs0 
	.um8	W06
// 100   ----------------------------------------
	.um8		N05   , Fn0 , v044
	.um8	W11
	.um8		N03   , Fn0 , v040
	.um8	W06
	.um8		N05   , Fn0 , v036
	.um8	W13
	.um8		        Cn1 
	.um8	W06
	.um8		N06   , As0 
	.um8	W24
	.um8		N03   , As0 , v032
	.um8	W06
	.um8		N03   
	.um8	W06
	.um8		N03   
	.um8	W06
	.um8		N04   , Cn1 , v028
	.um8	W12
	.um8		N03   , As0 
	.um8	W06
// 101   ----------------------------------------
	.um8		N05   , Ds0 
	.um8	W11
	.um8		N03   , Ds0 , v024
	.um8	W07
	.um8		N05   
	.um8	W12
	.um8		N04   , Cn1 , v020
	.um8	W06
	.um8		N05   , As0 
	.um8	W12
	.um8		N06   , Gs0 
	.um8	W12
	.um8		N05   , Gs0 , v016
	.um8	W24
	.um8		N02   , Gs0 , v012
	.um8	W05
	.um8		N03   , Gs0 , v004
	.um8	W03
	.um8	FINE

//**************** Track 3 (Midi-Chn.4) Melody Flute****************//

mus_littleroot_3:
	.um8	KEYSH , mus_littleroot_key+0
// 000   ----------------------------------------
	.um8	W96
// 001   ----------------------------------------
	.um8	W28
	.um8		VOICE , 73
	.um8		VOL   , 120*mus_littleroot_mvl/mxv
	.um8		PAN   , c_v-14
	.um8	W68
// 002   ----------------------------------------
	.um8	W96
// 003   ----------------------------------------
	.um8	W96
// 004   ----------------------------------------
	.um8	W96
// 005   ----------------------------------------
	.um8	W96
// 006   ----------------------------------------
	.um8	W96
// 007   ----------------------------------------
	.um8	W96
// 008   ----------------------------------------
	.um8	W96
// 009   ----------------------------------------
	.um8	W96
// 010   ----------------------------------------
	.um8	W96
// 011   ----------------------------------------
	.um8	W24
	.um8		MOD   , 0
	.um8		BEND  , c_v+0
	.um8		N10   , As2 , v092
	.um8	W11
	.um8		N11   , Cn3 , v080
	.um8	W12
	.um8		N08   , Cs3 , v088
	.um8	W12
	.um8		N12   
	.um8	W12
	.um8		        Ds3 , v080
	.um8	W13
	.um8		N16   , Cn3 , v088
	.um8	W12
// 012   ----------------------------------------
	.um8	W05
	.um8		N07   , As2 , v080
	.um8	W08
	.um8		N60   , Gs2 , v068
	.um8	W80
	.um8	W03
// 013   ----------------------------------------
	.um8	W11
	.um8		N09   , As2 , v076
	.um8	W12
	.um8		N11   , As2 , v088
	.um8	W12
	.um8		N12   , Cn3 , v080
	.um8	W12
	.um8		N11   , Cs3 , v092
	.um8	W12
	.um8		N17   , As2 , v088
	.um8	W24
	.um8		N11   , Gs2 
	.um8	W12
	.um8		N19   , Gs3 , v100
	.um8	W01
// 014   ----------------------------------------
	.um8	W24
	.um8		N11   
	.um8	W12
	.um8		N56   , Ds3 , v080, gtp3
	.um8	W60
// 015   ----------------------------------------
	.um8	W11
	.um8		N08   , As2 , v088
	.um8	W13
	.um8		N11   , As2 , v080
	.um8	W12
	.um8		N12   , Cn3 , v088
	.um8	W12
	.um8		        Cs3 
	.um8	W13
	.um8		N11   , As2 
	.um8	W12
	.um8		        Cs3 
	.um8	W12
	.um8		N12   , Ds3 
	.um8	W11
// 016   ----------------------------------------
	.um8	W13
	.um8		N11   , Cn3 
	.um8	W11
	.um8		N12   , As2 , v080
	.um8	W13
	.um8		N05   , Cn3 
	.um8	W05
	.um8		N06   , As2 , v076
	.um8	W07
	.um8		N36   , Gs2 , v080, gtp3
	.um8	W44
	.um8	W03
// 017   ----------------------------------------
	.um8	W11
	.um8		N08   , As2 , v088
	.um8	W13
	.um8		N11   , As2 , v080
	.um8	W11
	.um8		N12   , Cn3 , v084
	.um8	W13
	.um8		N07   , Cs3 , v080
	.um8	W12
	.um8		N12   , As2 , v088
	.um8	W12
	.um8		N13   , Gs2 , v092
	.um8	W23
	.um8		N09   , Ds3 
	.um8	W01
// 018   ----------------------------------------
	.um8	W12
	.um8		N06   , Ds3 , v088
	.um8	W11
	.um8		N12   
	.um8	W13
	.um8		        Fn3 , v092
	.um8	W12
	.um8		N24   , Ds3 , v088
	.um8	W48
// 019   ----------------------------------------
	.um8		N56   , Cs3 , v088, gtp3
	.um8	W60
	.um8		N11   , Ds3 , v080
	.um8	W12
	.um8		        Fn3 , v092
	.um8	W11
	.um8		        Cs3 , v080
	.um8	W12
	.um8		N10   , Ds3 , v088
	.um8	W01
// 020   ----------------------------------------
	.um8	W12
	.um8		N07   , Ds3 , v092
	.um8	W10
	.um8		N12   
	.um8	W13
	.um8		N11   , Fn3 
	.um8	W12
	.um8		        Ds3 , v088
	.um8	W11
	.um8		        Gs2 , v080
	.um8	W14
	.um8		N36   , Gs2 , v100
	.um8	W24
// 021   ----------------------------------------
	.um8	W44
	.um8	W03
	.um8		N11   , As2 , v092
	.um8	W12
	.um8		        Cn3 , v088
	.um8	W12
	.um8		        Cs3 
	.um8	W12
	.um8		        As2 , v100
	.um8	W13
// 022   ----------------------------------------
	.um8	W11
	.um8		N12   , Ds3 , v092
	.um8	W13
	.um8		N11   , Fn3 , v100
	.um8	W11
	.um8		N23   , Ds3 , v092
	.um8	W36
	.um8	W01
	.um8		N05   , Gs2 , v088
	.um8	W06
	.um8		        As2 
	.um8	W05
	.um8		N04   , Cs3 , v080
	.um8	W05
	.um8		N05   , As2 
	.um8	W07
	.um8		N13   , Fn3 , v104
	.um8	W01
// 023   ----------------------------------------
mus_littleroot_3_023:
	.um8	W19
	.um8		N16   , Fn3 , v104
	.um8	W17
	.um8		N24   , Ds3 , v092
	.um8	W36
	.um8		N04   , Gs2 , v088
	.um8	W04
	.um8		N05   , As2 , v080
	.um8	W06
	.um8		        Cn3 , v084
	.um8	W06
	.um8		N06   , As2 , v080
	.um8	W07
	.um8		N15   , Ds3 , v092
	.um8	W01
	.um8	PEND
// 024   ----------------------------------------
mus_littleroot_3_024:
	.um8	W20
	.um8		N16   , Ds3 , v088
	.um8	W16
	.um8		N14   , Cs3 
	.um8	W15
	.um8		N05   , Cn3 , v072
	.um8	W06
	.um8		N13   , As2 , v080
	.um8	W16
	.um8		N05   , Gs2 , v088
	.um8	W05
	.um8		N06   , As2 , v076
	.um8	W07
	.um8		N04   , Cn3 
	.um8	W05
	.um8		N05   , As2 , v080
	.um8	W06
	.um8	PEND
// 025   ----------------------------------------
mus_littleroot_3_025:
	.um8		N21   , Cs3 , v088
	.um8	W22
	.um8		N12   , Ds3 , v080
	.um8	W13
	.um8		N11   , Cn3 , v088
	.um8	W12
	.um8		        As2 , v076
	.um8	W12
	.um8		N13   , Gs2 , v080
	.um8	W24
	.um8		N12   
	.um8	W12
	.um8		N18   , Ds3 , v088
	.um8	W01
	.um8	PEND
// 026   ----------------------------------------
mus_littleroot_3_026:
	.um8	W23
	.um8		N24   , Cs3 , v088
	.um8	W48
	.um8	W01
	.um8		N04   , Gs2 
	.um8	W05
	.um8		        As2 , v080
	.um8	W05
	.um8		        Cs3 
	.um8	W05
	.um8		N06   , As2 
	.um8	W07
	.um8		N14   , Fn3 , v104
	.um8	W02
	.um8	PEND
// 027   ----------------------------------------
mus_littleroot_3_027:
	.um8	W18
	.um8		N16   , Fn3 , v104
	.um8	W16
	.um8		N24   , Ds3 , v092, gtp1
	.um8	W36
	.um8		N04   , Gs2 , v088
	.um8	W05
	.um8		N05   , As2 , v080
	.um8	W05
	.um8		N06   , Cn3 , v076
	.um8	W07
	.um8		        As2 , v088
	.um8	W08
	.um8		N21   , Gs3 , v092
	.um8	W01
	.um8	PEND
// 028   ----------------------------------------
mus_littleroot_3_028:
	.um8	W22
	.um8		N12   , Cn3 , v084
	.um8	W13
	.um8		N11   , Cs3 , v088
	.um8	W12
	.um8		N05   , Cn3 , v052
	.um8	W05
	.um8		N12   , As2 , v088
	.um8	W18
	.um8		N05   , Gs2 
	.um8	W05
	.um8		N06   , As2 , v080
	.um8	W07
	.um8		        Cn3 , v076
	.um8	W06
	.um8		N07   , As2 , v088
	.um8	W08
	.um8	PEND
// 029   ----------------------------------------
mus_littleroot_3_029:
	.um8		N23   , Cs3 , v092
	.um8	W24
	.um8		N11   , Ds3 , v080
	.um8	W12
	.um8		N20   , Cn3 , v084
	.um8	W20
	.um8		N06   , As2 , v072
	.um8	W07
	.um8		N12   , Gs2 , v080
	.um8	W20
	.um8		N11   , Gs2 , v092
	.um8	W12
	.um8		N12   , Ds3 
	.um8	W01
	.um8	PEND
// 030   ----------------------------------------
mus_littleroot_3_030:
	.um8	W11
	.um8		N10   , Cs3 , v080
	.um8	W13
	.um8		N28   , Cs3 , v088
	.um8	W72
	.um8	PEND
// 031   ----------------------------------------
	.um8	W11
	.um8		N07   
	.um8	W13
	.um8		N11   , Cs3 , v100
	.um8	W12
	.um8		        As2 , v088
	.um8	W11
	.um8		N13   , Cs3 , v092
	.um8	W14
	.um8		N19   , Ds3 
	.um8	W32
	.um8	W03
// 032   ----------------------------------------
	.um8	W11
	.um8		N11   , Cn3 , v088
	.um8	W12
	.um8		N12   , As2 
	.um8	W13
	.um8		N04   , Cn3 , v084
	.um8	W04
	.um8		N07   , As2 , v068
	.um8	W08
	.um8		N42   , Gs2 , v080, gtp1
	.um8	W48
// 033   ----------------------------------------
	.um8	W12
	.um8		N07   , As2 , v088
	.um8	W11
	.um8		N11   , As2 , v076
	.um8	W12
	.um8		        Cn3 , v084
	.um8	W12
	.um8		        Cs3 , v088
	.um8	W13
	.um8		        As2 , v080
	.um8	W11
	.um8		N16   , Gs2 , v092
	.um8	W24
	.um8	W01
// 034   ----------------------------------------
	.um8	W12
	.um8		N08   , Gs3 , v100
	.um8	W12
	.um8		N12   
	.um8	W13
	.um8		N22   , Ds3 , v092
	.um8	W23
	.um8		N11   , Fn3 
	.um8	W12
	.um8		        Ds3 , v088
	.um8	W11
	.um8		N16   , Cs3 
	.um8	W13
// 035   ----------------------------------------
	.um8	W11
	.um8		N07   
	.um8	W11
	.um8		N12   
	.um8	W13
	.um8		N11   , As2 
	.um8	W12
	.um8		        Cs3 
	.um8	W12
	.um8		        As2 , v076
	.um8	W12
	.um8		N13   , Cs3 , v092
	.um8	W13
	.um8		N11   , Ds3 , v088
	.um8	W12
// 036   ----------------------------------------
	.um8	W12
	.um8		        Cn3 
	.um8	W12
	.um8		N12   , As2 , v080
	.um8	W12
	.um8		N05   , Cn3 
	.um8	W06
	.um8		N07   , As2 , v076
	.um8	W07
	.um8		N28   , Gs2 , v080
	.um8	W44
	.um8	W03
// 037   ----------------------------------------
	.um8	W12
	.um8		N06   , As2 , v092
	.um8	W12
	.um8		N11   
	.um8	W12
	.um8		N12   , Cn3 , v088
	.um8	W12
	.um8		N11   , Cs3 , v080
	.um8	W12
	.um8		        As2 , v088
	.um8	W11
	.um8		N23   , Gs2 , v092
	.um8	W24
	.um8	W01
// 038   ----------------------------------------
	.um8	W13
	.um8		N12   , Ds3 
	.um8	W12
	.um8		N09   , Fn3 
	.um8	W13
	.um8		N22   , Fn3 , v104
	.um8	W22
	.um8		N24   , Ds3 , v088, gtp3
	.um8	W36
// 039   ----------------------------------------
	.um8	W01
	.um8		N56   , Cs3 , v080, gtp1
	.um8	W56
	.um8	W02
	.um8		N12   , Ds3 , v076
	.um8	W13
	.um8		N11   , Fn3 , v100
	.um8	W11
	.um8		N20   , Ds3 , v092
	.um8	W13
// 040   ----------------------------------------
	.um8	W11
	.um8		N09   , Ds3 , v088
	.um8	W12
	.um8		N12   , Ds3 , v092
	.um8	W13
	.um8		N10   , Fn3 , v088
	.um8	W11
	.um8		N11   , Ds3 
	.um8	W12
	.um8		N09   , Gs2 , v076
	.um8	W13
	.um8		N36   , Gs2 , v100, gtp1
	.um8	W24
// 041   ----------------------------------------
	.um8	W32
	.um8	W03
	.um8		N10   , Gs2 , v088
	.um8	W13
	.um8		        As2 , v092
	.um8	W11
	.um8		N13   , Cn3 , v084
	.um8	W13
	.um8		N11   , Cs3 , v088
	.um8	W11
	.um8		N12   , As2 , v100
	.um8	W13
// 042   ----------------------------------------
	.um8	W12
	.um8		        Ds3 , v088
	.um8	W13
	.um8		N11   , Fn3 , v092
	.um8	W11
	.um8		N20   , Ds3 , v088
	.um8	W36
	.um8		N05   , Gs2 
	.um8	W06
	.um8		        As2 
	.um8	W05
	.um8		N04   , Cs3 , v080
	.um8	W05
	.um8		N05   , As2 
	.um8	W07
	.um8		N13   , Fn3 , v104
	.um8	W01
// 043   ----------------------------------------
	.um8	PATT
	 .um32	mus_littleroot_3_023
// 044   ----------------------------------------
	.um8	PATT
	 .um32	mus_littleroot_3_024
// 045   ----------------------------------------
	.um8	PATT
	 .um32	mus_littleroot_3_025
// 046   ----------------------------------------
	.um8	PATT
	 .um32	mus_littleroot_3_026
// 047   ----------------------------------------
	.um8	PATT
	 .um32	mus_littleroot_3_027
// 048   ----------------------------------------
	.um8	PATT
	 .um32	mus_littleroot_3_028
// 049   ----------------------------------------
	.um8	PATT
	 .um32	mus_littleroot_3_029
// 050   ----------------------------------------
mus_littleroot_3_050:
	.um8	W11
	.um8		N10   , Cs3 , v080
	.um8	W13
	.um8		N28   , Cs3 , v088
	.um8	W48
	.um8		N05   , Gs2 
	.um8	W06
	.um8		        As2 
	.um8	W05
	.um8		N04   , Cs3 , v080
	.um8	W05
	.um8		N05   , As2 
	.um8	W07
	.um8		N13   , Fn3 , v104
	.um8	W01
	.um8	PEND
// 051   ----------------------------------------
	.um8	PATT
	 .um32	mus_littleroot_3_023
// 052   ----------------------------------------
	.um8	PATT
	 .um32	mus_littleroot_3_024
// 053   ----------------------------------------
	.um8	PATT
	 .um32	mus_littleroot_3_025
// 054   ----------------------------------------
	.um8	PATT
	 .um32	mus_littleroot_3_026
// 055   ----------------------------------------
	.um8	PATT
	 .um32	mus_littleroot_3_027
// 056   ----------------------------------------
	.um8	PATT
	 .um32	mus_littleroot_3_028
// 057   ----------------------------------------
	.um8	PATT
	 .um32	mus_littleroot_3_029
// 058   ----------------------------------------
	.um8	PATT
	 .um32	mus_littleroot_3_030
// 059   ----------------------------------------
	.um8	W96
// 060   ----------------------------------------
	.um8	W96
// 061   ----------------------------------------
	.um8	W96
// 062   ----------------------------------------
	.um8	W96
// 063   ----------------------------------------
	.um8	W12
	.um8		N04   , Gs2 , v088
	.um8	W04
	.um8		N06   , As2 , v080
	.um8	W06
	.um8		N05   , Cs3 , v076
	.um8	W06
	.um8		N06   , As2 , v088
	.um8	W07
	.um8		N08   , Fn3 , v100
	.um8	W12
	.um8		N05   , Gs2 , v080
	.um8	W06
	.um8		        As2 
	.um8	W06
	.um8		        Cs3 , v088
	.um8	W05
	.um8		        As2 , v092
	.um8	W06
	.um8		N13   , Fn3 , v104
	.um8	W24
	.um8	W02
// 064   ----------------------------------------
	.um8	W96
// 065   ----------------------------------------
	.um8	W11
	.um8		N04   , Gs2 , v088
	.um8	W05
	.um8		N05   , As2 
	.um8	W06
	.um8		N04   , Cs3 
	.um8	W05
	.um8		N06   , As2 , v080
	.um8	W07
	.um8		N09   , Fn3 , v092
	.um8	W13
	.um8		N05   , Gs2 
	.um8	W06
	.um8		N06   , As2 , v080
	.um8	W06
	.um8		N04   , Cs3 
	.um8	W05
	.um8		N06   , As2 
	.um8	W07
	.um8		N14   , Fn3 , v104
	.um8	W24
	.um8	W01
// 066   ----------------------------------------
	.um8	W96
// 067   ----------------------------------------
	.um8	W11
	.um8		N07   , Cs3 , v080
	.um8	W12
	.um8		N11   , Cs3 , v088
	.um8	W12
	.um8		N12   , As2 
	.um8	W12
	.um8		N11   , Cs3 
	.um8	W12
	.um8		N17   , Ds3 
	.um8	W36
	.um8	W01
// 068   ----------------------------------------
	.um8	W11
	.um8		N11   , Cn3 , v084
	.um8	W12
	.um8		N12   , As2 , v080
	.um8	W13
	.um8		N05   , Cn3 , v076
	.um8	W06
	.um8		N06   , As2 , v072
	.um8	W06
	.um8		N42   , Gs2 , v076, gtp1
	.um8	W48
// 069   ----------------------------------------
	.um8	W10
	.um8		N07   , As2 , v088
	.um8	W13
	.um8		N12   , As2 , v092
	.um8	W12
	.um8		        Cn3 , v084
	.um8	W12
	.um8		N11   , Cs3 , v080
	.um8	W12
	.um8		N12   , As2 , v088
	.um8	W12
	.um8		N17   , Gs2 
	.um8	W24
	.um8	W01
// 070   ----------------------------------------
	.um8	W11
	.um8		N09   , Gs3 , v092
	.um8	W13
	.um8		N12   
	.um8	W13
	.um8		N17   , Ds3 , v088
	.um8	W23
	.um8		N11   , Fn3 , v100
	.um8	W12
	.um8		        Ds3 , v080
	.um8	W11
	.um8		N15   , Cs3 
	.um8	W13
// 071   ----------------------------------------
	.um8	W11
	.um8		N07   
	.um8	W12
	.um8		N11   
	.um8	W11
	.um8		        As2 
	.um8	W12
	.um8		        Cs3 , v088
	.um8	W13
	.um8		N12   , As2 
	.um8	W12
	.um8		N13   , Cs3 
	.um8	W13
	.um8		N12   , Ds3 
	.um8	W12
// 072   ----------------------------------------
	.um8	W12
	.um8		N11   , Cn3 
	.um8	W12
	.um8		        As2 , v080
	.um8	W12
	.um8		N05   , Cn3 , v076
	.um8	W05
	.um8		        As2 
	.um8	W06
	.um8		N24   , Gs2 , v080, gtp3
	.um8	W48
	.um8	W01
// 073   ----------------------------------------
	.um8	W11
	.um8		N07   , As2 , v088
	.um8	W11
	.um8		N12   , As2 , v080
	.um8	W13
	.um8		        Cn3 
	.um8	W12
	.um8		N11   , Cs3 
	.um8	W12
	.um8		N12   , As2 , v088
	.um8	W12
	.um8		N17   , Gs2 , v092
	.um8	W24
	.um8	W01
// 074   ----------------------------------------
	.um8	W12
	.um8		N13   , Ds3 , v080
	.um8	W13
	.um8		N08   , Fn3 , v092
	.um8	W12
	.um8		N22   , Fn3 , v100
	.um8	W23
	.um8		N24   , Ds3 , v092
	.um8	W36
// 075   ----------------------------------------
	.um8		N56   , Cs3 , v088, gtp3
	.um8	W56
	.um8	W03
	.um8		N12   , Ds3 
	.um8	W12
	.um8		N11   , Fn3 , v092
	.um8	W12
	.um8		        Cs3 , v080
	.um8	W12
	.um8		N09   , Ds3 
	.um8	W01
// 076   ----------------------------------------
	.um8	W12
	.um8		N06   , Ds3 , v092
	.um8	W11
	.um8		N12   
	.um8	W12
	.um8		N11   , Fn3 , v088
	.um8	W12
	.um8		        Ds3 
	.um8	W11
	.um8		N10   , Gs2 , v080
	.um8	W14
	.um8		N23   , Gs2 , v100
	.um8	W24
// 077   ----------------------------------------
	.um8	W48
	.um8		N11   , As2 , v092
	.um8	W11
	.um8		N12   , Cn3 , v084
	.um8	W12
	.um8		N11   , Cs3 , v088
	.um8	W12
	.um8		N12   , As2 , v100
	.um8	W13
// 078   ----------------------------------------
	.um8	W12
	.um8		        Ds3 , v088
	.um8	W13
	.um8		N10   , Fn3 , v092
	.um8	W11
	.um8		N22   , Ds3 , v088
	.um8	W36
	.um8		N05   , Gs2 
	.um8	W06
	.um8		        As2 
	.um8	W05
	.um8		N04   , Cs3 , v080
	.um8	W05
	.um8		N05   , As2 
	.um8	W07
	.um8		N13   , Fn3 , v104
	.um8	W01
// 079   ----------------------------------------
	.um8	PATT
	 .um32	mus_littleroot_3_023
// 080   ----------------------------------------
	.um8	PATT
	 .um32	mus_littleroot_3_024
// 081   ----------------------------------------
	.um8	PATT
	 .um32	mus_littleroot_3_025
// 082   ----------------------------------------
	.um8	PATT
	 .um32	mus_littleroot_3_026
// 083   ----------------------------------------
	.um8	PATT
	 .um32	mus_littleroot_3_027
// 084   ----------------------------------------
	.um8	PATT
	 .um32	mus_littleroot_3_028
// 085   ----------------------------------------
	.um8	PATT
	 .um32	mus_littleroot_3_029
// 086   ----------------------------------------
	.um8	PATT
	 .um32	mus_littleroot_3_050
// 087   ----------------------------------------
	.um8	PATT
	 .um32	mus_littleroot_3_023
// 088   ----------------------------------------
	.um8	PATT
	 .um32	mus_littleroot_3_024
// 089   ----------------------------------------
	.um8	PATT
	 .um32	mus_littleroot_3_025
// 090   ----------------------------------------
	.um8	PATT
	 .um32	mus_littleroot_3_026
// 091   ----------------------------------------
	.um8	PATT
	 .um32	mus_littleroot_3_027
// 092   ----------------------------------------
	.um8	PATT
	 .um32	mus_littleroot_3_028
// 093   ----------------------------------------
	.um8	PATT
	 .um32	mus_littleroot_3_029
// 094   ----------------------------------------
	.um8	PATT
	 .um32	mus_littleroot_3_050
// 095   ----------------------------------------
	.um8	W19
	.um8		N16   , Fn3 , v104
	.um8	W17
	.um8		N24   , Ds3 , v088
	.um8	W36
	.um8		N04   , Gs2 , v080
	.um8	W04
	.um8		N05   , As2 , v068
	.um8	W06
	.um8		        Cn3 , v072
	.um8	W06
	.um8		N06   , As2 , v068
	.um8	W07
	.um8		N15   , Ds3 , v080
	.um8	W01
// 096   ----------------------------------------
	.um8	W20
	.um8		N16   , Ds3 , v072
	.um8	W16
	.um8		N14   , Cs3 , v068
	.um8	W15
	.um8		N05   , Cn3 , v052
	.um8	W06
	.um8		N13   , As2 , v060
	.um8	W16
	.um8		N05   , Gs2 , v064
	.um8	W05
	.um8		N06   , As2 , v052
	.um8	W07
	.um8		N04   , Cn3 
	.um8	W05
	.um8		N05   , As2 
	.um8	W06
// 097   ----------------------------------------
	.um8		N21   , Cs3 , v060
	.um8	W22
	.um8		N12   , Ds3 , v048
	.um8	W13
	.um8		N11   , Cn3 , v052
	.um8	W12
	.um8		        As2 , v044
	.um8	W12
	.um8		N13   , Gs2 
	.um8	W24
	.um8		N12   , Gs2 , v040
	.um8	W12
	.um8		N18   , Ds3 , v044
	.um8	W01
// 098   ----------------------------------------
	.um8	W23
	.um8		N24   , Cs3 , v040
	.um8	W48
	.um8	W01
	.um8		N04   , Gs2 , v032
	.um8	W05
	.um8		        As2 , v028
	.um8	W05
	.um8		        Cs3 
	.um8	W05
	.um8		N06   , As2 
	.um8	W07
	.um8		N14   , Fn3 , v036
	.um8	W02
// 099   ----------------------------------------
	.um8	W18
	.um8		N16   , Fn3 , v032
	.um8	W16
	.um8		N24   , Ds3 , v024, gtp1
	.um8	W36
	.um8		N04   , Gs2 , v016
	.um8	W05
	.um8		N05   , As2 , v012
	.um8	W05
	.um8		N06   , Cn3 
	.um8	W07
	.um8		        As2 , v016
	.um8	W08
	.um8		N21   , Gs3 
	.um8	W01
// 100   ----------------------------------------
	.um8	W22
	.um8		N12   , Cn3 , v008
	.um8	W13
	.um8		N11   , Cs3 
	.um8	W12
	.um8		N05   , Cn3 , v004
	.um8	W05
	.um8		N12   , As2 
	.um8	W18
	.um8		N05   , Gs2 
	.um8	W05
	.um8		N06   , As2 
	.um8	W07
	.um8		        Cn3 
	.um8	W06
	.um8		N07   , As2 
	.um8	W08
// 101   ----------------------------------------
	.um8		N23   , Cs3 
	.um8	W24
	.um8		N11   , Ds3 
	.um8	W12
	.um8		N20   , Cn3 
	.um8	W20
	.um8		N06   , As2 
	.um8	W07
	.um8		N12   , Gs2 
	.um8	W20
	.um8		N03   
	.um8	W03
	.um8	FINE

//**************** Track 4 (Midi-Chn.5) Piccolo****************//

mus_littleroot_4:
	.um8	KEYSH , mus_littleroot_key+0
// 000   ----------------------------------------
	.um8	W96
// 001   ----------------------------------------
	.um8	W28
	.um8	W01
	.um8		VOICE , 73
	.um8		VOL   , 100*mus_littleroot_mvl/mxv
	.um8		PAN   , c_v+14
	.um8	W01
	.um8	W66
// 002   ----------------------------------------
	.um8	W96
// 003   ----------------------------------------
	.um8	W96
// 004   ----------------------------------------
	.um8	W96
// 005   ----------------------------------------
	.um8	W96
// 006   ----------------------------------------
	.um8	W96
// 007   ----------------------------------------
	.um8	W96
// 008   ----------------------------------------
	.um8	W96
// 009   ----------------------------------------
	.um8	W96
// 010   ----------------------------------------
	.um8	W96
// 011   ----------------------------------------
	.um8	W24
	.um8		MOD   , 0
	.um8		BEND  , c_v+0
	.um8		N11   , As2 , v072
	.um8	W11
	.um8		        Cn3 , v060
	.um8	W12
	.um8		N12   , Cs3 , v068
	.um8	W12
	.um8		N12   
	.um8	W12
	.um8		        Ds3 , v060
	.um8	W13
	.um8		N16   , Cn3 , v068
	.um8	W12
// 012   ----------------------------------------
	.um8	W05
	.um8		N08   , As2 , v060
	.um8	W08
	.um8		N92   , Gs2 , v048, gtp1
	.um8	W80
	.um8	W03
// 013   ----------------------------------------
	.um8	W11
	.um8		N12   , As2 , v056
	.um8	W12
	.um8		        As2 , v068
	.um8	W12
	.um8		        Cn3 , v060
	.um8	W12
	.um8		        Cs3 , v072
	.um8	W12
	.um8		N23   , As2 , v068
	.um8	W24
	.um8		N11   , Gs2 
	.um8	W12
	.um8		N24   , Gs3 , v080
	.um8	W01
// 014   ----------------------------------------
	.um8	W24
	.um8		N12   
	.um8	W12
	.um8		N68   , Ds3 , v060, gtp3
	.um8	W60
// 015   ----------------------------------------
	.um8	W11
	.um8		N12   , As2 , v068
	.um8	W13
	.um8		        As2 , v060
	.um8	W12
	.um8		        Cn3 , v068
	.um8	W12
	.um8		        Cs3 
	.um8	W13
	.um8		N11   , As2 
	.um8	W12
	.um8		N12   , Cs3 
	.um8	W12
	.um8		N23   , Ds3 
	.um8	W11
// 016   ----------------------------------------
	.um8	W13
	.um8		N11   , Cn3 
	.um8	W11
	.um8		N12   , As2 , v060
	.um8	W13
	.um8		N05   , Cn3 
	.um8	W05
	.um8		N06   , As2 , v056
	.um8	W07
	.um8		N56   , Gs2 , v060, gtp2
	.um8	W44
	.um8	W03
// 017   ----------------------------------------
	.um8	W11
	.um8		N12   , As2 , v068
	.um8	W13
	.um8		N11   , As2 , v060
	.um8	W11
	.um8		N12   , Cn3 , v064
	.um8	W13
	.um8		        Cs3 , v060
	.um8	W12
	.um8		        As2 , v068
	.um8	W12
	.um8		N22   , Gs2 , v072
	.um8	W23
	.um8		N12   , Ds3 
	.um8	W01
// 018   ----------------------------------------
	.um8	W12
	.um8		N11   , Ds3 , v068
	.um8	W11
	.um8		N12   
	.um8	W13
	.um8		        Fn3 , v072
	.um8	W12
	.um8		N44   , Ds3 , v068, gtp3
	.um8	W48
// 019   ----------------------------------------
	.um8		N56   , Cs3 , v068, gtp2
	.um8	W60
	.um8		N12   , Ds3 , v060
	.um8	W12
	.um8		N11   , Fn3 , v072
	.um8	W11
	.um8		        Cs3 , v060
	.um8	W12
	.um8		N12   , Ds3 , v068
	.um8	W01
// 020   ----------------------------------------
	.um8	W12
	.um8		N10   , Ds3 , v072
	.um8	W10
	.um8		N12   
	.um8	W13
	.um8		N11   , Fn3 
	.um8	W12
	.um8		        Ds3 , v068
	.um8	W11
	.um8		N13   , Gs2 , v060
	.um8	W14
	.um8		N68   , Gs2 , v080, gtp2
	.um8	W24
// 021   ----------------------------------------
	.um8	W44
	.um8	W03
	.um8		N12   , As2 , v072
	.um8	W12
	.um8		        Cn3 , v068
	.um8	W12
	.um8		N11   , Cs3 
	.um8	W12
	.um8		N24   , As2 , v080
	.um8	W13
// 022   ----------------------------------------
	.um8	W11
	.um8		N12   , Ds3 , v072
	.um8	W13
	.um8		N11   , Fn3 , v080
	.um8	W11
	.um8		N36   , Ds3 , v072
	.um8	W36
	.um8	W01
	.um8		N06   , Gs2 , v068
	.um8	W06
	.um8		N05   , As2 
	.um8	W05
	.um8		        Cs3 , v060
	.um8	W05
	.um8		N07   , As2 
	.um8	W08
// 023   ----------------------------------------
mus_littleroot_4_023:
	.um8		N17   , Cs3 , v048
	.um8		N17   , Fn3 , v084
	.um8		N17   , Gs3 , v064
	.um8		N17   , Cs4 
	.um8	W18
	.um8		        Cs3 , v040
	.um8		N17   , Fn3 , v080
	.um8		N17   , Gs3 , v064
	.um8		N17   , Cs4 , v072
	.um8	W18
	.um8		N32   , Cn3 , v048, gtp3
	.um8		N32   , Ds3 , v072, gtp3
	.um8		N32   , Gs3 , v064, gtp3
	.um8		N32   , Cn4 , v072, gtp3
	.um8	W36
	.um8		N06   , Gs2 , v064
	.um8	W06
	.um8		        As2 , v056
	.um8	W06
	.um8		        Cn3 , v060
	.um8	W06
	.um8		        As2 , v056
	.um8	W06
	.um8	PEND
// 024   ----------------------------------------
mus_littleroot_4_024:
	.um8		N17   , Cn3 , v044
	.um8		N17   , Ds3 , v072
	.um8		N17   , Gs3 , v064
	.um8		N17   , Cn4 
	.um8	W18
	.um8		        Cn3 , v036
	.um8		N17   , Ds3 , v064
	.um8		N17   , Gs3 , v056
	.um8		N17   , Cn4 , v060
	.um8	W18
	.um8		        Cs3 , v064
	.um8		N32   , Fn3 , v076, gtp3
	.um8		N32   , As3 , v072, gtp3
	.um8	W18
	.um8		N06   , Cn3 , v048
	.um8	W06
	.um8		N12   , As2 , v056
	.um8	W12
	.um8		N07   , Gs2 , v064
	.um8	W07
	.um8		        As2 , v052
	.um8	W07
	.um8		N05   , Cn3 
	.um8	W05
	.um8		N06   , As2 , v056
	.um8	W05
	.um8	PEND
// 025   ----------------------------------------
mus_littleroot_4_025:
	.um8	W01
	.um8		N21   , Cs3 , v064
	.um8	W22
	.um8		N12   , Ds3 , v056
	.um8	W13
	.um8		N11   , Cn3 , v064
	.um8	W12
	.um8		N12   , As2 , v052
	.um8	W12
	.um8		N23   , Gs2 , v056
	.um8	W24
	.um8		N12   
	.um8		N11   , Cn3 , v060
	.um8		N11   , Ds3 , v052
	.um8		N11   , Cn4 , v064
	.um8	W12
	.um8	PEND
// 026   ----------------------------------------
mus_littleroot_4_026:
	.um8		N23   , Cn3 , v072
	.um8		N23   , Ds3 , v064
	.um8		N23   , Cn4 , v072
	.um8	W24
	.um8		N44   , Cs3 , v064, gtp3
	.um8		N44   , Fn3 , v072, gtp3
	.um8		N44   , Gs3 , v072, gtp3
	.um8		N44   , Cs4 , v056, gtp3
	.um8	W48
	.um8		N06   , Gs2 , v064
	.um8	W06
	.um8		        As2 , v056
	.um8	W06
	.um8		        Cs3 
	.um8	W06
	.um8		        As2 
	.um8	W06
	.um8	PEND
// 027   ----------------------------------------
mus_littleroot_4_027:
	.um8		N17   , Cs3 , v048
	.um8		N17   , Fn3 , v080
	.um8		N17   , Gs3 , v064
	.um8		N17   , Cs4 
	.um8	W18
	.um8		        Cs3 , v048
	.um8		N17   , Fn3 , v080
	.um8		N17   , Gs3 , v064
	.um8		N17   , Cs4 
	.um8	W18
	.um8		N32   , Cn3 , v060, gtp3
	.um8		N32   , Ds3 , v072, gtp3
	.um8		N32   , Gs3 , v072, gtp3
	.um8		N32   , Cn4 , v072, gtp3
	.um8	W36
	.um8		N06   , Gs2 , v064
	.um8	W06
	.um8		        As2 , v056
	.um8	W06
	.um8		        Cn3 , v052
	.um8	W06
	.um8		        As2 , v064
	.um8	W06
	.um8	PEND
// 028   ----------------------------------------
mus_littleroot_4_028:
	.um8		N23   , Cn3 , v056
	.um8		N23   , Ds3 , v072
	.um8		N23   , Gs3 
	.um8		N23   , Cn4 
	.um8	W24
	.um8		N12   , Cn3 , v060
	.um8		N12   , Ds3 , v064
	.um8		N12   , Cn4 
	.um8	W12
	.um8		        Cs3 
	.um8		N12   , Fn3 
	.um8		N12   , Cs4 
	.um8	W12
	.um8		N06   , Cn3 , v028
	.um8		N06   , Ds3 , v052
	.um8		N06   , Cn4 
	.um8	W06
	.um8		N17   , As2 , v064
	.um8		N17   , Cs3 , v052
	.um8		N17   , As3 
	.um8	W18
	.um8		N06   , Gs2 , v064
	.um8	W06
	.um8		        As2 , v056
	.um8	W06
	.um8		        Cn3 , v052
	.um8	W06
	.um8		N07   , As2 , v064
	.um8	W06
	.um8	PEND
// 029   ----------------------------------------
mus_littleroot_4_029:
	.um8	W01
	.um8		N23   , Cs3 , v072
	.um8	W24
	.um8		N11   , Ds3 , v056
	.um8	W12
	.um8		N20   , Cn3 , v060
	.um8	W20
	.um8		N06   , As2 , v048
	.um8	W07
	.um8		N20   , Gs2 , v056
	.um8	W20
	.um8		N11   , Gs2 , v072
	.um8	W12
	.um8	PEND
// 030   ----------------------------------------
mus_littleroot_4_030:
	.um8		N23   , Cn3 , v056
	.um8		N23   , Ds3 , v072
	.um8		N23   , Cn4 
	.um8	W24
	.um8		N68   , Cs3 , v064, gtp3
	.um8		N68   , Fn3 , v072, gtp3
	.um8		N68   , Gs3 , v064, gtp3
	.um8		N68   , Cs4 , v064, gtp3
	.um8	W72
	.um8	PEND
// 031   ----------------------------------------
	.um8	W11
	.um8		N12   , Cs3 , v068
	.um8	W13
	.um8		N11   , Cs3 , v080
	.um8	W12
	.um8		        As2 , v068
	.um8	W11
	.um8		N13   , Cs3 , v072
	.um8	W14
	.um8		N44   , Ds3 , v072, gtp1
	.um8	W32
	.um8	W03
// 032   ----------------------------------------
	.um8	W11
	.um8		N12   , Cn3 , v068
	.um8	W12
	.um8		        As2 
	.um8	W13
	.um8		N04   , Cn3 , v064
	.um8	W04
	.um8		N08   , As2 , v048
	.um8	W08
	.um8		N56   , Gs2 , v060, gtp3
	.um8	W48
// 033   ----------------------------------------
	.um8	W12
	.um8		N11   , As2 , v068
	.um8	W11
	.um8		N12   , As2 , v056
	.um8	W12
	.um8		        Cn3 , v064
	.um8	W12
	.um8		        Cs3 , v068
	.um8	W13
	.um8		N11   , As2 , v060
	.um8	W11
	.um8		N36   , Gs2 , v072
	.um8	W24
	.um8	W01
// 034   ----------------------------------------
	.um8	W12
	.um8		N11   , Gs3 , v080
	.um8	W12
	.um8		N12   
	.um8	W13
	.um8		N22   , Ds3 , v072
	.um8	W23
	.um8		N11   , Fn3 
	.um8	W12
	.um8		        Ds3 , v068
	.um8	W11
	.um8		N23   , Cs3 
	.um8	W13
// 035   ----------------------------------------
	.um8	W11
	.um8		N11   
	.um8	W11
	.um8		N12   
	.um8	W13
	.um8		        As2 
	.um8	W12
	.um8		        Cs3 
	.um8	W12
	.um8		N11   , As2 , v056
	.um8	W12
	.um8		N13   , Cs3 , v072
	.um8	W13
	.um8		N23   , Ds3 , v068
	.um8	W12
// 036   ----------------------------------------
	.um8	W12
	.um8		N12   , Cn3 
	.um8	W12
	.um8		        As2 , v060
	.um8	W12
	.um8		N05   , Cn3 
	.um8	W06
	.um8		N07   , As2 , v056
	.um8	W07
	.um8		N56   , Gs2 , v060, gtp2
	.um8	W44
	.um8	W03
// 037   ----------------------------------------
	.um8	W12
	.um8		N11   , As2 , v072
	.um8	W12
	.um8		N11   
	.um8	W12
	.um8		N12   , Cn3 , v068
	.um8	W12
	.um8		N11   , Cs3 , v060
	.um8	W12
	.um8		        As2 , v068
	.um8	W11
	.um8		N36   , Gs2 , v072, gtp1
	.um8	W24
	.um8	W01
// 038   ----------------------------------------
	.um8	W13
	.um8		N12   , Ds3 
	.um8	W12
	.um8		        Fn3 
	.um8	W13
	.um8		N22   , Fn3 , v084
	.um8	W22
	.um8		N36   , Ds3 , v068
	.um8	W36
// 039   ----------------------------------------
	.um8	W01
	.um8		N56   , Cs3 , v060, gtp1
	.um8	W56
	.um8	W02
	.um8		N12   , Ds3 , v056
	.um8	W13
	.um8		N11   , Fn3 , v080
	.um8	W11
	.um8		N22   , Ds3 , v072
	.um8	W13
// 040   ----------------------------------------
	.um8	W11
	.um8		N12   , Ds3 , v068
	.um8	W12
	.um8		        Ds3 , v072
	.um8	W13
	.um8		N11   , Fn3 , v068
	.um8	W11
	.um8		        Ds3 
	.um8	W12
	.um8		N12   , Gs2 , v056
	.um8	W13
	.um8		N56   , Gs2 , v080, gtp2
	.um8	W24
// 041   ----------------------------------------
	.um8	W32
	.um8	W03
	.um8		N12   , Gs2 , v068
	.um8	W13
	.um8		N11   , As2 , v072
	.um8	W11
	.um8		N13   , Cn3 , v064
	.um8	W13
	.um8		N11   , Cs3 , v068
	.um8	W11
	.um8		N24   , As2 , v080
	.um8	W13
// 042   ----------------------------------------
mus_littleroot_4_042:
	.um8	W12
	.um8		N12   , Ds3 , v068
	.um8	W13
	.um8		N11   , Fn3 , v072
	.um8	W11
	.um8		N32   , Ds3 , v068, gtp3
	.um8	W36
	.um8		N06   , Gs2 
	.um8	W06
	.um8		N05   , As2 
	.um8	W05
	.um8		        Cs3 , v060
	.um8	W05
	.um8		N07   , As2 
	.um8	W08
	.um8	PEND
// 043   ----------------------------------------
	.um8	PATT
	 .um32	mus_littleroot_4_023
// 044   ----------------------------------------
	.um8	PATT
	 .um32	mus_littleroot_4_024
// 045   ----------------------------------------
	.um8	PATT
	 .um32	mus_littleroot_4_025
// 046   ----------------------------------------
	.um8	PATT
	 .um32	mus_littleroot_4_026
// 047   ----------------------------------------
	.um8	PATT
	 .um32	mus_littleroot_4_027
// 048   ----------------------------------------
	.um8	PATT
	 .um32	mus_littleroot_4_028
// 049   ----------------------------------------
	.um8	PATT
	 .um32	mus_littleroot_4_029
// 050   ----------------------------------------
mus_littleroot_4_050:
	.um8		N23   , Cn3 , v056
	.um8		N23   , Ds3 , v072
	.um8		N23   , Cn4 
	.um8	W24
	.um8		N44   , Cs3 , v064, gtp3
	.um8		N44   , Fn3 , v072, gtp3
	.um8		N44   , Gs3 , v064, gtp3
	.um8		N44   , Cs4 , v064, gtp3
	.um8	W48
	.um8		N06   , Gs2 
	.um8	W06
	.um8		        As2 
	.um8	W06
	.um8		        Cs3 , v056
	.um8	W06
	.um8		        As2 
	.um8	W06
	.um8	PEND
// 051   ----------------------------------------
	.um8		N17   , Cs3 , v048
	.um8		N17   , Fn3 , v080
	.um8		N17   , Gs3 , v064
	.um8		N17   , Cs4 
	.um8	W18
	.um8		        Cs3 , v040
	.um8		N17   , Fn3 , v080
	.um8		N17   , Gs3 , v064
	.um8		N17   , Cs4 , v072
	.um8	W18
	.um8		N32   , Cn3 , v048, gtp3
	.um8		N32   , Ds3 , v072, gtp3
	.um8		N32   , Gs3 , v064, gtp3
	.um8		N32   , Cn4 , v072, gtp3
	.um8	W36
	.um8		N06   , Gs2 , v064
	.um8	W06
	.um8		        As2 , v056
	.um8	W06
	.um8		        Cn3 , v060
	.um8	W06
	.um8		        As2 , v056
	.um8	W06
// 052   ----------------------------------------
	.um8	PATT
	 .um32	mus_littleroot_4_024
// 053   ----------------------------------------
	.um8	PATT
	 .um32	mus_littleroot_4_025
// 054   ----------------------------------------
	.um8	PATT
	 .um32	mus_littleroot_4_026
// 055   ----------------------------------------
	.um8	PATT
	 .um32	mus_littleroot_4_027
// 056   ----------------------------------------
	.um8		N23   , Cn3 , v056
	.um8		N23   , Ds3 , v072
	.um8		N23   , Gs3 
	.um8		N23   , Cn4 
	.um8	W24
	.um8		N12   , Cn3 , v060
	.um8		N12   , Ds3 , v064
	.um8		N12   , Cn4 
	.um8	W12
	.um8		        Cs3 
	.um8		N12   , Fn3 
	.um8		N12   , Cs4 
	.um8	W12
	.um8		N06   , Cn3 , v028
	.um8		N06   , Ds3 , v052
	.um8		N06   , Cn4 
	.um8	W06
	.um8		N17   , As2 , v064
	.um8		N17   , Cs3 , v052
	.um8		N17   , As3 
	.um8	W18
	.um8		N06   , Gs2 , v064
	.um8	W04
	.um8		N07   , As2 , v056
	.um8	W07
	.um8		N06   , Cn3 , v052
	.um8	W06
	.um8		N08   , As2 , v064
	.um8	W07
// 057   ----------------------------------------
	.um8	PATT
	 .um32	mus_littleroot_4_029
// 058   ----------------------------------------
	.um8	PATT
	 .um32	mus_littleroot_4_030
// 059   ----------------------------------------
	.um8	W96
// 060   ----------------------------------------
mus_littleroot_4_060:
	.um8		N17   , Fn3 , v044
	.um8		N17   , Gs3 
	.um8		N17   , As3 , v056
	.um8		N17   , Cs4 , v064
	.um8	W18
	.um8		        Fn3 , v044
	.um8		N17   , Gs3 
	.um8		N17   , As3 , v052
	.um8		N17   , Cs4 , v064
	.um8	W18
	.um8		N32   , Ds3 , v044, gtp1
	.um8		N32   , Gs3 , v052, gtp1
	.um8		N32   , Cn4 , v056, gtp1
	.um8	W60
	.um8	PEND
// 061   ----------------------------------------
	.um8	W96
// 062   ----------------------------------------
	.um8	PATT
	 .um32	mus_littleroot_4_060
// 063   ----------------------------------------
mus_littleroot_4_063:
	.um8	W13
	.um8		N04   , Gs2 , v064
	.um8	W04
	.um8		N06   , As2 , v056
	.um8	W06
	.um8		N05   , Cs3 , v052
	.um8	W06
	.um8		N07   , As2 , v064
	.um8	W07
	.um8		N11   , Fn3 , v076
	.um8	W12
	.um8		N06   , Gs2 , v056
	.um8	W06
	.um8		        As2 
	.um8	W06
	.um8		N05   , Cs3 , v064
	.um8	W05
	.um8		        As2 , v072
	.um8	W06
	.um8		N24   , Fn3 , v080
	.um8	W24
	.um8	W01
	.um8	PEND
// 064   ----------------------------------------
	.um8	PATT
	 .um32	mus_littleroot_4_060
// 065   ----------------------------------------
	.um8	PATT
	 .um32	mus_littleroot_4_063
// 066   ----------------------------------------
	.um8		N17   , Fn3 , v044
	.um8		N17   , Gs3 
	.um8		N17   , As3 , v056
	.um8		N17   , Cs4 , v064
	.um8	W18
	.um8		        Fn3 , v044
	.um8		N17   , Gs3 
	.um8		N17   , As3 , v052
	.um8		N17   , Cs4 , v064
	.um8	W18
	.um8		N56   , Ds3 , v044, gtp3
	.um8		N56   , Gs3 , v052, gtp3
	.um8		N56   , Cn4 , v056, gtp3
	.um8	W60
// 067   ----------------------------------------
	.um8	W11
	.um8		N11   , Cs3 , v060
	.um8	W12
	.um8		        Cs3 , v068
	.um8	W12
	.um8		N12   , As2 
	.um8	W12
	.um8		N11   , Cs3 
	.um8	W12
	.um8		N44   , Ds3 , v068, gtp3
	.um8	W36
	.um8	W01
// 068   ----------------------------------------
	.um8	W11
	.um8		N12   , Cn3 , v064
	.um8	W12
	.um8		        As2 , v060
	.um8	W13
	.um8		N06   , Cn3 , v056
	.um8	W06
	.um8		        As2 , v052
	.um8	W06
	.um8		N56   , Gs2 , v056, gtp1
	.um8	W48
// 069   ----------------------------------------
	.um8	W10
	.um8		N12   , As2 , v068
	.um8	W13
	.um8		        As2 , v072
	.um8	W12
	.um8		        Cn3 , v064
	.um8	W12
	.um8		N11   , Cs3 , v060
	.um8	W12
	.um8		N12   , As2 , v068
	.um8	W12
	.um8		N32   , Gs2 , v068, gtp3
	.um8	W24
	.um8	W01
// 070   ----------------------------------------
	.um8	W11
	.um8		N12   , Gs3 , v072
	.um8	W13
	.um8		N12   
	.um8	W13
	.um8		N23   , Ds3 , v068
	.um8	W23
	.um8		N11   , Fn3 , v080
	.um8	W12
	.um8		        Ds3 , v060
	.um8	W11
	.um8		N23   , Cs3 
	.um8	W13
// 071   ----------------------------------------
	.um8	W11
	.um8		N11   
	.um8	W12
	.um8		N11   
	.um8	W11
	.um8		N12   , As2 
	.um8	W12
	.um8		        Cs3 , v068
	.um8	W13
	.um8		        As2 
	.um8	W12
	.um8		N13   , Cs3 
	.um8	W13
	.um8		N23   , Ds3 
	.um8	W12
// 072   ----------------------------------------
	.um8	W12
	.um8		N11   , Cn3 
	.um8	W12
	.um8		        As2 , v060
	.um8	W12
	.um8		N05   , Cn3 , v056
	.um8	W05
	.um8		        As2 
	.um8	W06
	.um8		N56   , Gs2 , v060, gtp3
	.um8	W48
	.um8	W01
// 073   ----------------------------------------
	.um8	W11
	.um8		N11   , As2 , v068
	.um8	W11
	.um8		N12   , As2 , v060
	.um8	W13
	.um8		        Cn3 
	.um8	W12
	.um8		N11   , Cs3 
	.um8	W12
	.um8		N12   , As2 , v068
	.um8	W12
	.um8		N36   , Gs2 , v072
	.um8	W24
	.um8	W01
// 074   ----------------------------------------
	.um8	W12
	.um8		N13   , Ds3 , v060
	.um8	W13
	.um8		N11   , Fn3 , v072
	.um8	W12
	.um8		N22   , Fn3 , v080
	.um8	W23
	.um8		N32   , Ds3 , v072, gtp3
	.um8	W36
// 075   ----------------------------------------
	.um8		N56   , Cs3 , v068, gtp2
	.um8	W56
	.um8	W03
	.um8		N12   , Ds3 
	.um8	W12
	.um8		        Fn3 , v072
	.um8	W12
	.um8		        Cs3 , v060
	.um8	W12
	.um8		        Ds3 
	.um8	W01
// 076   ----------------------------------------
	.um8	W12
	.um8		N10   , Ds3 , v072
	.um8	W11
	.um8		N12   
	.um8	W12
	.um8		N11   , Fn3 , v068
	.um8	W12
	.um8		        Ds3 
	.um8	W11
	.um8		N13   , Gs2 , v060
	.um8	W14
	.um8		N68   , Gs2 , v080, gtp3
	.um8	W24
// 077   ----------------------------------------
	.um8	W48
	.um8		N11   , As2 , v072
	.um8	W11
	.um8		N12   , Cn3 , v064
	.um8	W12
	.um8		        Cs3 , v068
	.um8	W12
	.um8		N24   , As2 , v080
	.um8	W13
// 078   ----------------------------------------
	.um8	PATT
	 .um32	mus_littleroot_4_042
// 079   ----------------------------------------
	.um8	PATT
	 .um32	mus_littleroot_4_023
// 080   ----------------------------------------
	.um8	PATT
	 .um32	mus_littleroot_4_024
// 081   ----------------------------------------
	.um8	PATT
	 .um32	mus_littleroot_4_025
// 082   ----------------------------------------
	.um8	PATT
	 .um32	mus_littleroot_4_026
// 083   ----------------------------------------
	.um8	PATT
	 .um32	mus_littleroot_4_027
// 084   ----------------------------------------
	.um8	PATT
	 .um32	mus_littleroot_4_028
// 085   ----------------------------------------
	.um8	PATT
	 .um32	mus_littleroot_4_029
// 086   ----------------------------------------
	.um8	PATT
	 .um32	mus_littleroot_4_050
// 087   ----------------------------------------
	.um8	PATT
	 .um32	mus_littleroot_4_023
// 088   ----------------------------------------
	.um8	PATT
	 .um32	mus_littleroot_4_024
// 089   ----------------------------------------
	.um8	PATT
	 .um32	mus_littleroot_4_025
// 090   ----------------------------------------
	.um8	PATT
	 .um32	mus_littleroot_4_026
// 091   ----------------------------------------
	.um8	PATT
	 .um32	mus_littleroot_4_027
// 092   ----------------------------------------
	.um8	PATT
	 .um32	mus_littleroot_4_028
// 093   ----------------------------------------
	.um8	PATT
	 .um32	mus_littleroot_4_029
// 094   ----------------------------------------
	.um8	PATT
	 .um32	mus_littleroot_4_050
// 095   ----------------------------------------
	.um8	PATT
	 .um32	mus_littleroot_4_023
// 096   ----------------------------------------
	.um8		N17   , Cn3 , v044
	.um8		N17   , Ds3 , v072
	.um8		N17   , Gs3 , v064
	.um8		N17   , Cn4 
	.um8	W18
	.um8		        Cn3 , v032
	.um8		N17   , Ds3 , v064
	.um8		N17   , Gs3 , v056
	.um8		N17   , Cn4 
	.um8	W18
	.um8		        Cs3 , v060
	.um8		N32   , Fn3 , v068, gtp3
	.um8		N32   , As3 , v064, gtp3
	.um8	W18
	.um8		N06   , Cn3 , v040
	.um8	W06
	.um8		N12   , As2 , v048
	.um8	W12
	.um8		N07   , Gs2 , v052
	.um8	W07
	.um8		        As2 , v040
	.um8	W07
	.um8		N05   , Cn3 
	.um8	W05
	.um8		N06   , As2 , v044
	.um8	W05
// 097   ----------------------------------------
	.um8	W01
	.um8		N21   , Cs3 , v048
	.um8	W22
	.um8		N12   , Ds3 , v036
	.um8	W13
	.um8		N11   , Cn3 , v044
	.um8	W12
	.um8		N12   , As2 , v032
	.um8	W12
	.um8		N23   , Gs2 
	.um8	W24
	.um8		N12   , Gs2 , v028
	.um8		N11   , Cn3 
	.um8		N11   , Ds3 , v024
	.um8		N11   , Cn4 , v032
	.um8	W12
// 098   ----------------------------------------
	.um8		N23   , Cn3 , v036
	.um8		N23   , Ds3 , v032
	.um8		N23   , Cn4 , v036
	.um8	W24
	.um8		N44   , Cs3 , v028, gtp3
	.um8		N44   , Fn3 , v032, gtp3
	.um8		N44   , Gs3 , v032, gtp3
	.um8		N44   , Cs4 , v020, gtp3
	.um8	W48
	.um8		N06   , Gs2 
	.um8	W06
	.um8		        As2 , v012
	.um8	W06
	.um8		        Cs3 
	.um8	W06
	.um8		        As2 
	.um8	W06
// 099   ----------------------------------------
	.um8		N17   , Cs3 , v008
	.um8		N17   , Fn3 , v024
	.um8		N17   , Gs3 , v016
	.um8		N17   , Cs4 
	.um8	W18
	.um8		        Cs3 , v004
	.um8		N17   , Fn3 , v020
	.um8		N17   , Gs3 , v012
	.um8		N17   , Cs4 
	.um8	W18
	.um8		N32   , Cn3 , v008, gtp3
	.um8		N32   , Ds3 , v012, gtp3
	.um8		N32   , Gs3 , v012, gtp3
	.um8		N32   , Cn4 , v012, gtp3
	.um8	W36
	.um8		N06   , Gs2 , v004
	.um8	W06
	.um8		        As2 
	.um8	W06
	.um8		        Cn3 
	.um8	W06
	.um8		        As2 
	.um8	W06
// 100   ----------------------------------------
	.um8		N23   , Cn3 
	.um8		N23   , Ds3 
	.um8		N23   , Gs3 
	.um8		N23   , Cn4 
	.um8	W24
	.um8		N12   , Cn3 
	.um8		N12   , Ds3 
	.um8		N12   , Cn4 
	.um8	W12
	.um8		        Cs3 
	.um8		N12   , Fn3 
	.um8		N12   , Cs4 
	.um8	W12
	.um8		N06   , Cn3 
	.um8		N06   , Ds3 
	.um8		N06   , Cn4 
	.um8	W06
	.um8		N17   , As2 
	.um8		N17   , Cs3 
	.um8		N17   , As3 
	.um8	W18
	.um8		N06   , Gs2 
	.um8	W06
	.um8		        As2 
	.um8	W06
	.um8		        Cn3 
	.um8	W06
	.um8		N07   , As2 
	.um8	W06
// 101   ----------------------------------------
	.um8	W01
	.um8		N23   , Cs3 
	.um8	W24
	.um8		N11   , Ds3 
	.um8	W12
	.um8		N20   , Cn3 
	.um8	W20
	.um8		N06   , As2 
	.um8	W07
	.um8		N20   , Gs2 
	.um8	W20
	.um8		N04   
	.um8	W04
	.um8	FINE

//**************** Track 5 (Midi-Chn.6) Synth Drum****************//

mus_littleroot_5:
	.um8	KEYSH , mus_littleroot_key+0
// 000   ----------------------------------------
	.um8	W96
// 001   ----------------------------------------
	.um8	W30
	.um8		VOICE , 0
	.um8	W01
	.um8		VOL   , 95*mus_littleroot_mvl/mxv
	.um8		PAN   , c_v-54
	.um8	W64
	.um8	W01
// 002   ----------------------------------------
	.um8	W30
	.um8		MOD   , 0
	.um8		BEND  , c_v+0
	.um8		N03   , Cn4 , v108
	.um8	W24
	.um8		        An3 , v120
	.um8	W06
	.um8		        An3 , v116
	.um8	W18
	.um8		N02   , Dn3 , v120
	.um8	W06
	.um8		        Dn3 , v124
	.um8	W06
	.um8		N03   , Bn2 , v127
	.um8	W06
// 003   ----------------------------------------
	.um8		N02   , Bn2 , v124
	.um8	W96
// 004   ----------------------------------------
	.um8	W96
// 005   ----------------------------------------
	.um8	W96
// 006   ----------------------------------------
	.um8	W96
// 007   ----------------------------------------
	.um8	W96
// 008   ----------------------------------------
	.um8	W96
// 009   ----------------------------------------
	.um8	W96
// 010   ----------------------------------------
	.um8	W66
	.um8		N03   
	.um8	W30
// 011   ----------------------------------------
	.um8	W96
// 012   ----------------------------------------
	.um8	W96
// 013   ----------------------------------------
	.um8	W96
// 014   ----------------------------------------
	.um8	W96
// 015   ----------------------------------------
	.um8	W96
// 016   ----------------------------------------
	.um8	W96
// 017   ----------------------------------------
	.um8	W96
// 018   ----------------------------------------
	.um8	W48
	.um8		        Gn3 
	.um8	W06
	.um8		N04   
	.um8	W12
	.um8		N05   , Bn2 , v127
	.um8	W30
// 019   ----------------------------------------
	.um8	W96
// 020   ----------------------------------------
	.um8	W96
// 021   ----------------------------------------
	.um8	W96
// 022   ----------------------------------------
	.um8	W36
	.um8		N03   , Fn3 
	.um8	W18
	.um8		        Fn3 , v108
	.um8	W06
	.um8		N04   , Fn3 , v127
	.um8	W18
	.um8		N03   , Dn3 , v120
	.um8	W06
	.um8		N03   
	.um8	W06
	.um8		        Bn2 , v127
	.um8	W06
// 023   ----------------------------------------
	.um8	W96
// 024   ----------------------------------------
	.um8	W96
// 025   ----------------------------------------
	.um8	W96
// 026   ----------------------------------------
	.um8	W96
// 027   ----------------------------------------
	.um8	W96
// 028   ----------------------------------------
	.um8	W96
// 029   ----------------------------------------
	.um8	W96
// 030   ----------------------------------------
	.um8	W48
	.um8		N02   , Fn3 , v124
	.um8	W06
	.um8		N03   , Fn3 , v127
	.um8	W42
// 031   ----------------------------------------
	.um8	W96
// 032   ----------------------------------------
	.um8	W96
// 033   ----------------------------------------
	.um8	W96
// 034   ----------------------------------------
	.um8	W96
// 035   ----------------------------------------
	.um8	W96
// 036   ----------------------------------------
	.um8	W96
// 037   ----------------------------------------
	.um8	W96
// 038   ----------------------------------------
	.um8	W48
	.um8		        An3 
	.um8	W06
	.um8		N04   
	.um8	W12
	.um8		N02   , Fn3 , v116
	.um8	W06
	.um8		N03   , Fn3 , v124
	.um8	W06
	.um8		N04   , Dn3 , v120
	.um8	W18
// 039   ----------------------------------------
	.um8	W96
// 040   ----------------------------------------
	.um8	W96
// 041   ----------------------------------------
	.um8	W96
// 042   ----------------------------------------
	.um8	W48
	.um8		N05   , Cn4 
	.um8	W24
	.um8		N06   , En3 
	.um8	W24
// 043   ----------------------------------------
	.um8	W96
// 044   ----------------------------------------
	.um8	W96
// 045   ----------------------------------------
	.um8	W96
// 046   ----------------------------------------
	.um8	W48
	.um8		N05   , Bn3 , v124
	.um8	W18
	.um8		N07   , En3 , v120
	.um8	W30
// 047   ----------------------------------------
	.um8	W96
// 048   ----------------------------------------
	.um8	W96
// 049   ----------------------------------------
	.um8	W96
// 050   ----------------------------------------
	.um8	W36
	.um8		N02   , Fn3 , v116
	.um8	W06
	.um8		N03   , Fn3 , v124
	.um8	W30
	.um8		N02   
	.um8	W06
	.um8		N04   , Fn3 , v120
	.um8	W18
// 051   ----------------------------------------
	.um8		N03   , Bn2 , v127
	.um8	W96
// 052   ----------------------------------------
	.um8	W96
// 053   ----------------------------------------
	.um8	W96
// 054   ----------------------------------------
	.um8	W66
	.um8		        Dn3 , v124
	.um8	W30
// 055   ----------------------------------------
	.um8	W96
// 056   ----------------------------------------
	.um8	W96
// 057   ----------------------------------------
	.um8	W96
// 058   ----------------------------------------
	.um8	W36
	.um8		N02   , An3 , v108
	.um8	W06
	.um8		N04   , An3 , v120
	.um8	W24
	.um8		        Fn3 , v127
	.um8	W18
	.um8		        Dn3 
	.um8	W12
// 059   ----------------------------------------
	.um8	W96
// 060   ----------------------------------------
	.um8	W96
// 061   ----------------------------------------
	.um8	W96
// 062   ----------------------------------------
	.um8	W96
// 063   ----------------------------------------
	.um8	W96
// 064   ----------------------------------------
	.um8	W96
// 065   ----------------------------------------
	.um8	W96
// 066   ----------------------------------------
	.um8	W06
	.um8		N05   , An3 , v124
	.um8	W18
	.um8		N04   , En3 
	.um8	W30
	.um8		N03   , Cn3 , v120
	.um8	W24
	.um8		N05   , Gn2 , v124
	.um8	W18
// 067   ----------------------------------------
	.um8	W96
// 068   ----------------------------------------
	.um8	W96
// 069   ----------------------------------------
	.um8	W96
// 070   ----------------------------------------
	.um8	W96
// 071   ----------------------------------------
	.um8	W96
// 072   ----------------------------------------
	.um8	W96
// 073   ----------------------------------------
	.um8	W96
// 074   ----------------------------------------
	.um8	W66
	.um8		N03   , Gn3 , v108
	.um8	W30
// 075   ----------------------------------------
	.um8	W96
// 076   ----------------------------------------
	.um8	W96
// 077   ----------------------------------------
	.um8	W96
// 078   ----------------------------------------
	.um8	W36
	.um8		        Cn4 , v124
	.um8	W30
	.um8		N02   , Fn3 , v120
	.um8	W06
	.um8		N03   , Fn3 , v116
	.um8	W24
// 079   ----------------------------------------
	.um8	W96
// 080   ----------------------------------------
	.um8	W96
// 081   ----------------------------------------
	.um8	W96
// 082   ----------------------------------------
	.um8	W48
	.um8		N05   , An3 , v127
	.um8	W18
	.um8		N03   , Bn2 
	.um8	W30
// 083   ----------------------------------------
	.um8	W96
// 084   ----------------------------------------
	.um8	W96
// 085   ----------------------------------------
	.um8	W96
// 086   ----------------------------------------
	.um8	W12
	.um8		        Dn3 , v124
	.um8	W24
	.um8		        Fn3 
	.um8	W30
	.um8		        Bn2 , v108
	.um8	W06
	.um8		        Bn2 , v127
	.um8	W24
// 087   ----------------------------------------
	.um8	W96
// 088   ----------------------------------------
	.um8	W96
// 089   ----------------------------------------
	.um8	W96
// 090   ----------------------------------------
	.um8	W66
	.um8		N03   
	.um8	W30
// 091   ----------------------------------------
	.um8	W96
// 092   ----------------------------------------
	.um8	W96
// 093   ----------------------------------------
	.um8	W96
// 094   ----------------------------------------
	.um8	W36
	.um8		N04   , An3 , v120
	.um8	W24
	.um8		N02   , Bn2 , v108
	.um8	W06
	.um8		N03   , Bn2 , v124
	.um8	W30
// 095   ----------------------------------------
	.um8	W96
// 096   ----------------------------------------
	.um8	W96
// 097   ----------------------------------------
	.um8	W96
// 098   ----------------------------------------
	.um8	W66
	.um8		        Bn2 , v068
	.um8	W03
	.um8	FINE

//**************** Track 6 (Midi-Chn.7) Synth Drum****************//

mus_littleroot_6:
	.um8	KEYSH , mus_littleroot_key+0
// 000   ----------------------------------------
	.um8	W96
// 001   ----------------------------------------
	.um8	W32
	.um8		VOICE , 0
	.um8		VOL   , 95*mus_littleroot_mvl/mxv
	.um8		PAN   , c_v+54
	.um8	W64
// 002   ----------------------------------------
	.um8	W36
	.um8		MOD   , 0
	.um8		BEND  , c_v+0
	.um8		N03   , Cn4 , v124
	.um8	W30
	.um8		N02   , Fn3 , v120
	.um8	W06
	.um8		N03   , Fn3 , v116
	.um8	W24
// 003   ----------------------------------------
	.um8	W96
// 004   ----------------------------------------
	.um8	W96
// 005   ----------------------------------------
	.um8	W96
// 006   ----------------------------------------
	.um8	W96
// 007   ----------------------------------------
	.um8	W96
// 008   ----------------------------------------
	.um8	W96
// 009   ----------------------------------------
	.um8	W96
// 010   ----------------------------------------
	.um8	W48
	.um8		        Gn3 , v124
	.um8	W06
	.um8		N03   
	.um8	W42
// 011   ----------------------------------------
	.um8	W96
// 012   ----------------------------------------
	.um8	W96
// 013   ----------------------------------------
	.um8	W96
// 014   ----------------------------------------
	.um8	W96
// 015   ----------------------------------------
	.um8	W96
// 016   ----------------------------------------
	.um8	W96
// 017   ----------------------------------------
	.um8	W96
// 018   ----------------------------------------
	.um8	W96
// 019   ----------------------------------------
	.um8	W96
// 020   ----------------------------------------
	.um8	W96
// 021   ----------------------------------------
	.um8	W96
// 022   ----------------------------------------
	.um8	W42
	.um8		        Cn4 , v116
	.um8	W06
	.um8		N04   , Cn4 , v120
	.um8	W18
	.um8		N02   , En3 , v108
	.um8	W06
	.um8		N03   , En3 , v120
	.um8	W24
// 023   ----------------------------------------
	.um8	W96
// 024   ----------------------------------------
	.um8	W96
// 025   ----------------------------------------
	.um8	W96
// 026   ----------------------------------------
	.um8	W96
// 027   ----------------------------------------
	.um8	W96
// 028   ----------------------------------------
	.um8	W96
// 029   ----------------------------------------
	.um8	W96
// 030   ----------------------------------------
	.um8	W66
	.um8		        Bn2 , v127
	.um8	W30
// 031   ----------------------------------------
	.um8	W96
// 032   ----------------------------------------
	.um8	W96
// 033   ----------------------------------------
	.um8	W96
// 034   ----------------------------------------
	.um8	W96
// 035   ----------------------------------------
	.um8	W96
// 036   ----------------------------------------
	.um8	W96
// 037   ----------------------------------------
	.um8	W96
// 038   ----------------------------------------
	.um8	W60
	.um8		N02   , Gn3 
	.um8	W36
// 039   ----------------------------------------
	.um8	W96
// 040   ----------------------------------------
	.um8	W96
// 041   ----------------------------------------
	.um8	W96
// 042   ----------------------------------------
	.um8	W60
	.um8		N04   , Gn3 , v120
	.um8	W18
	.um8		        Bn2 
	.um8	W18
// 043   ----------------------------------------
	.um8	W96
// 044   ----------------------------------------
	.um8	W96
// 045   ----------------------------------------
	.um8	W96
// 046   ----------------------------------------
	.um8	W54
	.um8		N03   , Gn3 , v124
	.um8	W42
// 047   ----------------------------------------
	.um8	W96
// 048   ----------------------------------------
	.um8	W96
// 049   ----------------------------------------
	.um8	W96
// 050   ----------------------------------------
	.um8	W54
	.um8		N02   , An3 , v120
	.um8	W30
	.um8		N03   , Dn3 
	.um8	W12
// 051   ----------------------------------------
	.um8	W96
// 052   ----------------------------------------
	.um8	W96
// 053   ----------------------------------------
	.um8	W96
// 054   ----------------------------------------
	.um8	W48
	.um8		        Gn3 , v124
	.um8	W06
	.um8		N02   , Gn3 , v120
	.um8	W42
// 055   ----------------------------------------
	.um8	W96
// 056   ----------------------------------------
	.um8	W96
// 057   ----------------------------------------
	.um8	W96
// 058   ----------------------------------------
	.um8	W54
	.um8		        Fn3 
	.um8	W42
// 059   ----------------------------------------
	.um8	W96
// 060   ----------------------------------------
	.um8	W96
// 061   ----------------------------------------
	.um8	W96
// 062   ----------------------------------------
	.um8	W96
// 063   ----------------------------------------
	.um8	W96
// 064   ----------------------------------------
	.um8	W96
// 065   ----------------------------------------
	.um8	W84
	.um8		N05   , Bn3 
	.um8	W12
// 066   ----------------------------------------
	.um8	W42
	.um8		N03   , Dn3 
	.um8	W24
	.um8		        Bn2 , v124
	.um8	W06
	.um8		N03   
	.um8	W24
// 067   ----------------------------------------
	.um8	W96
// 068   ----------------------------------------
	.um8	W96
// 069   ----------------------------------------
	.um8	W96
// 070   ----------------------------------------
	.um8	W96
// 071   ----------------------------------------
	.um8	W96
// 072   ----------------------------------------
	.um8	W96
// 073   ----------------------------------------
	.um8	W96
// 074   ----------------------------------------
	.um8	W54
	.um8		        Bn3 
	.um8	W24
	.um8		N02   , Dn3 , v116
	.um8	W06
	.um8		N03   , Dn3 , v127
	.um8	W12
// 075   ----------------------------------------
	.um8	W96
// 076   ----------------------------------------
	.um8	W96
// 077   ----------------------------------------
	.um8	W96
// 078   ----------------------------------------
	.um8	W30
	.um8		        Cn4 , v108
	.um8	W24
	.um8		        An3 , v120
	.um8	W06
	.um8		        An3 , v116
	.um8	W18
	.um8		N02   , Dn3 , v120
	.um8	W06
	.um8		        Dn3 , v124
	.um8	W06
	.um8		N03   , Bn2 , v127
	.um8	W06
// 079   ----------------------------------------
	.um8	W96
// 080   ----------------------------------------
	.um8	W96
// 081   ----------------------------------------
	.um8	W96
// 082   ----------------------------------------
	.um8	W54
	.um8		        An3 
	.um8	W42
// 083   ----------------------------------------
	.um8	W96
// 084   ----------------------------------------
	.um8	W96
// 085   ----------------------------------------
	.um8	W96
// 086   ----------------------------------------
	.um8	W96
// 087   ----------------------------------------
	.um8	W96
// 088   ----------------------------------------
	.um8	W96
// 089   ----------------------------------------
	.um8	W96
// 090   ----------------------------------------
	.um8	W48
	.um8		        Fn3 , v124
	.um8	W06
	.um8		        Fn3 , v120
	.um8	W42
// 091   ----------------------------------------
	.um8	W96
// 092   ----------------------------------------
	.um8	W96
// 093   ----------------------------------------
	.um8	W96
// 094   ----------------------------------------
	.um8	W96
// 095   ----------------------------------------
	.um8	W96
// 096   ----------------------------------------
	.um8	W96
// 097   ----------------------------------------
	.um8	W96
// 098   ----------------------------------------
	.um8	W48
	.um8		        An3 , v068
	.um8	W06
	.um8		N04   , An3 , v064
	.um8	W04
	.um8	FINE

//**************** Track 7 (Midi-Chn.8) Lead 2 sawtooth****************//

mus_littleroot_7:
	.um8	KEYSH , mus_littleroot_key+0
// 000   ----------------------------------------
	.um8	W96
// 001   ----------------------------------------
	.um8	W32
	.um8	W01
	.um8		VOICE , 73
	.um8		VOL   , 70*mus_littleroot_mvl/mxv
	.um8		PAN   , c_v+0
	.um8	W60
	.um8	W03
// 002   ----------------------------------------
	.um8	W96
// 003   ----------------------------------------
	.um8	W96
// 004   ----------------------------------------
	.um8	W96
// 005   ----------------------------------------
	.um8	W96
// 006   ----------------------------------------
	.um8	W96
// 007   ----------------------------------------
	.um8	W96
// 008   ----------------------------------------
	.um8	W96
// 009   ----------------------------------------
	.um8	W96
// 010   ----------------------------------------
	.um8	W96
// 011   ----------------------------------------
	.um8	W96
// 012   ----------------------------------------
	.um8	W96
// 013   ----------------------------------------
	.um8	W96
// 014   ----------------------------------------
	.um8		MOD   , 0
	.um8		BEND  , c_v+0
	.um8		N28   , Fs2 , v096
	.um8		N28   , As2 , v096, gtp1
	.um8		N24   , Cs3 , v088, gtp2
	.um8		N24   , Fn3 , v104, gtp2
	.um8	W36
	.um8	W01
	.um8		N52   , Fn2 , v104, gtp1
	.um8		N52   , Gs2 
	.um8		N52   , Cn3 , v108
	.um8		N52   , Ds3 , v104
	.um8	W56
	.um8	W03
// 015   ----------------------------------------
	.um8	W96
// 016   ----------------------------------------
	.um8	W96
// 017   ----------------------------------------
	.um8	W96
// 018   ----------------------------------------
	.um8	W01
	.um8		N24   , Fs2 , v096, gtp2
	.um8		N24   , As2 , v096, gtp1
	.um8		N24   , Cs3 , v084, gtp1
	.um8		N24   , Fn3 , v108, gtp1
	.um8	W32
	.um8	W01
	.um8		N48   , Fn2 , v104, gtp1
	.um8		N48   , Gs2 , v104, gtp1
	.um8		N48   , Cn3 , v092, gtp1
	.um8		N48   , Ds3 , v088, gtp1
	.um8	W60
	.um8	W02
// 019   ----------------------------------------
	.um8		N90   , Cs3 , v096
	.um8		N90   , Fs3 , v096, gtp1
	.um8		N90   , As3 , v096, gtp1
	.um8	W96
// 020   ----------------------------------------
	.um8		N84   , Cn3 , v096, gtp1
	.um8		N84   , Ds3 , v096, gtp3
	.um8		N88   , Gs3 
	.um8	W92
	.um8	W03
	.um8		N84   , Cs3 , v096, gtp1
	.um8		N84   , As3 , v096, gtp2
	.um8	W01
// 021   ----------------------------------------
	.um8		        Fs3 , v104, gtp2
	.um8	W22
	.um8		MOD   , 4
	.um8		        5
	.um8	W01
	.um8		        6
	.um8	W01
	.um8		        8
	.um8	W01
	.um8		        11
	.um8	W01
	.um8		        13
	.um8	W01
	.um8		        16
	.um8	W01
	.um8		        19
	.um8	W01
	.um8		        21
	.um8		        24
	.um8	W01
	.um8		        27
	.um8	W01
	.um8		        30
	.um8	W01
	.um8		        33
	.um8	W01
	.um8		        35
	.um8	W01
	.um8		        38
	.um8	W01
	.um8		        42
	.um8		        44
	.um8	W01
	.um8		        47
	.um8	W01
	.um8		        49
	.um8	W01
	.um8		        52
	.um8	W01
	.um8		        55
	.um8	W01
	.um8		        57
	.um8	W01
	.um8		        60
	.um8	W01
	.um8		        62
	.um8		        65
	.um8	W01
	.um8		        67
	.um8	W01
	.um8		        70
	.um8	W01
	.um8		        73
	.um8	W01
	.um8		        75
	.um8	W01
	.um8		        77
	.um8	W01
	.um8		        80
	.um8	W01
	.um8		        82
	.um8		        84
	.um8	W01
	.um8		        86
	.um8	W01
	.um8		        89
	.um8	W01
	.um8		        90
	.um8	W01
	.um8		        92
	.um8	W01
	.um8		        94
	.um8	W01
	.um8		        96
	.um8	W01
	.um8		        97
	.um8		        99
	.um8	W01
	.um8		        101
	.um8	W01
	.um8		        103
	.um8	W01
	.um8		        105
	.um8	W01
	.um8		        107
	.um8	W01
	.um8		        110
	.um8	W01
	.um8		        112
	.um8		        114
	.um8	W01
	.um8		        116
	.um8	W01
	.um8		        119
	.um8	W01
	.um8		        121
	.um8	W01
	.um8		        125
	.um8	W01
	.um8		        127
	.um8	W13
	.um8		        120
	.um8	W01
	.um8		        114
	.um8	W01
	.um8		        107
	.um8		        99
	.um8	W01
	.um8		        89
	.um8	W01
	.um8		        75
	.um8	W01
	.um8		        58
	.um8	W01
	.um8		        40
	.um8	W01
	.um8		        25
	.um8	W01
	.um8		        8
	.um8	W01
	.um8		        3
	.um8	W06
	.um8		N04   , Cs3 , v108
	.um8		N05   , Fs3 
	.um8		N05   , As3 
	.um8	W01
// 022   ----------------------------------------
	.um8	W17
	.um8		N06   , Cs3 
	.um8		N06   , Fs3 , v116
	.um8		N07   , As3 , v108
	.um8	W19
	.um8		N09   , Ds3 , v104
	.um8		N09   , Gs3 
	.um8		N09   , Cn4 , v112
	.um8	W60
// 023   ----------------------------------------
	.um8	W96
// 024   ----------------------------------------
	.um8	W96
// 025   ----------------------------------------
	.um8	W96
// 026   ----------------------------------------
	.um8	W96
// 027   ----------------------------------------
	.um8	W96
// 028   ----------------------------------------
	.um8	W96
// 029   ----------------------------------------
	.um8	W96
// 030   ----------------------------------------
	.um8	W96
// 031   ----------------------------------------
	.um8	W96
// 032   ----------------------------------------
	.um8	W96
// 033   ----------------------------------------
	.um8	W96
// 034   ----------------------------------------
	.um8		N30   , Fs2 , v084
	.um8		N30   , As2 
	.um8		N28   , Cs3 
	.um8		N28   , Fn3 , v104, gtp1
	.um8	W36
	.um8	W02
	.um8		N48   , Fn2 , v096, gtp1
	.um8		N48   , Gs2 , v104, gtp1
	.um8		N48   , Cn3 , v092, gtp1
	.um8		N48   , Ds3 , v096, gtp1
	.um8	W56
	.um8	W02
// 035   ----------------------------------------
	.um8	W96
// 036   ----------------------------------------
	.um8	W96
// 037   ----------------------------------------
	.um8	W96
// 038   ----------------------------------------
	.um8	W01
	.um8		N24   , Fs2 , v088, gtp1
	.um8		N24   , As2 , v096
	.um8		N23   , Cs3 , v088
	.um8		N23   , Fn3 , v096
	.um8	W32
	.um8	W02
	.um8		N44   , Fn2 , v096, gtp1
	.um8		N44   , Gs2 , v096, gtp3
	.um8		N44   , Cn3 , v096, gtp3
	.um8		N48   , Ds3 
	.um8	W60
	.um8		N88   , Cs3 , v104
	.um8		N90   , As3 
	.um8	W01
// 039   ----------------------------------------
	.um8		N88   , Fs3 , v096, gtp1
	.um8	W92
	.um8	W02
	.um8		        Gs3 , v104, gtp1
	.um8	W01
	.um8		N84   , Cn3 , v104, gtp2
	.um8		N88   , Ds3 , v096
	.um8	W01
// 040   ----------------------------------------
	.um8	W92
	.um8	W03
	.um8		N80   , Cs3 , v088, gtp2
	.um8		N84   , Fs3 , v104
	.um8		N84   , As3 , v104, gtp1
	.um8	W01
// 041   ----------------------------------------
	.um8	W16
	.um8		MOD   , 4
	.um8	W01
	.um8		        5
	.um8	W01
	.um8		        7
	.um8	W01
	.um8		        9
	.um8		        13
	.um8	W01
	.um8		        16
	.um8	W01
	.um8		        20
	.um8	W01
	.um8		        24
	.um8	W01
	.um8		        27
	.um8	W01
	.um8		        30
	.um8	W01
	.um8		        33
	.um8	W01
	.um8		        36
	.um8	W01
	.um8		        38
	.um8		        40
	.um8	W01
	.um8		        42
	.um8	W01
	.um8		        45
	.um8	W01
	.um8		        47
	.um8	W01
	.um8		        50
	.um8	W01
	.um8		        53
	.um8	W01
	.um8		        55
	.um8		        58
	.um8	W01
	.um8		        60
	.um8	W01
	.um8		        63
	.um8	W01
	.um8		        65
	.um8	W01
	.um8		        67
	.um8	W01
	.um8		        68
	.um8	W01
	.um8		        70
	.um8	W01
	.um8		        72
	.um8		        74
	.um8	W01
	.um8		        75
	.um8	W01
	.um8		        76
	.um8	W01
	.um8		        78
	.um8	W01
	.um8		        79
	.um8	W01
	.um8		        80
	.um8	W01
	.um8		        82
	.um8		        84
	.um8	W01
	.um8		        85
	.um8	W01
	.um8		        87
	.um8	W01
	.um8		        89
	.um8	W01
	.um8		        90
	.um8	W01
	.um8		        92
	.um8	W01
	.um8		        95
	.um8	W01
	.um8		        97
	.um8		        100
	.um8	W01
	.um8		        103
	.um8	W01
	.um8		        106
	.um8	W01
	.um8		        108
	.um8	W01
	.um8		        111
	.um8	W01
	.um8		        115
	.um8	W01
	.um8		        118
	.um8	W01
	.um8		        120
	.um8		        125
	.um8	W01
	.um8		        127
	.um8	W16
	.um8		        124
	.um8	W01
	.um8		        118
	.um8	W01
	.um8		        112
	.um8		        106
	.um8	W01
	.um8		        99
	.um8	W01
	.um8		        91
	.um8	W01
	.um8		        83
	.um8	W01
	.um8		        73
	.um8	W01
	.um8		        60
	.um8	W01
	.um8		        46
	.um8	W01
	.um8		        31
	.um8	W01
	.um8		        16
	.um8	W01
	.um8		        4
	.um8		        3
	.um8	W07
	.um8		N07   , As3 , v108
	.um8	W01
// 042   ----------------------------------------
	.um8		        Cs3 , v104
	.um8		N07   , Fs3 
	.um8	W18
	.um8		N06   , Cs3 , v096
	.um8		N08   , Fs3 , v108
	.um8		N08   , As3 , v104
	.um8	W18
	.um8		N10   , Ds3 , v096
	.um8		N11   , Gs3 , v108
	.um8		N11   , Cn4 , v104
	.um8	W60
// 043   ----------------------------------------
	.um8	W96
// 044   ----------------------------------------
	.um8	W96
// 045   ----------------------------------------
	.um8	W96
// 046   ----------------------------------------
	.um8	W96
// 047   ----------------------------------------
	.um8	W96
// 048   ----------------------------------------
	.um8	W96
// 049   ----------------------------------------
	.um8	W96
// 050   ----------------------------------------
	.um8	W96
// 051   ----------------------------------------
	.um8	W96
// 052   ----------------------------------------
	.um8	W96
// 053   ----------------------------------------
	.um8	W96
// 054   ----------------------------------------
	.um8	W96
// 055   ----------------------------------------
	.um8	W96
// 056   ----------------------------------------
	.um8	W96
// 057   ----------------------------------------
	.um8	W96
// 058   ----------------------------------------
	.um8	W96
// 059   ----------------------------------------
	.um8	W96
// 060   ----------------------------------------
	.um8	W96
// 061   ----------------------------------------
	.um8	W96
// 062   ----------------------------------------
	.um8	W96
// 063   ----------------------------------------
	.um8	W96
// 064   ----------------------------------------
	.um8	W96
// 065   ----------------------------------------
	.um8	W96
// 066   ----------------------------------------
	.um8	W96
// 067   ----------------------------------------
	.um8	W96
// 068   ----------------------------------------
	.um8	W96
// 069   ----------------------------------------
	.um8	W96
// 070   ----------------------------------------
	.um8	W01
	.um8		N24   , Fs2 , v088, gtp1
	.um8		N24   , As2 , v096
	.um8		N24   , Cs3 , v088
	.um8		N24   , Fn3 , v108
	.um8	W32
	.um8	W03
	.um8		N44   , Fn2 , v092, gtp1
	.um8		N44   , Gs2 , v088, gtp1
	.um8		N44   , Cn3 , v104, gtp2
	.um8		N44   , Ds3 , v088, gtp2
	.um8	W60
// 071   ----------------------------------------
	.um8	W96
// 072   ----------------------------------------
	.um8	W96
// 073   ----------------------------------------
	.um8	W96
// 074   ----------------------------------------
	.um8		N24   , Fs2 , v088, gtp1
	.um8		N24   , As2 , v104
	.um8		N24   , Cs3 , v088
	.um8		N24   , Fn3 , v104
	.um8	W36
	.um8		N44   , Fn2 , v092, gtp3
	.um8		N44   , Gs2 , v096, gtp3
	.um8		N44   , Cn3 , v104, gtp3
	.um8		N48   , Ds3 , v096
	.um8	W60
// 075   ----------------------------------------
	.um8		N84   , Cs3 , v076, gtp2
	.um8		N84   , Fs3 , v076, gtp2
	.um8		N84   , As3 , v096, gtp2
	.um8	W44
	.um8	W02
	.um8		MOD   , 4
	.um8	W02
	.um8		        5
	.um8	W01
	.um8		        6
	.um8	W01
	.um8		        7
	.um8	W01
	.um8		        9
	.um8		        10
	.um8	W01
	.um8		        11
	.um8	W01
	.um8		        13
	.um8	W01
	.um8		        14
	.um8	W01
	.um8		        16
	.um8	W01
	.um8		        19
	.um8	W01
	.um8		        21
	.um8	W01
	.um8		        24
	.um8		        26
	.um8	W01
	.um8		        28
	.um8	W01
	.um8		        31
	.um8	W01
	.um8		        33
	.um8	W01
	.um8		        36
	.um8	W01
	.um8		        39
	.um8	W01
	.um8		        42
	.um8		        45
	.um8	W01
	.um8		        48
	.um8	W01
	.um8		        50
	.um8	W01
	.um8		        53
	.um8	W01
	.um8		        56
	.um8	W01
	.um8		        59
	.um8	W01
	.um8		        62
	.um8	W01
	.um8		        65
	.um8	W01
	.um8		        68
	.um8		        71
	.um8	W01
	.um8		        74
	.um8	W01
	.um8		        76
	.um8	W01
	.um8		        79
	.um8	W01
	.um8		        82
	.um8	W01
	.um8		        85
	.um8	W01
	.um8		        89
	.um8		        93
	.um8	W01
	.um8		        98
	.um8	W01
	.um8		        102
	.um8	W01
	.um8		        107
	.um8	W01
	.um8		        112
	.um8	W01
	.um8		        114
	.um8	W01
	.um8		        115
	.um8	W01
	.um8		        113
	.um8		        106
	.um8	W01
	.um8		        93
	.um8	W01
	.um8		        76
	.um8	W01
	.um8		        56
	.um8	W01
	.um8		        36
	.um8	W01
	.um8		        17
	.um8	W01
	.um8		        4
	.um8	W01
	.um8		        3
	.um8	W03
	.um8		N84   , Cn3 , v096, gtp1
	.um8		N84   , Ds3 , v096, gtp3
	.um8		N84   , Gs3 , v096, gtp3
	.um8	W01
// 076   ----------------------------------------
	.um8	W30
	.um8		MOD   , 5
	.um8	W01
	.um8		        6
	.um8	W01
	.um8		        7
	.um8	W01
	.um8		        9
	.um8	W01
	.um8		        12
	.um8	W01
	.um8		        14
	.um8	W01
	.um8		        16
	.um8		        17
	.um8	W01
	.um8		        19
	.um8	W01
	.um8		        20
	.um8	W01
	.um8		        22
	.um8	W01
	.um8		        23
	.um8	W01
	.um8		        24
	.um8	W01
	.um8		        26
	.um8		        28
	.um8	W01
	.um8		        29
	.um8	W01
	.um8		        31
	.um8	W01
	.um8		        32
	.um8	W01
	.um8		        34
	.um8	W01
	.um8		        35
	.um8	W01
	.um8		        36
	.um8	W01
	.um8		        38
	.um8	W01
	.um8		        39
	.um8		        41
	.um8	W01
	.um8		        42
	.um8	W02
	.um8		        43
	.um8	W01
	.um8		        44
	.um8	W01
	.um8		        45
	.um8	W01
	.um8		        46
	.um8		        47
	.um8	W01
	.um8		        49
	.um8	W01
	.um8		        50
	.um8	W01
	.um8		        52
	.um8	W01
	.um8		        54
	.um8	W01
	.um8		        57
	.um8	W01
	.um8		        59
	.um8	W01
	.um8		        61
	.um8		        64
	.um8	W01
	.um8		        66
	.um8	W01
	.um8		        68
	.um8	W01
	.um8		        71
	.um8	W01
	.um8		        74
	.um8	W01
	.um8		        77
	.um8	W01
	.um8		        80
	.um8		        82
	.um8	W01
	.um8		        85
	.um8	W01
	.um8		        87
	.um8	W01
	.um8		        90
	.um8	W01
	.um8		        93
	.um8	W01
	.um8		        96
	.um8	W01
	.um8		        98
	.um8	W01
	.um8		        99
	.um8		        98
	.um8	W01
	.um8		        95
	.um8	W01
	.um8		        90
	.um8	W01
	.um8		        83
	.um8	W01
	.um8		        76
	.um8	W01
	.um8		        68
	.um8	W01
	.um8		        60
	.um8	W01
	.um8		        52
	.um8		        43
	.um8	W01
	.um8		        33
	.um8	W01
	.um8		        20
	.um8	W01
	.um8		        7
	.um8	W01
	.um8		        3
	.um8	W09
// 077   ----------------------------------------
	.um8		N84   , Cs3 , v108, gtp2
	.um8		N84   , Fs3 , v108, gtp3
	.um8		N84   , As3 , v108, gtp3
	.um8	W24
	.um8	W03
	.um8		MOD   , 4
	.um8	W03
	.um8		        5
	.um8	W01
	.um8		        6
	.um8	W02
	.um8		        8
	.um8		        9
	.um8	W01
	.um8		        10
	.um8	W01
	.um8		        11
	.um8	W01
	.um8		        12
	.um8	W02
	.um8		        13
	.um8	W01
	.um8		        14
	.um8	W01
	.um8		        16
	.um8	W01
	.um8		        17
	.um8		        19
	.um8	W01
	.um8		        20
	.um8	W01
	.um8		        22
	.um8	W01
	.um8		        24
	.um8	W01
	.um8		        26
	.um8	W01
	.um8		        28
	.um8	W01
	.um8		        30
	.um8		        33
	.um8	W01
	.um8		        35
	.um8	W01
	.um8		        37
	.um8	W01
	.um8		        38
	.um8	W01
	.um8		        40
	.um8	W01
	.um8		        42
	.um8	W01
	.um8		        43
	.um8	W01
	.um8		        45
	.um8		        46
	.um8	W01
	.um8		        47
	.um8	W01
	.um8		        49
	.um8	W01
	.um8		        51
	.um8	W01
	.um8		        52
	.um8	W01
	.um8		        54
	.um8	W01
	.um8		        55
	.um8		        56
	.um8	W01
	.um8		        58
	.um8	W01
	.um8		        59
	.um8	W01
	.um8		        61
	.um8	W01
	.um8		        63
	.um8	W01
	.um8		        65
	.um8	W01
	.um8		        67
	.um8	W01
	.um8		        69
	.um8	W01
	.um8		        73
	.um8		        75
	.um8	W01
	.um8		        79
	.um8	W01
	.um8		        83
	.um8	W01
	.um8		        86
	.um8	W01
	.um8		        90
	.um8	W01
	.um8		        94
	.um8	W01
	.um8		        97
	.um8		        100
	.um8	W01
	.um8		        103
	.um8	W01
	.um8		        105
	.um8	W01
	.um8		        107
	.um8	W01
	.um8		        108
	.um8	W03
	.um8		        104
	.um8		        99
	.um8	W01
	.um8		        90
	.um8	W01
	.um8		        79
	.um8	W01
	.um8		        67
	.um8	W01
	.um8		        54
	.um8	W01
	.um8		        41
	.um8	W01
	.um8		        28
	.um8		        13
	.um8	W01
	.um8		        3
	.um8	W07
	.um8		N04   , As3 , v116
	.um8	W01
// 078   ----------------------------------------
	.um8		N03   , Cs3 , v108
	.um8		N03   , Fs3 
	.um8	W18
	.um8		N04   , Cs3 
	.um8		N04   , Fs3 
	.um8		N05   , As3 
	.um8	W17
	.um8		        Ds3 
	.um8		N07   , Gs3 
	.um8		N07   , Cn4 , v116
	.um8	W08
	.um8		MOD   , 0
	.um8	FINE

//**************** Track 8 (Midi-Chn.9) Soprano Sax****************//

mus_littleroot_8:
	.um8	KEYSH , mus_littleroot_key+0
// 000   ----------------------------------------
	.um8	W96
// 001   ----------------------------------------
	.um8	W32
	.um8	W02
	.um8		VOICE , 4
	.um8		VOL   , 80*mus_littleroot_mvl/mxv
	.um8		PAN   , c_v+0
	.um8	W01
	.um8	W60
	.um8	W01
// 002   ----------------------------------------
	.um8	W96
// 003   ----------------------------------------
	.um8	W96
// 004   ----------------------------------------
	.um8	W96
// 005   ----------------------------------------
	.um8	W96
// 006   ----------------------------------------
	.um8	W96
// 007   ----------------------------------------
	.um8		MOD   , 0
	.um8		BEND  , c_v+0
	.um8		N80   , Gs3 , v088, gtp3
	.um8	W80
	.um8	W03
	.um8		N05   , Fn3 , v084
	.um8	W06
	.um8		N06   , Ds3 , v080
	.um8	W06
	.um8		N90   , Fn3 , v088
	.um8	W01
// 008   ----------------------------------------
	.um8	W96
// 009   ----------------------------------------
	.um8	W96
// 010   ----------------------------------------
	.um8	W96
// 011   ----------------------------------------
	.um8	W96
// 012   ----------------------------------------
	.um8	W96
// 013   ----------------------------------------
	.um8	W96
// 014   ----------------------------------------
	.um8	W96
// 015   ----------------------------------------
	.um8	W96
// 016   ----------------------------------------
	.um8	W96
// 017   ----------------------------------------
	.um8	W96
// 018   ----------------------------------------
	.um8	W96
// 019   ----------------------------------------
	.um8	W96
// 020   ----------------------------------------
	.um8	W96
// 021   ----------------------------------------
	.um8	W96
// 022   ----------------------------------------
	.um8	W96
// 023   ----------------------------------------
mus_littleroot_8_023:
	.um8	W01
	.um8		N80   , Gs3 , v104, gtp1
	.um8	W80
	.um8	W02
	.um8		N04   , Fn3 , v096
	.um8	W05
	.um8		N05   , Ds3 , v088
	.um8	W06
	.um8		N92   , Fn3 , v092, gtp3
	.um8	W02
	.um8	PEND
// 024   ----------------------------------------
mus_littleroot_8_024:
	.um8	W92
	.um8	W02
	.um8		N36   , Cs3 , v092
	.um8	W02
	.um8	PEND
// 025   ----------------------------------------
mus_littleroot_8_025:
	.um8	W32
	.um8	W02
	.um8		N56   , Ds3 , v088, gtp3
	.um8	W60
	.um8	W02
	.um8	PEND
// 026   ----------------------------------------
	.um8	W96
// 027   ----------------------------------------
mus_littleroot_8_027:
	.um8	W01
	.um8		N80   , Gs3 , v096, gtp2
	.um8	W80
	.um8	W03
	.um8		N04   , Fn3 , v092
	.um8	W05
	.um8		N07   , Ds3 , v088
	.um8	W07
	.um8	PEND
// 028   ----------------------------------------
mus_littleroot_8_028:
	.um8	W01
	.um8		N92   , Fn3 , v100, gtp2
	.um8	W92
	.um8	W03
	.um8	PEND
// 029   ----------------------------------------
mus_littleroot_8_029:
	.um8	W02
	.um8		N32   , Cs3 , v088
	.um8	W32
	.um8	W01
	.um8		N54   , Ds3 , v092, gtp1
	.um8	W60
	.um8	W01
	.um8	PEND
// 030   ----------------------------------------
	.um8	W96
// 031   ----------------------------------------
	.um8	W96
// 032   ----------------------------------------
	.um8	W96
// 033   ----------------------------------------
	.um8	W96
// 034   ----------------------------------------
	.um8	W96
// 035   ----------------------------------------
	.um8	W96
// 036   ----------------------------------------
	.um8	W96
// 037   ----------------------------------------
	.um8	W96
// 038   ----------------------------------------
	.um8	W96
// 039   ----------------------------------------
	.um8	W96
// 040   ----------------------------------------
	.um8	W96
// 041   ----------------------------------------
	.um8	W96
// 042   ----------------------------------------
	.um8	W96
// 043   ----------------------------------------
	.um8	PATT
	 .um32	mus_littleroot_8_023
// 044   ----------------------------------------
	.um8	PATT
	 .um32	mus_littleroot_8_024
// 045   ----------------------------------------
	.um8	PATT
	 .um32	mus_littleroot_8_025
// 046   ----------------------------------------
	.um8	W96
// 047   ----------------------------------------
	.um8	PATT
	 .um32	mus_littleroot_8_027
// 048   ----------------------------------------
	.um8	PATT
	 .um32	mus_littleroot_8_028
// 049   ----------------------------------------
	.um8	PATT
	 .um32	mus_littleroot_8_029
// 050   ----------------------------------------
	.um8	W96
// 051   ----------------------------------------
	.um8	PATT
	 .um32	mus_littleroot_8_023
// 052   ----------------------------------------
	.um8	PATT
	 .um32	mus_littleroot_8_024
// 053   ----------------------------------------
	.um8	PATT
	 .um32	mus_littleroot_8_025
// 054   ----------------------------------------
	.um8	W96
// 055   ----------------------------------------
	.um8	PATT
	 .um32	mus_littleroot_8_027
// 056   ----------------------------------------
	.um8	PATT
	 .um32	mus_littleroot_8_028
// 057   ----------------------------------------
	.um8	PATT
	 .um32	mus_littleroot_8_029
// 058   ----------------------------------------
	.um8	W72
	.um8	W01
	.um8		N22   , Gs2 , v104
	.um8	W22
	.um8		N80   , Gs3 , v096, gtp3
	.um8	W01
// 059   ----------------------------------------
	.um8	W80
	.um8	W03
	.um8		N05   , Fn3 , v092
	.um8	W06
	.um8		        Ds3 , v080
	.um8	W06
	.um8		N12   , Fn3 
	.um8		N14   , Cs4 , v104
	.um8	W01
// 060   ----------------------------------------
	.um8		N10   , Gs3 , v084
	.um8		N12   , As3 , v096
	.um8	W18
	.um8		N17   , Fn3 , v084
	.um8		N13   , Gs3 
	.um8		N15   , As3 , v092
	.um8		N16   , Cs4 , v104
	.um8	W17
	.um8		N17   , Gs3 , v092
	.um8	W01
	.um8		        Ds3 , v084
	.um8		N14   , Cn4 , v096
	.um8	W32
	.um8	W03
	.um8		N24   , Gs2 , v104, gtp1
	.um8	W24
	.um8	W01
// 061   ----------------------------------------
	.um8		N80   , Gs3 , v096, gtp3
	.um8	W84
	.um8		N05   , Fn3 , v088
	.um8	W06
	.um8		N06   , Ds3 , v076
	.um8	W06
// 062   ----------------------------------------
	.um8		N11   , Fn3 , v084
	.um8		N11   , Gs3 
	.um8		N10   , As3 , v092
	.um8		N11   , Cs4 , v096
	.um8	W18
	.um8		N17   , Fn3 , v092
	.um8		N15   , Gs3 , v084
	.um8		N16   , As3 , v096
	.um8		N17   , Cs4 , v112
	.um8	W18
	.um8		        Ds3 , v072
	.um8		N12   , Gs3 , v092
	.um8		N13   , Cn4 , v096
	.um8	W36
	.um8		N23   , Gs2 
	.um8	W24
// 063   ----------------------------------------
	.um8		N80   , Gs3 , v096, gtp2
	.um8	W80
	.um8	W03
	.um8		N05   , Fn3 , v088
	.um8	W06
	.um8		N06   , Ds3 , v080
	.um8	W06
	.um8		N10   , Fn3 , v084
	.um8		N10   , Cs4 , v104
	.um8	W01
// 064   ----------------------------------------
	.um8		N09   , Gs3 , v084
	.um8		N11   , As3 , v096
	.um8	W18
	.um8		N17   , Fn3 , v084
	.um8		N12   , Gs3 
	.um8		N14   , As3 , v096
	.um8		N17   , Cs4 , v104
	.um8	W18
	.um8		N12   , Ds3 , v072
	.um8		N15   , Gs3 , v092
	.um8		N11   , Cn4 , v112
	.um8	W32
	.um8	W03
	.um8		N24   , Gs2 , v104
	.um8	W24
	.um8		N84   , Gs3 , v096
	.um8	W01
// 065   ----------------------------------------
	.um8	W84
	.um8		N05   , Fn3 , v092
	.um8	W05
	.um8		        Ds3 , v072
	.um8	W06
	.um8		N10   , Fn3 , v080
	.um8		N11   , As3 , v096
	.um8		N13   , Cs4 , v104
	.um8	W01
// 066   ----------------------------------------
	.um8		N09   , Gs3 , v084
	.um8	W18
	.um8		N14   , Fn3 
	.um8		N12   , Gs3 
	.um8		N13   , As3 , v092
	.um8		N17   , Cs4 , v104
	.um8	W17
	.um8		N18   , Ds3 , v072
	.um8		N16   , Gs3 , v080
	.um8	W01
	.um8		N15   , Cn4 , v100
	.um8	W60
// 067   ----------------------------------------
	.um8	W96
// 068   ----------------------------------------
	.um8	W96
// 069   ----------------------------------------
	.um8	W96
// 070   ----------------------------------------
	.um8	W96
// 071   ----------------------------------------
	.um8	W96
// 072   ----------------------------------------
	.um8	W96
// 073   ----------------------------------------
	.um8	W96
// 074   ----------------------------------------
	.um8	W96
// 075   ----------------------------------------
	.um8	W96
// 076   ----------------------------------------
	.um8	W96
// 077   ----------------------------------------
	.um8	W96
// 078   ----------------------------------------
	.um8	W96
// 079   ----------------------------------------
	.um8	W96
// 080   ----------------------------------------
	.um8	W96
// 081   ----------------------------------------
	.um8	W96
// 082   ----------------------------------------
	.um8	W96
// 083   ----------------------------------------
	.um8	W96
// 084   ----------------------------------------
	.um8	W96
// 085   ----------------------------------------
	.um8	W96
// 086   ----------------------------------------
	.um8	W96
// 087   ----------------------------------------
	.um8	PATT
	 .um32	mus_littleroot_8_023
// 088   ----------------------------------------
	.um8	PATT
	 .um32	mus_littleroot_8_024
// 089   ----------------------------------------
	.um8	PATT
	 .um32	mus_littleroot_8_025
// 090   ----------------------------------------
	.um8	W96
// 091   ----------------------------------------
	.um8	PATT
	 .um32	mus_littleroot_8_027
// 092   ----------------------------------------
	.um8	PATT
	 .um32	mus_littleroot_8_028
// 093   ----------------------------------------
	.um8	PATT
	 .um32	mus_littleroot_8_029
// 094   ----------------------------------------
	.um8	W96
// 095   ----------------------------------------
	.um8	W01
	.um8		N80   , Gs3 , v104, gtp1
	.um8	W80
	.um8	W02
	.um8		N04   , Fn3 , v084
	.um8	W05
	.um8		N05   , Ds3 , v080
	.um8	W06
	.um8		N92   , Fn3 , v080, gtp3
	.um8	W02
// 096   ----------------------------------------
	.um8	W92
	.um8	W02
	.um8		N36   , Cs3 , v068
	.um8	W02
// 097   ----------------------------------------
	.um8	W32
	.um8	W02
	.um8		N56   , Ds3 , v060, gtp3
	.um8	W60
	.um8	W02
// 098   ----------------------------------------
	.um8	W96
// 099   ----------------------------------------
	.um8	W01
	.um8		N80   , Gs3 , v044, gtp2
	.um8	W80
	.um8	W03
	.um8		N04   , Fn3 , v032
	.um8	W05
	.um8		N07   , Ds3 , v028
	.um8	W07
// 100   ----------------------------------------
	.um8	W01
	.um8		N92   , Fn3 , v032, gtp2
	.um8	W92
	.um8	W03
// 101   ----------------------------------------
	.um8	W02
	.um8		N32   , Cs3 , v016
	.um8	W32
	.um8	W01
	.um8		N54   , Ds3 , v012, gtp1
	.um8	W54
	.um8	W01
	.um8	FINE

//**************** Track 9 (Midi-Chn.10) Standard Drum Kit****************//

mus_littleroot_9:
	.um8	KEYSH , mus_littleroot_key+0
// 000   ----------------------------------------
	.um8	W96
// 001   ----------------------------------------
	.um8	W36
	.um8		VOL   , 105*mus_littleroot_mvl/mxv
	.um8	W60
// 002   ----------------------------------------
	.um8	W96
// 003   ----------------------------------------
	.um8		MOD   , 0
	.um8		BEND  , c_v+0
	.um8		N01   , Bn0 , v112
	.um8		N01   , Gs1 , v076
	.um8		N01   , Cn3 , v056
	.um8		N01   , An3 , v076
	.um8	W05
	.um8		        An3 , v028
	.um8	W06
	.um8		        An3 , v104
	.um8	W01
	.um8		        As1 , v064
	.um8	W05
	.um8		        An3 , v104
	.um8	W01
	.um8		        Cn3 , v056
	.um8	W06
	.um8		        Bn0 , v116
	.um8		N01   , Ds1 , v096
	.um8		N01   , En1 , v112
	.um8		N01   , Gs1 , v060
	.um8	W06
	.um8		        Cn3 , v044
	.um8	W06
	.um8		        Ds3 , v052
	.um8		N01   , As3 , v084
	.um8	W06
	.um8		        As3 , v100
	.um8	W06
	.um8		        Bn0 , v112
	.um8		N01   , Cn3 , v056
	.um8	W12
	.um8		        As1 , v068
	.um8		N01   , As3 , v100
	.um8	W06
	.um8		        Cn3 , v044
	.um8	W06
	.um8		        Bn0 , v116
	.um8		N01   , Ds1 , v096
	.um8		N01   , En1 , v112
	.um8		N01   , Gs1 , v068
	.um8	W06
	.um8		        Cn3 , v052
	.um8	W06
	.um8		        As1 , v064
	.um8		N01   , Ds3 , v056
	.um8		N01   , As3 , v100
	.um8	W12
// 004   ----------------------------------------
	.um8		        Bn0 , v112
	.um8		N01   , Gs1 , v064
	.um8		N01   , Cn3 , v056
	.um8	W12
	.um8		        As1 , v060
	.um8		N01   , As3 , v088
	.um8	W06
	.um8		        Cn3 , v036
	.um8	W06
	.um8		        Bn0 , v112
	.um8		N01   , Ds1 , v096
	.um8		N01   , En1 , v112
	.um8		N01   , Gs1 , v064
	.um8	W06
	.um8		        Cn3 , v036
	.um8	W06
	.um8		        As1 , v056
	.um8		N01   , Ds3 , v052
	.um8		N01   , As3 , v080
	.um8	W06
	.um8		        As3 , v096
	.um8	W06
	.um8		        Bn0 , v112
	.um8		N01   , Gs1 , v064
	.um8		N01   , Cn3 , v056
	.um8	W12
	.um8		        As1 
	.um8		N01   , As3 , v096
	.um8	W06
	.um8		        Cn3 , v044
	.um8	W06
	.um8		        Bn0 , v116
	.um8		N01   , Ds1 , v096
	.um8		N01   , En1 , v112
	.um8		N01   , Gs1 , v064
	.um8	W06
	.um8		        Cn3 , v040
	.um8	W06
	.um8		        As1 , v060
	.um8		N01   , Ds3 , v052
	.um8		N01   , As3 , v084
	.um8	W06
	.um8		        As3 , v096
	.um8	W06
// 005   ----------------------------------------
mus_littleroot_9_005:
	.um8		N01   , Bn0 , v116
	.um8		N01   , Gs1 , v064
	.um8		N01   , Cn3 , v056
	.um8		N01   , An3 , v076
	.um8	W05
	.um8		        An3 , v028
	.um8	W06
	.um8		        An3 , v104
	.um8	W01
	.um8		        As1 , v068
	.um8		N01   , As3 , v096
	.um8	W05
	.um8		        An3 , v104
	.um8	W01
	.um8		        Cn3 , v044
	.um8	W06
	.um8		        Bn0 , v116
	.um8		N01   , Ds1 , v100
	.um8		N01   , En1 , v116
	.um8		N01   , Gs1 , v076
	.um8	W06
	.um8		        Cn3 , v040
	.um8	W06
	.um8		        Ds3 
	.um8		N01   , As3 , v072
	.um8	W06
	.um8		        As3 , v088
	.um8	W06
	.um8		        Bn0 , v112
	.um8		N01   , Cn3 , v056
	.um8	W12
	.um8		        As1 , v064
	.um8		N01   , As3 , v096
	.um8	W06
	.um8		        Cn3 , v040
	.um8	W06
	.um8		        Bn0 , v116
	.um8		N01   , Ds1 , v100
	.um8		N01   , En1 , v116
	.um8		N01   , Gs1 , v064
	.um8	W06
	.um8		        Cn3 , v044
	.um8	W06
	.um8		        As1 , v064
	.um8		N01   , Ds3 , v056
	.um8		N01   , As3 , v096
	.um8	W12
	.um8	PEND
// 006   ----------------------------------------
mus_littleroot_9_006:
	.um8		N01   , Bn0 , v116
	.um8		N01   , Gs1 , v068
	.um8		N01   , Cn3 , v052
	.um8	W12
	.um8		        As1 , v064
	.um8		N01   , As3 , v100
	.um8	W06
	.um8		        Cn3 , v040
	.um8	W06
	.um8		        Bn0 , v112
	.um8		N01   , Ds1 , v100
	.um8		N01   , En1 , v116
	.um8		N01   , Gs1 , v064
	.um8	W06
	.um8		        Cn3 , v044
	.um8	W06
	.um8		        As1 , v064
	.um8		N01   , Ds3 , v040
	.um8		N01   , As3 , v080
	.um8	W06
	.um8		        As3 , v088
	.um8	W06
	.um8		        Bn0 , v116
	.um8		N01   , Gs1 , v064
	.um8		N01   , Cn3 , v052
	.um8	W12
	.um8		        As1 , v064
	.um8		N01   , As3 , v100
	.um8	W06
	.um8		        Cn3 , v040
	.um8	W06
	.um8		        Bn0 , v116
	.um8		N01   , Ds1 , v100
	.um8		N01   , En1 , v116
	.um8		N01   , Gs1 , v068
	.um8	W06
	.um8		        Cn3 , v040
	.um8	W06
	.um8		        As1 , v068
	.um8		N01   , Ds3 , v052
	.um8		N01   , As3 , v084
	.um8	W06
	.um8		        As3 , v100
	.um8	W06
	.um8	PEND
// 007   ----------------------------------------
mus_littleroot_9_007:
	.um8		N01   , Bn0 , v112
	.um8		N01   , Gs1 , v076
	.um8		N01   , Cn3 , v056
	.um8		N01   , An3 , v076
	.um8	W05
	.um8		        An3 , v028
	.um8	W06
	.um8		        An3 , v104
	.um8	W01
	.um8		        As1 , v064
	.um8		N01   , As3 , v100
	.um8	W05
	.um8		        An3 , v104
	.um8	W01
	.um8		        Cn3 , v056
	.um8	W06
	.um8		        Bn0 , v116
	.um8		N01   , Ds1 , v096
	.um8		N01   , En1 , v112
	.um8		N01   , Gs1 , v060
	.um8	W06
	.um8		        Cn3 , v044
	.um8	W06
	.um8		        Ds3 , v052
	.um8		N01   , As3 , v084
	.um8	W06
	.um8		        As3 , v100
	.um8	W06
	.um8		        Bn0 , v112
	.um8		N01   , Cn3 , v056
	.um8	W12
	.um8		        As1 , v068
	.um8		N01   , As3 , v096
	.um8	W06
	.um8		        Cn3 , v044
	.um8	W06
	.um8		        Bn0 , v116
	.um8		N01   , Ds1 , v096
	.um8		N01   , En1 , v112
	.um8		N01   , Gs1 , v068
	.um8	W06
	.um8		        Cn3 , v052
	.um8	W06
	.um8		        As1 , v064
	.um8		N01   , Ds3 , v056
	.um8		N01   , As3 , v096
	.um8	W12
	.um8	PEND
// 008   ----------------------------------------
mus_littleroot_9_008:
	.um8		N01   , Bn0 , v112
	.um8		N01   , Gs1 , v064
	.um8		N01   , Cn3 , v056
	.um8	W12
	.um8		        As1 , v060
	.um8		N01   , As3 , v096
	.um8	W06
	.um8		        Cn3 , v036
	.um8	W06
	.um8		        Bn0 , v112
	.um8		N01   , Ds1 , v096
	.um8		N01   , En1 , v112
	.um8		N01   , Gs1 , v064
	.um8	W06
	.um8		        Cn3 , v036
	.um8	W06
	.um8		        As1 , v056
	.um8		N01   , Ds3 , v052
	.um8		N01   , As3 , v080
	.um8	W06
	.um8		        As3 , v096
	.um8	W06
	.um8		        Bn0 , v112
	.um8		N01   , Gs1 , v064
	.um8		N01   , Cn3 , v056
	.um8	W12
	.um8		        As1 
	.um8		N01   , As3 , v096
	.um8	W06
	.um8		        Cn3 , v044
	.um8	W06
	.um8		        Bn0 , v116
	.um8		N01   , Ds1 , v096
	.um8		N01   , En1 , v112
	.um8		N01   , Gs1 , v064
	.um8	W06
	.um8		        Cn3 , v040
	.um8	W06
	.um8		        As1 , v060
	.um8		N01   , Ds3 , v052
	.um8		N01   , As3 , v080
	.um8	W06
	.um8		        As3 , v100
	.um8	W06
	.um8	PEND
// 009   ----------------------------------------
	.um8	PATT
	 .um32	mus_littleroot_9_005
// 010   ----------------------------------------
	.um8		N01   , Bn0 , v116
	.um8		N01   , Gs1 , v068
	.um8		N01   , Cn3 , v052
	.um8	W12
	.um8		        As1 , v064
	.um8		N01   , As3 , v100
	.um8	W06
	.um8		        Cn3 , v040
	.um8	W06
	.um8		        Bn0 , v112
	.um8		N01   , Ds1 , v100
	.um8		N01   , En1 , v116
	.um8		N01   , Gs1 , v064
	.um8	W06
	.um8		        Cn3 , v044
	.um8	W06
	.um8		        As1 , v064
	.um8		N01   , Ds3 , v040
	.um8		N01   , As3 , v080
	.um8	W06
	.um8		        As3 , v088
	.um8	W06
	.um8		        Bn0 , v116
	.um8		N01   , Ds1 , v096
	.um8		N01   , En1 , v112
	.um8		N01   , Gs1 , v064
	.um8		N01   , Cn3 , v052
	.um8	W12
	.um8		        As1 , v064
	.um8		N01   , As3 , v100
	.um8	W06
	.um8		        Cn3 , v040
	.um8	W06
	.um8		        Bn0 , v116
	.um8		N01   , Ds1 , v100
	.um8		N01   , En1 , v116
	.um8		N01   , Gs1 , v068
	.um8	W06
	.um8		        Ds1 , v096
	.um8		N01   , En1 , v112
	.um8		N01   , Cn3 , v040
	.um8	W06
	.um8		        As1 , v068
	.um8		N01   , Ds3 , v052
	.um8		N01   , As3 , v084
	.um8	W06
	.um8		        As3 , v100
	.um8	W06
// 011   ----------------------------------------
	.um8	PATT
	 .um32	mus_littleroot_9_007
// 012   ----------------------------------------
	.um8	PATT
	 .um32	mus_littleroot_9_008
// 013   ----------------------------------------
	.um8	PATT
	 .um32	mus_littleroot_9_005
// 014   ----------------------------------------
	.um8	PATT
	 .um32	mus_littleroot_9_006
// 015   ----------------------------------------
	.um8	PATT
	 .um32	mus_littleroot_9_007
// 016   ----------------------------------------
	.um8	PATT
	 .um32	mus_littleroot_9_008
// 017   ----------------------------------------
	.um8	PATT
	 .um32	mus_littleroot_9_005
// 018   ----------------------------------------
	.um8	PATT
	 .um32	mus_littleroot_9_006
// 019   ----------------------------------------
	.um8	PATT
	 .um32	mus_littleroot_9_007
// 020   ----------------------------------------
	.um8	PATT
	 .um32	mus_littleroot_9_008
// 021   ----------------------------------------
	.um8	PATT
	 .um32	mus_littleroot_9_005
// 022   ----------------------------------------
mus_littleroot_9_022:
	.um8		N01   , Bn0 , v116
	.um8		N01   , Gs1 , v068
	.um8		N01   , Cn3 , v052
	.um8	W12
	.um8		        As1 , v064
	.um8		N01   , As3 , v100
	.um8	W06
	.um8		        Cn3 , v040
	.um8	W06
	.um8		        Bn0 , v112
	.um8		N01   , Ds1 , v100
	.um8		N01   , En1 , v116
	.um8		N01   , Gs1 , v064
	.um8	W06
	.um8		        Cn3 , v044
	.um8	W06
	.um8		        As1 , v064
	.um8		N01   , Ds3 , v040
	.um8		N01   , As3 , v080
	.um8	W06
	.um8		        As3 , v088
	.um8	W06
	.um8		        Bn0 , v116
	.um8		N01   , Gs1 , v064
	.um8		N01   , Cn3 , v052
	.um8	W06
	.um8		        Ds1 , v096
	.um8		N01   , En1 , v112
	.um8	W06
	.um8		        As1 , v064
	.um8		N01   , As3 , v100
	.um8	W06
	.um8		        Cn3 , v040
	.um8	W06
	.um8		        Bn0 , v116
	.um8		N01   , Ds1 , v100
	.um8		N01   , En1 , v116
	.um8		N01   , Gs1 , v068
	.um8	W06
	.um8		        Cn3 , v040
	.um8	W06
	.um8		        As1 , v068
	.um8		N01   , Ds3 , v052
	.um8		N01   , As3 , v084
	.um8	W06
	.um8		        Ds1 , v096
	.um8		N01   , En1 , v112
	.um8		N01   , As3 , v100
	.um8	W06
	.um8	PEND
// 023   ----------------------------------------
	.um8		        Bn0 , v112
	.um8		N01   , Gs1 , v076
	.um8		N01   , Cn3 , v056
	.um8		N01   , An3 , v076
	.um8	W05
	.um8		        An3 , v028
	.um8	W06
	.um8		        An3 , v104
	.um8	W01
	.um8		        As1 , v064
	.um8		N01   , As3 , v100
	.um8	W05
	.um8		        An3 , v104
	.um8	W01
	.um8		        Cn3 , v056
	.um8	W06
	.um8		        Bn0 , v116
	.um8		N01   , Ds1 , v096
	.um8		N01   , En1 , v112
	.um8		N01   , Gs1 , v060
	.um8	W06
	.um8		        Cn3 , v044
	.um8	W05
	.um8		        Ds3 , v052
	.um8		N01   , As3 , v084
	.um8	W07
	.um8		        As3 , v100
	.um8	W06
	.um8		        Bn0 , v112
	.um8		N01   , Cn3 , v056
	.um8	W11
	.um8		        As1 , v068
	.um8	W01
	.um8		        As3 , v096
	.um8	W06
	.um8		        Cn3 , v044
	.um8	W06
	.um8		        Bn0 , v116
	.um8		N01   , Ds1 , v096
	.um8		N01   , En1 , v112
	.um8		N01   , Gs1 , v068
	.um8	W06
	.um8		        Cn3 , v052
	.um8	W06
	.um8		        As1 , v064
	.um8		N01   , Ds3 , v056
	.um8		N01   , As3 , v096
	.um8	W12
// 024   ----------------------------------------
	.um8	PATT
	 .um32	mus_littleroot_9_008
// 025   ----------------------------------------
	.um8	PATT
	 .um32	mus_littleroot_9_005
// 026   ----------------------------------------
	.um8	PATT
	 .um32	mus_littleroot_9_006
// 027   ----------------------------------------
	.um8	PATT
	 .um32	mus_littleroot_9_007
// 028   ----------------------------------------
	.um8	PATT
	 .um32	mus_littleroot_9_008
// 029   ----------------------------------------
	.um8	PATT
	 .um32	mus_littleroot_9_005
// 030   ----------------------------------------
	.um8		N01   , Bn0 , v116
	.um8		N01   , Gs1 , v068
	.um8		N01   , Cn3 , v052
	.um8	W12
	.um8		        As1 , v064
	.um8		N01   , As3 , v100
	.um8	W06
	.um8		        Cn3 , v040
	.um8	W06
	.um8		        Bn0 , v112
	.um8		N01   , Ds1 , v100
	.um8		N01   , En1 , v116
	.um8		N01   , Gs1 , v064
	.um8	W06
	.um8		        Cn3 , v044
	.um8	W06
	.um8		        As1 , v064
	.um8		N01   , Ds3 , v040
	.um8		N01   , As3 , v080
	.um8	W06
	.um8		        As3 , v088
	.um8	W06
	.um8		        Bn0 , v116
	.um8		N01   , Ds1 , v096
	.um8		N01   , En1 , v112
	.um8		N01   , Gs1 , v064
	.um8		N01   , Cn3 , v052
	.um8	W12
	.um8		        As1 , v064
	.um8		N01   , As3 , v100
	.um8	W06
	.um8		        Cn3 , v040
	.um8	W06
	.um8		        Bn0 , v116
	.um8		N01   , Ds1 , v100
	.um8		N01   , En1 , v116
	.um8		N01   , Gs1 , v068
	.um8	W06
	.um8		        Ds1 , v100
	.um8		N01   , En1 , v116
	.um8		N01   , Cn3 , v040
	.um8	W06
	.um8		        As1 , v068
	.um8		N01   , Ds3 , v052
	.um8		N01   , As3 , v084
	.um8	W06
	.um8		        As3 , v100
	.um8	W06
// 031   ----------------------------------------
	.um8	PATT
	 .um32	mus_littleroot_9_007
// 032   ----------------------------------------
	.um8	PATT
	 .um32	mus_littleroot_9_008
// 033   ----------------------------------------
	.um8	PATT
	 .um32	mus_littleroot_9_005
// 034   ----------------------------------------
	.um8	PATT
	 .um32	mus_littleroot_9_006
// 035   ----------------------------------------
	.um8	PATT
	 .um32	mus_littleroot_9_007
// 036   ----------------------------------------
	.um8	PATT
	 .um32	mus_littleroot_9_008
// 037   ----------------------------------------
	.um8	PATT
	 .um32	mus_littleroot_9_005
// 038   ----------------------------------------
	.um8	PATT
	 .um32	mus_littleroot_9_006
// 039   ----------------------------------------
	.um8	PATT
	 .um32	mus_littleroot_9_007
// 040   ----------------------------------------
	.um8	PATT
	 .um32	mus_littleroot_9_008
// 041   ----------------------------------------
	.um8	PATT
	 .um32	mus_littleroot_9_005
// 042   ----------------------------------------
	.um8		N01   , Bn0 , v116
	.um8		N01   , Gs1 , v068
	.um8		N01   , Cn3 , v052
	.um8	W12
	.um8		        As1 , v064
	.um8		N01   , As3 , v100
	.um8	W06
	.um8		        Cn3 , v040
	.um8	W06
	.um8		        Bn0 , v112
	.um8		N01   , Ds1 , v100
	.um8		N01   , En1 , v116
	.um8		N01   , Gs1 , v064
	.um8	W06
	.um8		        Cn3 , v044
	.um8	W06
	.um8		        As1 , v064
	.um8		N01   , Ds3 , v040
	.um8		N01   , As3 , v080
	.um8	W06
	.um8		        As3 , v088
	.um8	W06
	.um8		        Bn0 , v116
	.um8		N01   , Gs1 , v064
	.um8		N01   , Cn3 , v052
	.um8	W06
	.um8		        Ds1 , v100
	.um8		N01   , En1 , v116
	.um8	W06
	.um8		        As1 , v064
	.um8		N01   , As3 , v100
	.um8	W06
	.um8		        Cn3 , v040
	.um8	W06
	.um8		        Bn0 , v116
	.um8		N01   , Ds1 , v100
	.um8		N01   , En1 , v116
	.um8		N01   , Gs1 , v068
	.um8	W06
	.um8		        Cn3 , v040
	.um8	W06
	.um8		        As1 , v068
	.um8		N01   , Ds3 , v052
	.um8		N01   , As3 , v084
	.um8	W06
	.um8		        Ds1 , v096
	.um8		N01   , En1 , v112
	.um8		N01   , As3 , v100
	.um8	W06
// 043   ----------------------------------------
	.um8	PATT
	 .um32	mus_littleroot_9_007
// 044   ----------------------------------------
	.um8	PATT
	 .um32	mus_littleroot_9_008
// 045   ----------------------------------------
	.um8	PATT
	 .um32	mus_littleroot_9_005
// 046   ----------------------------------------
	.um8	PATT
	 .um32	mus_littleroot_9_006
// 047   ----------------------------------------
	.um8	PATT
	 .um32	mus_littleroot_9_007
// 048   ----------------------------------------
	.um8	PATT
	 .um32	mus_littleroot_9_008
// 049   ----------------------------------------
	.um8	PATT
	 .um32	mus_littleroot_9_005
// 050   ----------------------------------------
	.um8	PATT
	 .um32	mus_littleroot_9_006
// 051   ----------------------------------------
	.um8	PATT
	 .um32	mus_littleroot_9_007
// 052   ----------------------------------------
	.um8	PATT
	 .um32	mus_littleroot_9_008
// 053   ----------------------------------------
	.um8	PATT
	 .um32	mus_littleroot_9_005
// 054   ----------------------------------------
	.um8	PATT
	 .um32	mus_littleroot_9_006
// 055   ----------------------------------------
	.um8	PATT
	 .um32	mus_littleroot_9_007
// 056   ----------------------------------------
	.um8	PATT
	 .um32	mus_littleroot_9_008
// 057   ----------------------------------------
	.um8	PATT
	 .um32	mus_littleroot_9_005
// 058   ----------------------------------------
	.um8		N01   , Bn0 , v116
	.um8		N01   , Gs1 , v068
	.um8		N01   , Cn3 , v052
	.um8	W12
	.um8		        As1 , v064
	.um8		N01   , As3 , v100
	.um8	W06
	.um8		        Cn3 , v040
	.um8	W06
	.um8		        Bn0 , v112
	.um8		N01   , Ds1 , v100
	.um8		N01   , En1 , v116
	.um8		N01   , Gs1 , v064
	.um8	W06
	.um8		        Cn3 , v044
	.um8	W06
	.um8		        As1 , v064
	.um8		N01   , Ds3 , v040
	.um8		N01   , As3 , v080
	.um8	W06
	.um8		        As3 , v088
	.um8	W06
	.um8		        Bn0 , v116
	.um8		N01   , Ds1 , v100
	.um8		N01   , En1 , v116
	.um8		N01   , Gs1 , v064
	.um8		N01   , Cn3 , v052
	.um8	W12
	.um8		        As1 , v064
	.um8		N01   , As3 , v100
	.um8	W06
	.um8		        Cn3 , v040
	.um8	W06
	.um8		        Bn0 , v116
	.um8		N01   , Ds1 , v100
	.um8		N01   , En1 , v116
	.um8		N01   , Gs1 , v068
	.um8	W06
	.um8		        Ds1 , v100
	.um8		N01   , En1 , v116
	.um8		N01   , Cn3 , v040
	.um8	W06
	.um8		        As1 , v068
	.um8		N01   , Ds3 , v052
	.um8		N01   , As3 , v084
	.um8	W06
	.um8		        As3 , v100
	.um8	W06
// 059   ----------------------------------------
	.um8	PATT
	 .um32	mus_littleroot_9_007
// 060   ----------------------------------------
	.um8	PATT
	 .um32	mus_littleroot_9_008
// 061   ----------------------------------------
	.um8	PATT
	 .um32	mus_littleroot_9_005
// 062   ----------------------------------------
	.um8	PATT
	 .um32	mus_littleroot_9_006
// 063   ----------------------------------------
	.um8	PATT
	 .um32	mus_littleroot_9_007
// 064   ----------------------------------------
	.um8	PATT
	 .um32	mus_littleroot_9_008
// 065   ----------------------------------------
	.um8	PATT
	 .um32	mus_littleroot_9_005
// 066   ----------------------------------------
	.um8		N01   , Bn0 , v116
	.um8		N01   , Gs1 , v068
	.um8		N01   , Cn3 , v052
	.um8	W12
	.um8		        As1 , v064
	.um8		N01   , As3 , v100
	.um8	W06
	.um8		        Cn3 , v040
	.um8	W06
	.um8		        Bn0 , v112
	.um8		N01   , Ds1 , v100
	.um8		N01   , En1 , v116
	.um8		N01   , Gs1 , v064
	.um8	W06
	.um8		        Cn3 , v044
	.um8	W06
	.um8		        As1 , v064
	.um8		N01   , Ds3 , v040
	.um8		N01   , As3 , v080
	.um8	W06
	.um8		        As3 , v088
	.um8	W06
	.um8		        Bn0 , v116
	.um8		N01   , Ds1 , v096
	.um8		N01   , En1 , v112
	.um8		N01   , Gs1 , v064
	.um8		N01   , Cn3 , v052
	.um8	W06
	.um8		        Ds1 , v084
	.um8		N01   , En1 , v100
	.um8	W06
	.um8		        Ds1 , v080
	.um8		N01   , En1 , v096
	.um8		N01   , As1 , v064
	.um8		N01   , As3 , v100
	.um8	W06
	.um8		        Ds1 , v092
	.um8		N01   , En1 , v104
	.um8		N01   , Cn3 , v040
	.um8	W06
	.um8		        Bn0 , v116
	.um8		N01   , Gs1 , v068
	.um8	W06
	.um8		        Cn3 , v040
	.um8	W06
	.um8		        As1 , v068
	.um8		N01   , Ds3 , v052
	.um8		N01   , As3 , v084
	.um8	W06
	.um8		        As3 , v100
	.um8	W06
// 067   ----------------------------------------
	.um8	PATT
	 .um32	mus_littleroot_9_007
// 068   ----------------------------------------
	.um8	PATT
	 .um32	mus_littleroot_9_008
// 069   ----------------------------------------
	.um8	PATT
	 .um32	mus_littleroot_9_005
// 070   ----------------------------------------
	.um8	PATT
	 .um32	mus_littleroot_9_006
// 071   ----------------------------------------
	.um8	PATT
	 .um32	mus_littleroot_9_007
// 072   ----------------------------------------
	.um8	PATT
	 .um32	mus_littleroot_9_008
// 073   ----------------------------------------
	.um8	PATT
	 .um32	mus_littleroot_9_005
// 074   ----------------------------------------
	.um8	PATT
	 .um32	mus_littleroot_9_006
// 075   ----------------------------------------
	.um8	PATT
	 .um32	mus_littleroot_9_007
// 076   ----------------------------------------
	.um8	PATT
	 .um32	mus_littleroot_9_008
// 077   ----------------------------------------
	.um8	PATT
	 .um32	mus_littleroot_9_005
// 078   ----------------------------------------
	.um8	PATT
	 .um32	mus_littleroot_9_022
// 079   ----------------------------------------
	.um8	PATT
	 .um32	mus_littleroot_9_007
// 080   ----------------------------------------
	.um8	PATT
	 .um32	mus_littleroot_9_008
// 081   ----------------------------------------
	.um8	PATT
	 .um32	mus_littleroot_9_005
// 082   ----------------------------------------
	.um8	PATT
	 .um32	mus_littleroot_9_006
// 083   ----------------------------------------
	.um8	PATT
	 .um32	mus_littleroot_9_007
// 084   ----------------------------------------
	.um8	PATT
	 .um32	mus_littleroot_9_008
// 085   ----------------------------------------
	.um8	PATT
	 .um32	mus_littleroot_9_005
// 086   ----------------------------------------
	.um8		N01   , Bn0 , v116
	.um8		N01   , Gs1 , v068
	.um8		N01   , Cn3 , v052
	.um8	W12
	.um8		        As1 , v064
	.um8		N01   , As3 , v100
	.um8	W06
	.um8		        Cn3 , v040
	.um8	W06
	.um8		        Bn0 , v112
	.um8		N01   , Ds1 , v100
	.um8		N01   , En1 , v116
	.um8		N01   , Gs1 , v064
	.um8	W06
	.um8		        Cn3 , v044
	.um8	W06
	.um8		        As1 , v064
	.um8		N01   , Ds3 , v040
	.um8		N01   , As3 , v080
	.um8	W06
	.um8		        As3 , v088
	.um8	W06
	.um8		        Bn0 , v116
	.um8		N01   , Gs1 , v064
	.um8		N01   , Cn3 , v052
	.um8	W12
	.um8		        As1 , v064
	.um8		N01   , As3 , v100
	.um8	W06
	.um8		        Cn3 , v040
	.um8	W06
	.um8		        Bn0 , v116
	.um8		N01   , Ds1 , v100
	.um8		N01   , En1 , v116
	.um8		N01   , Gs1 , v068
	.um8	W06
	.um8		        Ds1 , v096
	.um8		N01   , En1 , v112
	.um8		N01   , Cn3 , v040
	.um8	W06
	.um8		        As1 , v068
	.um8		N01   , Ds3 , v052
	.um8		N01   , As3 , v084
	.um8	W06
	.um8		        As3 , v100
	.um8	W06
// 087   ----------------------------------------
	.um8	PATT
	 .um32	mus_littleroot_9_007
// 088   ----------------------------------------
	.um8	PATT
	 .um32	mus_littleroot_9_008
// 089   ----------------------------------------
	.um8	PATT
	 .um32	mus_littleroot_9_005
// 090   ----------------------------------------
	.um8	PATT
	 .um32	mus_littleroot_9_006
// 091   ----------------------------------------
	.um8	PATT
	 .um32	mus_littleroot_9_007
// 092   ----------------------------------------
	.um8	PATT
	 .um32	mus_littleroot_9_008
// 093   ----------------------------------------
	.um8	PATT
	 .um32	mus_littleroot_9_005
// 094   ----------------------------------------
	.um8		N01   , Bn0 , v116
	.um8		N01   , Gs1 , v068
	.um8		N01   , Cn3 , v052
	.um8	W12
	.um8		        As1 , v064
	.um8		N01   , As3 , v100
	.um8	W06
	.um8		        Cn3 , v040
	.um8	W06
	.um8		        Bn0 , v112
	.um8		N01   , Ds1 , v100
	.um8		N01   , En1 , v116
	.um8		N01   , Gs1 , v064
	.um8	W06
	.um8		        Cn3 , v044
	.um8	W06
	.um8		        As1 , v064
	.um8		N01   , Ds3 , v040
	.um8		N01   , As3 , v080
	.um8	W06
	.um8		        As3 , v088
	.um8	W06
	.um8		        Bn0 , v116
	.um8		N01   , Gs1 , v064
	.um8		N01   , Cn3 , v052
	.um8	W12
	.um8		        As1 , v064
	.um8		N01   , As3 , v100
	.um8	W06
	.um8		        Cn3 , v040
	.um8	W06
	.um8		        Bn0 , v116
	.um8		N01   , Ds1 , v100
	.um8		N01   , En1 , v116
	.um8		N01   , Gs1 , v068
	.um8	W06
	.um8		        Ds1 , v100
	.um8		N01   , En1 , v116
	.um8		N01   , Cn3 , v040
	.um8	W06
	.um8		        As1 , v068
	.um8		N01   , Ds3 , v052
	.um8		N01   , As3 , v084
	.um8	W06
	.um8		        As3 , v100
	.um8	W06
// 095   ----------------------------------------
	.um8		        Bn0 , v112
	.um8		N01   , Gs1 , v076
	.um8		N01   , Cn3 , v056
	.um8		N01   , An3 , v076
	.um8	W05
	.um8		        An3 , v028
	.um8	W06
	.um8		        An3 , v104
	.um8	W01
	.um8		        As1 , v064
	.um8		N01   , As3 , v100
	.um8	W05
	.um8		        An3 
	.um8	W01
	.um8		        Cn3 , v056
	.um8	W06
	.um8		        Bn0 , v112
	.um8		N01   , Ds1 , v092
	.um8		N01   , En1 , v108
	.um8		N01   , Gs1 , v060
	.um8	W06
	.um8		        Cn3 , v044
	.um8	W06
	.um8		        Ds3 , v048
	.um8		N01   , As3 , v080
	.um8	W06
	.um8		        As3 , v096
	.um8	W06
	.um8		        Bn0 , v104
	.um8		N01   , Cn3 , v052
	.um8	W12
	.um8		        As1 , v064
	.um8		N01   , As3 , v088
	.um8	W06
	.um8		        Cn3 , v040
	.um8	W06
	.um8		        Bn0 , v104
	.um8		N01   , Ds1 , v088
	.um8		N01   , En1 , v100
	.um8		N01   , Gs1 , v060
	.um8	W06
	.um8		        Cn3 , v044
	.um8	W06
	.um8		        As1 , v056
	.um8		N01   , Ds3 , v048
	.um8		N01   , As3 , v084
	.um8	W12
// 096   ----------------------------------------
	.um8		        Bn0 , v096
	.um8		N01   , Gs1 , v056
	.um8		N01   , Cn3 , v048
	.um8	W12
	.um8		        As1 , v052
	.um8		N01   , As3 , v080
	.um8	W06
	.um8		        Cn3 , v028
	.um8	W06
	.um8		        Bn0 , v092
	.um8		N01   , Ds1 , v080
	.um8		N01   , En1 , v092
	.um8		N01   , Gs1 , v052
	.um8	W06
	.um8		        Cn3 , v028
	.um8	W06
	.um8		        As1 , v044
	.um8		N01   , Ds3 , v040
	.um8		N01   , As3 , v064
	.um8	W06
	.um8		        As3 , v076
	.um8	W06
	.um8		        Bn0 , v088
	.um8		N01   , Gs1 , v048
	.um8		N01   , Cn3 , v044
	.um8	W12
	.um8		        As1 , v040
	.um8		N01   , As3 , v072
	.um8	W06
	.um8		        Cn3 , v032
	.um8	W06
	.um8		        Bn0 , v084
	.um8		N01   , Ds1 , v072
	.um8		N01   , En1 , v084
	.um8		N01   , Gs1 , v048
	.um8	W06
	.um8		        Cn3 , v028
	.um8	W06
	.um8		        As1 , v044
	.um8		N01   , Ds3 , v036
	.um8		N01   , As3 , v056
	.um8	W06
	.um8		        As3 , v072
	.um8	W06
// 097   ----------------------------------------
	.um8		        Bn0 , v080
	.um8		N01   , Gs1 , v044
	.um8		N01   , Cn3 , v036
	.um8		N01   , An3 , v052
	.um8	W05
	.um8		        An3 , v020
	.um8	W06
	.um8		        An3 , v072
	.um8	W01
	.um8		        As1 , v044
	.um8		N01   , As3 , v064
	.um8	W05
	.um8		        An3 , v068
	.um8	W01
	.um8		        Cn3 , v028
	.um8	W06
	.um8		        Bn0 , v076
	.um8		N01   , Ds1 , v068
	.um8		N01   , En1 , v076
	.um8		N01   , Gs1 , v052
	.um8	W06
	.um8		        Cn3 , v024
	.um8	W06
	.um8		        Ds3 
	.um8		N01   , As3 , v048
	.um8	W06
	.um8		        As3 , v056
	.um8	W06
	.um8		        Bn0 , v072
	.um8		N01   , Cn3 , v032
	.um8	W12
	.um8		        As1 , v036
	.um8		N01   , As3 , v056
	.um8	W06
	.um8		        Cn3 , v024
	.um8	W06
	.um8		        Bn0 , v068
	.um8		N01   , Ds1 , v060
	.um8		N01   , En1 , v068
	.um8		N01   , Gs1 , v036
	.um8	W06
	.um8		        Cn3 , v024
	.um8	W06
	.um8		        As1 , v036
	.um8		N01   , Ds3 , v028
	.um8		N01   , As3 , v052
	.um8	W12
// 098   ----------------------------------------
	.um8		        Bn0 , v064
	.um8		N01   , Gs1 , v036
	.um8		N01   , Cn3 , v024
	.um8	W12
	.um8		        As1 , v032
	.um8		N01   , As3 , v052
	.um8	W06
	.um8		        Cn3 , v020
	.um8	W06
	.um8		        Bn0 , v056
	.um8		N01   , Ds1 , v052
	.um8		N01   , En1 , v060
	.um8		N01   , Gs1 , v032
	.um8	W06
	.um8		        Cn3 , v020
	.um8	W06
	.um8		        As1 , v028
	.um8		N01   , Ds3 , v016
	.um8		N01   , As3 , v036
	.um8	W06
	.um8		        As3 , v040
	.um8	W06
	.um8		        Bn0 , v056
	.um8		N01   , Gs1 , v028
	.um8		N01   , Cn3 , v020
	.um8	W12
	.um8		        As1 , v028
	.um8		N01   , As3 , v044
	.um8	W06
	.um8		        Cn3 , v016
	.um8	W06
	.um8		        Bn0 , v052
	.um8		N01   , Ds1 , v044
	.um8		N01   , En1 , v052
	.um8		N01   , Gs1 , v028
	.um8	W06
	.um8		        Cn3 , v016
	.um8	W06
	.um8		        As1 , v028
	.um8		N01   , Ds3 , v020
	.um8		N01   , As3 , v032
	.um8	W06
	.um8		        As3 , v040
	.um8	W06
// 099   ----------------------------------------
	.um8		        Bn0 , v044
	.um8		N01   , Gs1 , v028
	.um8		N01   , Cn3 , v020
	.um8		N01   , An3 , v028
	.um8	W05
	.um8		        An3 , v008
	.um8	W06
	.um8		        An3 , v040
	.um8	W01
	.um8		        As1 , v024
	.um8		N01   , As3 , v036
	.um8	W05
	.um8		        An3 , v040
	.um8	W01
	.um8		        Cn3 , v016
	.um8	W06
	.um8		        Bn0 , v040
	.um8		N01   , Ds1 , v036
	.um8		N01   , En1 , v040
	.um8		N01   , Gs1 , v020
	.um8	W06
	.um8		        Cn3 , v012
	.um8	W06
	.um8		        Ds3 , v016
	.um8		N01   , As3 , v028
	.um8	W06
	.um8		        As3 , v032
	.um8	W06
	.um8		        Bn0 , v036
	.um8		N01   , Cn3 , v016
	.um8	W12
	.um8		        As1 
	.um8		N01   , As3 , v028
	.um8	W06
	.um8		        Cn3 , v008
	.um8	W06
	.um8		        Bn0 , v032
	.um8		N01   , Ds1 , v028
	.um8		N01   , En1 , v032
	.um8		N01   , Gs1 , v016
	.um8	W06
	.um8		        Cn3 , v012
	.um8	W06
	.um8		        As1 , v016
	.um8		N01   , Ds3 , v012
	.um8		N01   , As3 , v024
	.um8	W12
// 100   ----------------------------------------
	.um8		        Bn0 , v028
	.um8		N01   , Gs1 , v012
	.um8		N01   , Cn3 
	.um8	W12
	.um8		        As1 
	.um8		N01   , As3 , v020
	.um8	W06
	.um8		        Cn3 , v004
	.um8	W06
	.um8		        Bn0 , v024
	.um8		N01   , Ds1 , v020
	.um8		N01   , En1 , v024
	.um8		N01   , Gs1 , v008
	.um8	W06
	.um8		        Cn3 , v004
	.um8	W06
	.um8		        As1 , v008
	.um8		N01   , Ds3 , v004
	.um8		N01   , As3 , v012
	.um8	W06
	.um8		        As3 , v016
	.um8	W06
	.um8		        Bn0 , v020
	.um8		N01   , Gs1 , v008
	.um8		N01   , Cn3 , v004
	.um8	W12
	.um8		        As1 
	.um8		N01   , As3 , v012
	.um8	W06
	.um8		        Cn3 , v004
	.um8	W06
	.um8		        Bn0 , v016
	.um8		N01   , Ds1 , v012
	.um8		N01   , En1 
	.um8		N01   , Gs1 , v004
	.um8	W06
	.um8		        Cn3 
	.um8	W06
	.um8		        As1 
	.um8		N01   , Ds3 
	.um8		N01   , As3 , v008
	.um8	W06
	.um8		N01   
	.um8	W06
// 101   ----------------------------------------
	.um8		        Bn0 , v012
	.um8		N01   , Gs1 , v004
	.um8		N01   , Cn3 
	.um8		N01   , An3 
	.um8	W05
	.um8		N01   
	.um8	W06
	.um8		        An3 , v008
	.um8	W01
	.um8		        As1 , v004
	.um8		N01   , As3 
	.um8	W05
	.um8		        An3 
	.um8	W01
	.um8		        Cn3 
	.um8	W06
	.um8		        Bn0 
	.um8		N01   , Ds1 
	.um8		N01   , En1 
	.um8		N01   , Gs1 
	.um8	W06
	.um8		        Cn3 
	.um8	W06
	.um8		        Ds3 
	.um8		N01   , As3 
	.um8	W06
	.um8		N01   
	.um8	W06
	.um8		        Bn0 
	.um8		N01   , Cn3 
	.um8	W12
	.um8		        As1 
	.um8		N01   , As3 
	.um8	W06
	.um8		        Cn3 
	.um8	W06
	.um8		        Bn0 
	.um8		N01   , Ds1 
	.um8		N01   , En1 
	.um8		N01   , Gs1 
	.um8	W06
	.um8		        Cn3 
	.um8	W06
	.um8		        As1 
	.um8		N01   , Ds3 
	.um8		N01   , As3 
	.um8	FINE

//**************** Track 10 (Midi-Chn.11) String Ensemble ****************//

mus_littleroot_10:
	.um8	KEYSH , mus_littleroot_key+0
// 000   ----------------------------------------
	.um8	W96
// 001   ----------------------------------------
	.um8	W36
	.um8	W01
	.um8		VOICE , 48
	.um8		VOL   , 105*mus_littleroot_mvl/mxv
	.um8		PAN   , c_v+0
	.um8	W56
	.um8	W03
// 002   ----------------------------------------
	.um8	W96
// 003   ----------------------------------------
	.um8		N32   , Cs4 , v068, gtp2
	.um8		N32   , Cs5 , v068, gtp2
	.um8	W01
	.um8		MOD   , 0
	.um8		BEND  , c_v+0
	.um8	W32
	.um8	W02
	.um8		N32   , Ds4 , v068, gtp3
	.um8		N32   , Ds5 , v068, gtp3
	.um8	W32
	.um8	W03
	.um8		N22   , Gs3 , v060
	.um8		N22   , Gs4 , v056
	.um8	W23
	.um8		N36   , Ds4 , v068, gtp2
	.um8		N36   , Ds5 , v068, gtp2
	.um8	W03
// 004   ----------------------------------------
mus_littleroot_10_004:
	.um8	W36
	.um8		N30   , Fn4 , v084
	.um8		N30   , Fn5 
	.um8	W32
	.um8	W02
	.um8		N05   , Gs4 , v072
	.um8		N05   , Gs5 
	.um8	W06
	.um8		        Fs4 
	.um8		N05   , Fs5 
	.um8	W05
	.um8		N04   , Fn4 , v080
	.um8		N04   , Fn5 
	.um8	W07
	.um8		N42   , Cs4 , v076
	.um8		N42   , Cs5 
	.um8	W08
	.um8	PEND
// 005   ----------------------------------------
mus_littleroot_10_005:
	.um8	W32
	.um8	W03
	.um8		N36   , Ds4 , v072
	.um8		N36   , Ds5 
	.um8	W36
	.um8		N68   , Gs3 , v044, gtp2
	.um8		N68   , Gs4 , v048, gtp2
	.um8	W24
	.um8	W01
	.um8	PEND
// 006   ----------------------------------------
mus_littleroot_10_006:
	.um8	W72
	.um8		N05   , Gs4 , v076
	.um8		N05   , Gs5 
	.um8	W05
	.um8		        Fs4 , v072
	.um8		N05   , Fs5 
	.um8	W06
	.um8		        Fn4 , v084
	.um8		N05   , Fn5 
	.um8	W07
	.um8		N40   , Cs4 , v076, gtp1
	.um8		N40   , Cs5 , v076, gtp1
	.um8	W06
	.um8	PEND
// 007   ----------------------------------------
mus_littleroot_10_007:
	.um8	W32
	.um8	W03
	.um8		N32   , Ds4 , v072, gtp3
	.um8		N32   , Ds5 , v072, gtp3
	.um8	W32
	.um8	W03
	.um8		N24   , Gs3 , v056
	.um8		N24   , Gs4 
	.um8	W24
	.um8	W01
	.um8		N36   , Ds4 , v068
	.um8		N36   , Ds5 
	.um8	W01
	.um8	PEND
// 008   ----------------------------------------
mus_littleroot_10_008:
	.um8	W36
	.um8		N32   , Fn4 , v076, gtp2
	.um8		N32   , Fn5 , v076, gtp2
	.um8	W36
	.um8	W01
	.um8		N04   , Gs4 , v068
	.um8		N04   , Gs5 
	.um8	W05
	.um8		N05   , Fs4 , v064
	.um8		N05   , Fs5 
	.um8	W05
	.um8		N04   , Fn4 , v068
	.um8		N04   , Fn5 
	.um8	W07
	.um8		N40   , Cs4 , v064
	.um8		N40   , Cs5 
	.um8	W06
	.um8	PEND
// 009   ----------------------------------------
mus_littleroot_10_009:
	.um8	W32
	.um8	W02
	.um8		N36   , Ds4 , v072
	.um8		N36   , Ds5 
	.um8	W36
	.um8		N88   , Gs3 , v044, gtp1
	.um8		N88   , Gs4 , v044, gtp1
	.um8	W24
	.um8	W02
	.um8	PEND
// 010   ----------------------------------------
	.um8	W96
// 011   ----------------------------------------
	.um8	W96
// 012   ----------------------------------------
	.um8	W96
// 013   ----------------------------------------
	.um8	W96
// 014   ----------------------------------------
	.um8	W96
// 015   ----------------------------------------
	.um8	W96
// 016   ----------------------------------------
	.um8	W96
// 017   ----------------------------------------
	.um8	W96
// 018   ----------------------------------------
	.um8	W96
// 019   ----------------------------------------
	.um8	W96
// 020   ----------------------------------------
	.um8	W96
// 021   ----------------------------------------
	.um8	W96
// 022   ----------------------------------------
	.um8	W96
// 023   ----------------------------------------
mus_littleroot_10_023:
	.um8		N32   , Cs4 , v068, gtp2
	.um8		N32   , Cs5 , v068, gtp2
	.um8	W32
	.um8	W03
	.um8		        Ds4 , v068, gtp3
	.um8		N32   , Ds5 , v068, gtp3
	.um8	W32
	.um8	W03
	.um8		N22   , Gs3 , v060
	.um8		N22   , Gs4 , v056
	.um8	W23
	.um8		N36   , Ds4 , v068, gtp2
	.um8		N36   , Ds5 , v068, gtp2
	.um8	W03
	.um8	PEND
// 024   ----------------------------------------
	.um8	PATT
	 .um32	mus_littleroot_10_004
// 025   ----------------------------------------
	.um8	PATT
	 .um32	mus_littleroot_10_005
// 026   ----------------------------------------
	.um8	PATT
	 .um32	mus_littleroot_10_006
// 027   ----------------------------------------
	.um8	PATT
	 .um32	mus_littleroot_10_007
// 028   ----------------------------------------
	.um8	PATT
	 .um32	mus_littleroot_10_008
// 029   ----------------------------------------
	.um8	PATT
	 .um32	mus_littleroot_10_009
// 030   ----------------------------------------
	.um8	W96
// 031   ----------------------------------------
	.um8	W96
// 032   ----------------------------------------
	.um8	W96
// 033   ----------------------------------------
	.um8	W96
// 034   ----------------------------------------
	.um8	W96
// 035   ----------------------------------------
	.um8	W96
// 036   ----------------------------------------
	.um8	W96
// 037   ----------------------------------------
	.um8	W96
// 038   ----------------------------------------
	.um8	W96
// 039   ----------------------------------------
	.um8	W96
// 040   ----------------------------------------
	.um8	W96
// 041   ----------------------------------------
	.um8	W96
// 042   ----------------------------------------
	.um8	W96
// 043   ----------------------------------------
	.um8	PATT
	 .um32	mus_littleroot_10_023
// 044   ----------------------------------------
	.um8	PATT
	 .um32	mus_littleroot_10_004
// 045   ----------------------------------------
	.um8	PATT
	 .um32	mus_littleroot_10_005
// 046   ----------------------------------------
	.um8	PATT
	 .um32	mus_littleroot_10_006
// 047   ----------------------------------------
	.um8	PATT
	 .um32	mus_littleroot_10_007
// 048   ----------------------------------------
	.um8	PATT
	 .um32	mus_littleroot_10_008
// 049   ----------------------------------------
	.um8	PATT
	 .um32	mus_littleroot_10_009
// 050   ----------------------------------------
	.um8	W96
// 051   ----------------------------------------
	.um8	PATT
	 .um32	mus_littleroot_10_023
// 052   ----------------------------------------
	.um8	PATT
	 .um32	mus_littleroot_10_004
// 053   ----------------------------------------
	.um8	PATT
	 .um32	mus_littleroot_10_005
// 054   ----------------------------------------
	.um8	PATT
	 .um32	mus_littleroot_10_006
// 055   ----------------------------------------
	.um8	PATT
	 .um32	mus_littleroot_10_007
// 056   ----------------------------------------
	.um8	PATT
	 .um32	mus_littleroot_10_008
// 057   ----------------------------------------
	.um8	PATT
	 .um32	mus_littleroot_10_009
// 058   ----------------------------------------
	.um8	W96
// 059   ----------------------------------------
	.um8	W96
// 060   ----------------------------------------
	.um8	W96
// 061   ----------------------------------------
	.um8	W96
// 062   ----------------------------------------
	.um8	W96
// 063   ----------------------------------------
	.um8	W96
// 064   ----------------------------------------
	.um8	W96
// 065   ----------------------------------------
	.um8	W96
// 066   ----------------------------------------
	.um8	W96
// 067   ----------------------------------------
	.um8	W96
// 068   ----------------------------------------
	.um8	W96
// 069   ----------------------------------------
	.um8	W96
// 070   ----------------------------------------
	.um8	W96
// 071   ----------------------------------------
	.um8	W96
// 072   ----------------------------------------
	.um8	W96
// 073   ----------------------------------------
	.um8	W96
// 074   ----------------------------------------
	.um8	W96
// 075   ----------------------------------------
	.um8		N80   , Cs4 , v048, gtp3
	.um8		N80   , Cs5 , v052, gtp3
	.um8	W80
	.um8	W02
	.um8		N60   , Ds5 
	.um8	W01
	.um8		        Ds4 , v044
	.um8	W13
// 076   ----------------------------------------
	.um8	W44
	.um8	W02
	.um8		N48   , Fn5 , v068, gtp1
	.um8	W01
	.um8		        Fn4 , v064
	.um8	W48
	.um8		N84   , As3 , v048, gtp2
	.um8		N84   , As4 , v052, gtp1
	.um8	W01
// 077   ----------------------------------------
	.um8	W96
// 078   ----------------------------------------
	.um8	W96
// 079   ----------------------------------------
	.um8	PATT
	 .um32	mus_littleroot_10_023
// 080   ----------------------------------------
	.um8	PATT
	 .um32	mus_littleroot_10_004
// 081   ----------------------------------------
	.um8	PATT
	 .um32	mus_littleroot_10_005
// 082   ----------------------------------------
	.um8	PATT
	 .um32	mus_littleroot_10_006
// 083   ----------------------------------------
	.um8	PATT
	 .um32	mus_littleroot_10_007
// 084   ----------------------------------------
	.um8	PATT
	 .um32	mus_littleroot_10_008
// 085   ----------------------------------------
	.um8	PATT
	 .um32	mus_littleroot_10_009
// 086   ----------------------------------------
	.um8	W96
// 087   ----------------------------------------
	.um8	PATT
	 .um32	mus_littleroot_10_023
// 088   ----------------------------------------
	.um8	PATT
	 .um32	mus_littleroot_10_004
// 089   ----------------------------------------
	.um8	PATT
	 .um32	mus_littleroot_10_005
// 090   ----------------------------------------
	.um8	PATT
	 .um32	mus_littleroot_10_006
// 091   ----------------------------------------
	.um8	PATT
	 .um32	mus_littleroot_10_007
// 092   ----------------------------------------
	.um8	PATT
	 .um32	mus_littleroot_10_008
// 093   ----------------------------------------
	.um8	PATT
	 .um32	mus_littleroot_10_009
// 094   ----------------------------------------
	.um8	W96
// 095   ----------------------------------------
	.um8		N32   , Cs4 , v068, gtp2
	.um8		N32   , Cs5 , v068, gtp2
	.um8	W32
	.um8	W03
	.um8		        Ds4 , v064, gtp3
	.um8		N32   , Ds5 , v064, gtp3
	.um8	W32
	.um8	W03
	.um8		N22   , Gs3 , v052
	.um8		N22   , Gs4 , v048
	.um8	W23
	.um8		N36   , Ds4 , v060, gtp2
	.um8		N36   , Ds5 , v060, gtp2
	.um8	W03
// 096   ----------------------------------------
	.um8	W36
	.um8		N30   , Fn4 , v068
	.um8		N30   , Fn5 
	.um8	W32
	.um8	W02
	.um8		N05   , Gs4 , v052
	.um8		N05   , Gs5 
	.um8	W06
	.um8		        Fs4 
	.um8		N05   , Fs5 
	.um8	W05
	.um8		N04   , Fn4 , v056
	.um8		N04   , Fn5 
	.um8	W07
	.um8		N42   , Cs4 , v052
	.um8		N42   , Cs5 
	.um8	W08
// 097   ----------------------------------------
	.um8	W32
	.um8	W03
	.um8		N36   , Ds4 , v044
	.um8		N36   , Ds5 
	.um8	W36
	.um8		N68   , Gs3 , v020, gtp2
	.um8		N68   , Gs4 , v020, gtp2
	.um8	W24
	.um8	W01
// 098   ----------------------------------------
	.um8	W72
	.um8		N05   , Gs4 , v028
	.um8		N05   , Gs5 
	.um8	W05
	.um8		        Fs4 , v024
	.um8		N05   , Fs5 
	.um8	W06
	.um8		        Fn4 , v028
	.um8		N05   , Fn5 
	.um8	W07
	.um8		N40   , Cs4 , v024, gtp1
	.um8		N40   , Cs5 , v024, gtp1
	.um8	W06
// 099   ----------------------------------------
	.um8	W32
	.um8	W03
	.um8		N32   , Ds4 , v016, gtp3
	.um8		N32   , Ds5 , v016, gtp3
	.um8	W32
	.um8	W03
	.um8		N24   , Gs3 , v008
	.um8		N24   , Gs4 
	.um8	W24
	.um8	W01
	.um8		N36   , Ds4 
	.um8		N36   , Ds5 
	.um8	W01
// 100   ----------------------------------------
	.um8	W36
	.um8		N32   , Fn4 , v004, gtp2
	.um8		N32   , Fn5 , v004, gtp2
	.um8	W36
	.um8	W01
	.um8		N04   , Gs4 
	.um8		N04   , Gs5 
	.um8	W05
	.um8		N05   , Fs4 
	.um8		N05   , Fs5 
	.um8	W05
	.um8		N04   , Fn4 
	.um8		N04   , Fn5 
	.um8	W07
	.um8		N40   , Cs4 
	.um8		N40   , Cs5 
	.um8	W06
// 101   ----------------------------------------
	.um8	W32
	.um8	W02
	.um8		N36   , Ds4 , v004, gtp1
	.um8		N36   , Ds5 , v004, gtp1
	.um8	W36
	.um8	W01
	.um8	FINE

//**************** Track 11 (Midi-Chn.12) Trumpet****************//

mus_littleroot_11:
	.um8	KEYSH , mus_littleroot_key+0
// 000   ----------------------------------------
	.um8	W96
// 001   ----------------------------------------
	.um8	W36
	.um8	W02
	.um8		VOICE , 4
	.um8		VOL   , 75*mus_littleroot_mvl/mxv
	.um8		PAN   , c_v-24
	.um8	W56
	.um8	W02
// 002   ----------------------------------------
	.um8	W96
// 003   ----------------------------------------
	.um8	W96
// 004   ----------------------------------------
	.um8	W96
// 005   ----------------------------------------
	.um8	W96
// 006   ----------------------------------------
	.um8	W60
	.um8		MOD   , 0
	.um8		BEND  , c_v+0
	.um8		N03   , Gs3 , v084
	.um8		N03   , Gs4 , v104
	.um8	W06
	.um8		N04   , Gs3 , v084
	.um8		N03   , Gs4 , v104
	.um8	W06
	.um8		        As3 , v084
	.um8		N02   , As4 , v104
	.um8	W06
	.um8		N04   , Cs4 , v072
	.um8		N03   , Cs5 , v096
	.um8	W05
	.um8		        As4 , v112
	.um8	W01
	.um8		        As3 , v084
	.um8	W06
	.um8		N06   , Cs4 
	.um8		N05   , Cs5 , v104
	.um8	W06
// 007   ----------------------------------------
	.um8	W96
// 008   ----------------------------------------
	.um8	W96
// 009   ----------------------------------------
	.um8	W96
// 010   ----------------------------------------
mus_littleroot_11_010:
	.um8	W48
	.um8		N02   , Cs4 , v096
	.um8		N02   , Gs4 , v104
	.um8		N02   , Cs5 , v096
	.um8	W05
	.um8		N03   
	.um8	W01
	.um8		N02   , Cs4 , v084
	.um8		N02   , Gs4 , v096
	.um8	W12
	.um8		        Cs4 , v056
	.um8		N02   , Gs4 
	.um8		N03   , Cs5 
	.um8	W06
	.um8		N02   , Cs4 , v112
	.um8		N02   , Gs4 , v104
	.um8		N03   , Cs5 
	.um8	W05
	.um8		        Cs5 , v096
	.um8	W01
	.um8		N02   , Cs4 , v092
	.um8		N02   , Gs4 , v104
	.um8	W06
	.um8		        Cs4 , v056
	.um8		N02   , Gs4 
	.um8		N03   , Cs5 
	.um8	W06
	.um8		N02   , Cs4 , v112
	.um8		N02   , Gs4 , v116
	.um8		N04   , Cs5 , v112
	.um8	W06
	.um8	PEND
// 011   ----------------------------------------
	.um8	W96
// 012   ----------------------------------------
	.um8	W96
// 013   ----------------------------------------
	.um8	W96
// 014   ----------------------------------------
	.um8	W96
// 015   ----------------------------------------
	.um8	W96
// 016   ----------------------------------------
	.um8	W96
// 017   ----------------------------------------
	.um8		TIE   , Gs3 , v092
	.um8		TIE   , Gs4 , v096
	.um8	W96
// 018   ----------------------------------------
	.um8	W11
	.um8		N24   , Fn4 , v112, gtp1
	.um8	W01
	.um8		EOT   , Gs3 
	.um8		N24   , Fn3 , v100, gtp1
	.um8	W01
	.um8		EOT   , Gs4 
	.um8	W23
	.um8		N24   , Ds4 , v092
	.um8	W01
	.um8		        Ds3 
	.um8	W22
	.um8		        Cs4 , v096, gtp1
	.um8	W01
	.um8		        Cs3 , v092, gtp1
	.um8	W24
	.um8		TIE   , As3 , v104
	.um8	W01
	.um8		        As2 , v092
	.um8	W11
// 019   ----------------------------------------
	.um8	W84
	.um8	W02
	.um8		EOT   , As3 
	.um8	W01
	.um8		        As2 
	.um8	W09
// 020   ----------------------------------------
	.um8	W96
// 021   ----------------------------------------
	.um8	W96
// 022   ----------------------------------------
mus_littleroot_11_022:
	.um8	W60
	.um8		N03   , Gs3 , v084
	.um8		N03   , Gs4 , v104
	.um8	W06
	.um8		N04   , Gs3 , v084
	.um8		N03   , Gs4 , v104
	.um8	W06
	.um8		        As3 , v084
	.um8		N02   , As4 , v104
	.um8	W06
	.um8		N04   , Cs4 , v072
	.um8		N03   , Cs5 , v096
	.um8	W05
	.um8		        As4 , v112
	.um8	W01
	.um8		        As3 , v084
	.um8	W06
	.um8		N06   , Cs4 
	.um8		N05   , Cs5 , v104
	.um8	W06
	.um8	PEND
// 023   ----------------------------------------
	.um8	W96
// 024   ----------------------------------------
	.um8	W96
// 025   ----------------------------------------
	.um8	W96
// 026   ----------------------------------------
	.um8	PATT
	 .um32	mus_littleroot_11_022
// 027   ----------------------------------------
	.um8	W96
// 028   ----------------------------------------
	.um8	W96
// 029   ----------------------------------------
	.um8	W96
// 030   ----------------------------------------
	.um8	PATT
	 .um32	mus_littleroot_11_010
// 031   ----------------------------------------
	.um8	W12
	.um8		N02   , Cs4 , v084
	.um8		N02   , Gs4 
	.um8		N03   , Cs5 
	.um8	W84
// 032   ----------------------------------------
	.um8	W96
// 033   ----------------------------------------
	.um8	W96
// 034   ----------------------------------------
	.um8	W96
// 035   ----------------------------------------
	.um8	W96
// 036   ----------------------------------------
	.um8	W96
// 037   ----------------------------------------
	.um8		TIE   , Gs4 , v112
	.um8	W01
	.um8		        Gs3 , v088
	.um8	W92
	.um8	W03
// 038   ----------------------------------------
	.um8	W09
	.um8		EOT   , Gs4 
	.um8	W01
	.um8		        Gs3 
	.um8	W03
	.um8		N21   , Fn3 , v104
	.um8		N22   , Fn4 , v112
	.um8	W24
	.um8		N21   , Ds3 , v096
	.um8		N22   , Ds4 
	.um8	W24
	.um8		N24   , Cs4 , v104
	.um8	W01
	.um8		N23   , Cs3 , v096
	.um8	W23
	.um8		N96   , As3 , v112
	.um8	W01
	.um8		        As2 , v104
	.um8	W10
// 039   ----------------------------------------
	.um8	W96
// 040   ----------------------------------------
	.um8	W96
// 041   ----------------------------------------
	.um8	W96
// 042   ----------------------------------------
	.um8	PATT
	 .um32	mus_littleroot_11_022
// 043   ----------------------------------------
	.um8	W96
// 044   ----------------------------------------
	.um8	W96
// 045   ----------------------------------------
	.um8	W96
// 046   ----------------------------------------
	.um8	PATT
	 .um32	mus_littleroot_11_022
// 047   ----------------------------------------
	.um8	W96
// 048   ----------------------------------------
	.um8	W96
// 049   ----------------------------------------
	.um8	W96
// 050   ----------------------------------------
mus_littleroot_11_050:
	.um8	W48
	.um8		N02   , Cs4 , v096
	.um8		N02   , Gs4 , v104
	.um8		N02   , Cs5 , v096
	.um8	W05
	.um8		N03   
	.um8	W01
	.um8		N02   , Cs4 , v084
	.um8		N02   , Gs4 , v096
	.um8	W12
	.um8		        Cs4 , v056
	.um8		N02   , Gs4 
	.um8		N03   , Cs5 
	.um8	W06
	.um8		N02   , Cs4 , v112
	.um8		N02   , Gs4 , v104
	.um8		N03   , Cs5 
	.um8	W05
	.um8		        Cs5 , v096
	.um8	W01
	.um8		N02   , Cs4 , v092
	.um8		N02   , Gs4 , v104
	.um8	W06
	.um8		        Cs4 , v056
	.um8		N02   , Gs4 
	.um8		N03   , Cs5 
	.um8	W12
	.um8	PEND
// 051   ----------------------------------------
	.um8	W96
// 052   ----------------------------------------
	.um8	W96
// 053   ----------------------------------------
	.um8	W96
// 054   ----------------------------------------
	.um8	PATT
	 .um32	mus_littleroot_11_022
// 055   ----------------------------------------
	.um8	W96
// 056   ----------------------------------------
	.um8	W96
// 057   ----------------------------------------
	.um8	W96
// 058   ----------------------------------------
	.um8	PATT
	 .um32	mus_littleroot_11_050
// 059   ----------------------------------------
	.um8	W96
// 060   ----------------------------------------
	.um8	W96
// 061   ----------------------------------------
	.um8	W96
// 062   ----------------------------------------
	.um8	W96
// 063   ----------------------------------------
	.um8	W96
// 064   ----------------------------------------
	.um8	W96
// 065   ----------------------------------------
	.um8	W96
// 066   ----------------------------------------
	.um8	W96
// 067   ----------------------------------------
	.um8	W96
// 068   ----------------------------------------
	.um8	W96
// 069   ----------------------------------------
	.um8	W96
// 070   ----------------------------------------
	.um8	W96
// 071   ----------------------------------------
	.um8	W96
// 072   ----------------------------------------
	.um8	W96
// 073   ----------------------------------------
	.um8	W96
// 074   ----------------------------------------
	.um8	W96
// 075   ----------------------------------------
	.um8	W96
// 076   ----------------------------------------
	.um8	W96
// 077   ----------------------------------------
	.um8	W96
// 078   ----------------------------------------
	.um8	PATT
	 .um32	mus_littleroot_11_022
// 079   ----------------------------------------
	.um8	W96
// 080   ----------------------------------------
	.um8	W96
// 081   ----------------------------------------
	.um8	W96
// 082   ----------------------------------------
	.um8	PATT
	 .um32	mus_littleroot_11_022
// 083   ----------------------------------------
	.um8	W96
// 084   ----------------------------------------
	.um8	W96
// 085   ----------------------------------------
	.um8	W96
// 086   ----------------------------------------
	.um8	PATT
	 .um32	mus_littleroot_11_050
// 087   ----------------------------------------
	.um8	W96
// 088   ----------------------------------------
	.um8	W96
// 089   ----------------------------------------
	.um8	W96
// 090   ----------------------------------------
	.um8	PATT
	 .um32	mus_littleroot_11_022
// 091   ----------------------------------------
	.um8	W96
// 092   ----------------------------------------
	.um8	W96
// 093   ----------------------------------------
	.um8	W96
// 094   ----------------------------------------
	.um8	PATT
	 .um32	mus_littleroot_11_050
// 095   ----------------------------------------
	.um8	W96
// 096   ----------------------------------------
	.um8	W96
// 097   ----------------------------------------
	.um8	W96
// 098   ----------------------------------------
	.um8	W60
	.um8		N03   , Gs3 , v044
	.um8		N03   , Gs4 , v052
	.um8	W06
	.um8		N04   , Gs3 , v044
	.um8		N03   , Gs4 , v052
	.um8	W06
	.um8		        As3 , v040
	.um8		N02   , As4 , v052
	.um8	W06
	.um8		N04   , Cs4 , v036
	.um8		N03   , Cs5 , v044
	.um8	W05
	.um8		        As4 , v052
	.um8	W01
	.um8		        As3 , v040
	.um8	W06
	.um8		N06   , Cs4 
	.um8		N05   , Cs5 , v048
	.um8	W06
// 099   ----------------------------------------
	.um8	FINE

//**************** Track 12 (Midi-Chn.13) Brass Section****************//

mus_littleroot_12:
	.um8	KEYSH , mus_littleroot_key+0
// 000   ----------------------------------------
	.um8	W96
// 001   ----------------------------------------
	.um8	W36
	.um8	W03
	.um8		VOICE , 4
	.um8		VOL   , 90*mus_littleroot_mvl/mxv
	.um8		PAN   , c_v+24
	.um8	W01
	.um8	W56
// 002   ----------------------------------------
	.um8	W96
// 003   ----------------------------------------
	.um8	W96
// 004   ----------------------------------------
	.um8	W96
// 005   ----------------------------------------
	.um8	W96
// 006   ----------------------------------------
	.um8	W60
	.um8		N03   , Gs3 , v084
	.um8		N03   , Gs4 , v104
	.um8	W01
	.um8		MOD   , 0
	.um8		BEND  , c_v+0
	.um8	W05
	.um8		N04   , Gs3 , v084
	.um8		N03   , Gs4 , v104
	.um8	W06
	.um8		        As3 , v084
	.um8		N02   , As4 , v104
	.um8	W06
	.um8		N04   , Cs4 , v072
	.um8		N03   , Cs5 , v096
	.um8	W06
	.um8		        As3 , v084
	.um8		N03   , As4 , v112
	.um8	W06
	.um8		N06   , Cs4 , v084
	.um8		N05   , Cs5 , v104
	.um8	W06
// 007   ----------------------------------------
	.um8	W96
// 008   ----------------------------------------
	.um8	W96
// 009   ----------------------------------------
	.um8	W96
// 010   ----------------------------------------
mus_littleroot_12_010:
	.um8	W48
	.um8		N02   , Cs4 , v096
	.um8		N02   , Gs4 , v104
	.um8		N02   , Cs5 , v096
	.um8	W06
	.um8		        Cs4 , v084
	.um8		N02   , Gs4 , v096
	.um8		N03   , Cs5 
	.um8	W12
	.um8		N02   , Cs4 , v056
	.um8		N02   , Gs4 
	.um8		N03   , Cs5 
	.um8	W06
	.um8		N02   , Cs4 , v112
	.um8		N02   , Gs4 , v104
	.um8		N03   , Cs5 
	.um8	W06
	.um8		N02   , Cs4 , v092
	.um8		N02   , Gs4 , v104
	.um8		N03   , Cs5 , v096
	.um8	W06
	.um8		N02   , Cs4 , v056
	.um8		N02   , Gs4 
	.um8		N03   , Cs5 
	.um8	W06
	.um8		N02   , Cs4 , v112
	.um8		N02   , Gs4 , v116
	.um8		N04   , Cs5 , v112
	.um8	W06
	.um8	PEND
// 011   ----------------------------------------
	.um8	W96
// 012   ----------------------------------------
	.um8	W96
// 013   ----------------------------------------
	.um8	W96
// 014   ----------------------------------------
	.um8	W96
// 015   ----------------------------------------
	.um8	W96
// 016   ----------------------------------------
	.um8	W96
// 017   ----------------------------------------
	.um8		TIE   , Gs3 , v092
	.um8		TIE   , Gs4 , v096
	.um8	W96
// 018   ----------------------------------------
	.um8	W12
	.um8		EOT   , Gs3 
	.um8		N24   , Fn3 , v100, gtp1
	.um8		N24   , Fn4 , v112, gtp1
	.um8	W01
	.um8		EOT   , Gs4 
	.um8	W24
	.um8		N24   , Ds3 , v092
	.um8		N24   , Ds4 
	.um8	W23
	.um8		        Cs3 , v092, gtp1
	.um8		N24   , Cs4 , v096, gtp1
	.um8	W24
	.um8	W01
	.um8		TIE   , As2 , v092
	.um8		TIE   , As3 , v104
	.um8	W11
// 019   ----------------------------------------
	.um8	W84
	.um8	W03
	.um8		EOT   , As2 
	.um8		        As3 
	.um8	W09
// 020   ----------------------------------------
	.um8	W96
// 021   ----------------------------------------
	.um8	W96
// 022   ----------------------------------------
mus_littleroot_12_022:
	.um8	W60
	.um8		N03   , Gs3 , v084
	.um8		N03   , Gs4 , v104
	.um8	W06
	.um8		N04   , Gs3 , v084
	.um8		N03   , Gs4 , v104
	.um8	W06
	.um8		        As3 , v084
	.um8		N02   , As4 , v104
	.um8	W06
	.um8		N04   , Cs4 , v072
	.um8		N03   , Cs5 , v096
	.um8	W06
	.um8		        As3 , v084
	.um8		N03   , As4 , v112
	.um8	W06
	.um8		N06   , Cs4 , v084
	.um8		N05   , Cs5 , v104
	.um8	W06
	.um8	PEND
// 023   ----------------------------------------
	.um8	W96
// 024   ----------------------------------------
	.um8	W96
// 025   ----------------------------------------
	.um8	W96
// 026   ----------------------------------------
	.um8	W60
	.um8		N03   , Gs4 
	.um8	W06
	.um8		N03   
	.um8	W06
	.um8		N02   , As4 
	.um8	W06
	.um8		N03   , Cs5 , v096
	.um8	W06
	.um8		        As4 , v112
	.um8	W06
	.um8		N05   , Cs5 , v104
	.um8	W06
// 027   ----------------------------------------
	.um8	W96
// 028   ----------------------------------------
	.um8	W96
// 029   ----------------------------------------
	.um8	W96
// 030   ----------------------------------------
	.um8	PATT
	 .um32	mus_littleroot_12_010
// 031   ----------------------------------------
	.um8	W12
	.um8		N02   , Cs4 , v084
	.um8		N02   , Gs4 
	.um8		N03   , Cs5 
	.um8	W84
// 032   ----------------------------------------
	.um8	W96
// 033   ----------------------------------------
	.um8	W96
// 034   ----------------------------------------
	.um8	W96
// 035   ----------------------------------------
	.um8	W96
// 036   ----------------------------------------
	.um8	W96
// 037   ----------------------------------------
	.um8	W01
	.um8		TIE   , Gs3 , v088
	.um8		TIE   , Gs4 , v112
	.um8	W92
	.um8	W03
// 038   ----------------------------------------
	.um8	W10
	.um8		EOT   , Gs3 
	.um8		        Gs4 
	.um8	W03
	.um8		N22   , Fn4 
	.um8	W01
	.um8		N21   , Fn3 , v104
	.um8	W23
	.um8		N22   , Ds4 , v096
	.um8	W01
	.um8		N21   , Ds3 
	.um8	W23
	.um8		N24   , Cs4 , v104
	.um8	W01
	.um8		N23   , Cs3 , v096
	.um8	W23
	.um8		N96   , As3 , v112
	.um8	W01
	.um8		        As2 , v104
	.um8	W10
// 039   ----------------------------------------
	.um8	W96
// 040   ----------------------------------------
	.um8	W96
// 041   ----------------------------------------
	.um8	W96
// 042   ----------------------------------------
	.um8	PATT
	 .um32	mus_littleroot_12_022
// 043   ----------------------------------------
	.um8	W96
// 044   ----------------------------------------
	.um8	W96
// 045   ----------------------------------------
	.um8	W96
// 046   ----------------------------------------
	.um8	PATT
	 .um32	mus_littleroot_12_022
// 047   ----------------------------------------
	.um8	W96
// 048   ----------------------------------------
	.um8	W96
// 049   ----------------------------------------
	.um8	W96
// 050   ----------------------------------------
mus_littleroot_12_050:
	.um8	W48
	.um8		N02   , Cs4 , v096
	.um8		N02   , Gs4 , v104
	.um8		N02   , Cs5 , v096
	.um8	W06
	.um8		        Cs4 , v084
	.um8		N02   , Gs4 , v096
	.um8		N03   , Cs5 
	.um8	W12
	.um8		N02   , Cs4 , v056
	.um8		N02   , Gs4 
	.um8		N03   , Cs5 
	.um8	W06
	.um8		N02   , Cs4 , v112
	.um8		N02   , Gs4 , v104
	.um8		N03   , Cs5 
	.um8	W06
	.um8		N02   , Cs4 , v092
	.um8		N02   , Gs4 , v104
	.um8		N03   , Cs5 , v096
	.um8	W06
	.um8		N02   , Cs4 , v056
	.um8		N02   , Gs4 
	.um8		N03   , Cs5 
	.um8	W12
	.um8	PEND
// 051   ----------------------------------------
	.um8	W96
// 052   ----------------------------------------
	.um8	W96
// 053   ----------------------------------------
	.um8	W96
// 054   ----------------------------------------
	.um8	PATT
	 .um32	mus_littleroot_12_022
// 055   ----------------------------------------
	.um8	W96
// 056   ----------------------------------------
	.um8	W96
// 057   ----------------------------------------
	.um8	W96
// 058   ----------------------------------------
	.um8	PATT
	 .um32	mus_littleroot_12_050
// 059   ----------------------------------------
	.um8	W96
// 060   ----------------------------------------
	.um8	W96
// 061   ----------------------------------------
	.um8	W96
// 062   ----------------------------------------
	.um8	W96
// 063   ----------------------------------------
	.um8	W96
// 064   ----------------------------------------
	.um8	W96
// 065   ----------------------------------------
	.um8	W96
// 066   ----------------------------------------
	.um8	W96
// 067   ----------------------------------------
	.um8	W96
// 068   ----------------------------------------
	.um8	W96
// 069   ----------------------------------------
	.um8	W96
// 070   ----------------------------------------
	.um8	W96
// 071   ----------------------------------------
	.um8	W96
// 072   ----------------------------------------
	.um8	W96
// 073   ----------------------------------------
	.um8	W96
// 074   ----------------------------------------
	.um8	W96
// 075   ----------------------------------------
	.um8	W96
// 076   ----------------------------------------
	.um8	W96
// 077   ----------------------------------------
	.um8	W96
// 078   ----------------------------------------
	.um8	PATT
	 .um32	mus_littleroot_12_022
// 079   ----------------------------------------
	.um8	W96
// 080   ----------------------------------------
	.um8	W96
// 081   ----------------------------------------
	.um8	W96
// 082   ----------------------------------------
	.um8	PATT
	 .um32	mus_littleroot_12_022
// 083   ----------------------------------------
	.um8	W96
// 084   ----------------------------------------
	.um8	W96
// 085   ----------------------------------------
	.um8	W96
// 086   ----------------------------------------
	.um8	PATT
	 .um32	mus_littleroot_12_050
// 087   ----------------------------------------
	.um8	W96
// 088   ----------------------------------------
	.um8	W96
// 089   ----------------------------------------
	.um8	W96
// 090   ----------------------------------------
	.um8	PATT
	 .um32	mus_littleroot_12_022
// 091   ----------------------------------------
	.um8	W96
// 092   ----------------------------------------
	.um8	W96
// 093   ----------------------------------------
	.um8	W96
// 094   ----------------------------------------
	.um8	PATT
	 .um32	mus_littleroot_12_050
// 095   ----------------------------------------
	.um8	W96
// 096   ----------------------------------------
	.um8	W96
// 097   ----------------------------------------
	.um8	W96
// 098   ----------------------------------------
	.um8	W60
	.um8		N03   , Gs3 , v044
	.um8		N03   , Gs4 , v052
	.um8	W06
	.um8		N04   , Gs3 , v044
	.um8		N03   , Gs4 , v052
	.um8	W06
	.um8		        As3 , v040
	.um8		N02   , As4 , v052
	.um8	W06
	.um8		N04   , Cs4 , v036
	.um8		N03   , Cs5 , v044
	.um8	W06
	.um8		        As3 , v040
	.um8		N03   , As4 , v052
	.um8	W06
	.um8		N06   , Cs4 , v040
	.um8		N05   , Cs5 , v048
	.um8	W06
// 099   ----------------------------------------
	.um8	W01
	.um8	FINE

//******************************************************//
	.align	4

mus_littleroot:
	.um8	12	// NumTrks
	.um8	0	// NumBlks
	.um8	mus_littleroot_pri	// Priority
	.um8	mus_littleroot_rev	// Reverb.

	.um32	mus_littleroot_grp

	.um32	mus_littleroot_1
	.um32	mus_littleroot_2
	.um32	mus_littleroot_3
	.um32	mus_littleroot_4
	.um32	mus_littleroot_5
	.um32	mus_littleroot_6
	.um32	mus_littleroot_7
	.um32	mus_littleroot_8
	.um32	mus_littleroot_9
	.um32	mus_littleroot_10
	.um32	mus_littleroot_11
	.um32	mus_littleroot_12

	.end

//*-------------END OF MUSIC DATA ---------------- *//

// The following is copied from MPlayDef.s found here: 
//https://github.com/pret/pokeemerald/blob/master/sound/MPlayDef.s
//(Slightly modified to be compatabile with gvasm)

.def	W00=	0x80		// WAIT
	.def	W01=	W00+1		//
	.def	W02=	W00+2		//
	.def	W03=	W00+3		//
	.def	W04=	W00+4		//
	.def	W05=	W00+5		//
	.def	W06=	W00+6		//
	.def	W07=	W00+7		//
	.def	W08=	W00+8		//
	.def	W09=	W00+9		//
	.def	W10=	W00+10		//
	.def	W11=	W00+11		//
	.def	W12=	W00+12		//
	.def	W13=	W00+13		//
	.def	W14=	W00+14		//
	.def	W15=	W00+15		//
	.def	W16=	W00+16		//
	.def	W17=	W00+17		//
	.def	W18=	W00+18		//
	.def	W19=	W00+19		//
	.def	W20=	W00+20		//
	.def	W21=	W00+21		//
	.def	W22=	W00+22		//
	.def	W23=	W00+23		//
	.def	W24=	W00+24		//
	.def	W28=	W00+25		//
	.def	W30=	W00+26		//
	.def	W32=	W00+27		//
	.def	W36=	W00+28		//
	.def	W40=	W00+29		//
	.def	W42=	W00+30		//
	.def	W44=	W00+31		//
	.def	W48=	W00+32		//
	.def	W52=	W00+33		//
	.def	W54=	W00+34		//
	.def	W56=	W00+35		//
	.def	W60=	W00+36		//
	.def	W64=	W00+37		//
	.def	W66=	W00+38		//
	.def	W68=	W00+39		//
	.def	W72=	W00+40		//
	.def	W76=	W00+41		//
	.def	W78=	W00+42		//
	.def	W80=	W00+43		//
	.def	W84=	W00+44		//
	.def	W88=	W00+45		//
	.def	W90=	W00+46		//
	.def	W92=	W00+47		//
	.def	W96=	W00+48		//

	.def	FINE=	0xb1		// fine
	.def	GOTO=	0xb2		// goto
	.def	PATT=	0xb3		// pattern play
	.def	PEND=	0xb4		// pattern end
	.def	REPT=	0xb5		// repeat
	.def	MEMACC=	0xb9		// memacc op adr dat ***lib
	.def	PRIO=	0xba		// priority
	.def	TEMPO=	0xbb		// tempo (BPM/2)
	.def	KEYSH=	0xbc		// key shift
	.def	VOICE=	0xbd		// voice #
	.def	VOL=	0xbe		// volume
	.def	PAN=	0xbf		// panpot (c_v+??)
	.def	BEND=	0xc0		// pitch bend (c_v+??)
	.def	BENDR=	0xc1		// bend range
	.def	LFOS=	0xc2		// LFO speed
	.def	LFODL=	0xc3		// LFO delay
	.def	MOD=	0xc4		// modulation depth
	.def	MODT=	0xc5		// modulation type
	.def	TUNE=	0xc8		// micro tuning (c_v+??)

	.def	XCMD=	0xcd		// extend command  ***lib
	 .def	xIECV=	0x08		//  imi.echo vol   ***lib
	 .def	xIECL=	0x09		//  imi.echo len   ***lib

	.def	EOT=	0xce		// End of Tie
	.def	TIE=	0xcf		//
	.def	N01=	TIE+1		// NOTE
	.def	N02=	N01+1		//
	.def	N03=	N01+2		//
	.def	N04=	N01+3		//
	.def	N05=	N01+4		//
	.def	N06=	N01+5		//
	.def	N07=	N01+6		//
	.def	N08=	N01+7		//
	.def	N09=	N01+8		//
	.def	N10=	N01+9		//
	.def	N11=	N01+10		//
	.def	N12=	N01+11		//
	.def	N13=	N01+12		//
	.def	N14=	N01+13		//
	.def	N15=	N01+14		//
	.def	N16=	N01+15		//
	.def	N17=	N01+16		//
	.def	N18=	N01+17		//
	.def	N19=	N01+18		//
	.def	N20=	N01+19		//
	.def	N21=	N01+20		//
	.def	N22=	N01+21		//
	.def	N23=	N01+22		//
	.def	N24=	N01+23		//
	.def	N28=	N01+24		//
	.def	N30=	N01+25		//
	.def	N32=	N01+26		//
	.def	N36=	N01+27		//
	.def	N40=	N01+28		//
	.def	N42=	N01+29		//
	.def	N44=	N01+30		//
	.def	N48=	N01+31		//
	.def	N52=	N01+32		//
	.def	N54=	N01+33		//
	.def	N56=	N01+34		//
	.def	N60=	N01+35		//
	.def	N64=	N01+36		//
	.def	N66=	N01+37		//
	.def	N68=	N01+38		//
	.def	N72=	N01+39		//
	.def	N76=	N01+40		//
	.def	N78=	N01+41		//
	.def	N80=	N01+42		//
	.def	N84=	N01+43		//
	.def	N88=	N01+44		//
	.def	N90=	N01+45		//
	.def	N92=	N01+46		//
	.def	N96=	N01+47		//

// maximum value for volume

	.def	mxv=	0x7F		//

// center value of PAN= BEND= TUNE

	.def	c_v=	0x40		// -64 ~ +63

// note for N??= TIE= EOT

	.def	CnM2=	0		//
	.def	CsM2=	1		//
	.def	DnM2=	2		//
	.def	DsM2=	3		//
	.def	EnM2=	4		//
	.def	FnM2=	5		//
	.def	FsM2=	6		//
	.def	GnM2=	7		//
	.def	GsM2=	8		//
	.def	AnM2=	9		//
	.def	AsM2=	10		//
	.def	BnM2=	11		//
	.def	CnM1=	12		//
	.def	CsM1=	13		//
	.def	DnM1=	14		//
	.def	DsM1=	15		//
	.def	EnM1=	16		//
	.def	FnM1=	17		//
	.def	FsM1=	18		//
	.def	GnM1=	19		//
	.def	GsM1=	20		//
	.def	AnM1=	21		//
	.def	AsM1=	22		//
	.def	BnM1=	23		//
	.def	Cn0=	24		//
	.def	Cs0=	25		//
	.def	Dn0=	26		//
	.def	Ds0=	27		//
	.def	En0=	28		//
	.def	Fn0=	29		//
	.def	Fs0=	30		//
	.def	Gn0=	31		//
	.def	Gs0=	32		//
	.def	An0=	33		//
	.def	As0=	34		//
	.def	Bn0=	35		//
	.def	Cn1=	36		//
	.def	Cs1=	37		//
	.def	Dn1=	38		//
	.def	Ds1=	39		//
	.def	En1=	40		//
	.def	Fn1=	41		//
	.def	Fs1=	42		//
	.def	Gn1=	43		//
	.def	Gs1=	44		//
	.def	An1=	45		//
	.def	As1=	46		//
	.def	Bn1=	47		//
	.def	Cn2=	48		//
	.def	Cs2=	49		//
	.def	Dn2=	50		//
	.def	Ds2=	51		//
	.def	En2=	52		//
	.def	Fn2=	53		//
	.def	Fs2=	54		//
	.def	Gn2=	55		//
	.def	Gs2=	56		//
	.def	An2=	57		//
	.def	As2=	58		//
	.def	Bn2=	59		//
	.def	Cn3=	60		//
	.def	Cs3=	61		//
	.def	Dn3=	62		//
	.def	Ds3=	63		//
	.def	En3=	64		//
	.def	Fn3=	65		//
	.def	Fs3=	66		//
	.def	Gn3=	67		//
	.def	Gs3=	68		//
	.def	An3=	69		// 440Hz
	.def	As3=	70		//
	.def	Bn3=	71		//
	.def	Cn4=	72		//
	.def	Cs4=	73		//
	.def	Dn4=	74		//
	.def	Ds4=	75		//
	.def	En4=	76		//
	.def	Fn4=	77		//
	.def	Fs4=	78		//
	.def	Gn4=	79		//
	.def	Gs4=	80		//
	.def	An4=	81		//
	.def	As4=	82		//
	.def	Bn4=	83		//
	.def	Cn5=	84		//
	.def	Cs5=	85		//
	.def	Dn5=	86		//
	.def	Ds5=	87		//
	.def	En5=	88		//
	.def	Fn5=	89		//
	.def	Fs5=	90		//
	.def	Gn5=	91		//
	.def	Gs5=	92		//
	.def	An5=	93		//
	.def	As5=	94		//
	.def	Bn5=	95		//
	.def	Cn6=	96		//
	.def	Cs6=	97		//
	.def	Dn6=	98		//
	.def	Ds6=	99		//
	.def	En6=	100		//
	.def	Fn6=	101		//
	.def	Fs6=	102		//
	.def	Gn6=	103		//
	.def	Gs6=	104		//
	.def	An6=	105		//
	.def	As6=	106		//
	.def	Bn6=	107		//
	.def	Cn7=	108		//
	.def	Cs7=	109		//
	.def	Dn7=	110		//
	.def	Ds7=	111		//
	.def	En7=	112		//
	.def	Fn7=	113		//
	.def	Fs7=	114		//
	.def	Gn7=	115		//
	.def	Gs7=	116		//
	.def	An7=	117		//
	.def	As7=	118		//
	.def	Bn7=	119		//
	.def	Cn8=	120		//
	.def	Cs8=	121		//
	.def	Dn8=	122		//
	.def	Ds8=	123		//
	.def	En8=	124		//
	.def	Fn8=	125		//
	.def	Fs8=	126		//
	.def	Gn8=	127		//

// velocity

	.def	v000=	0		//
	.def	v001=	1		//
	.def	v002=	2		//
	.def	v003=	3		//
	.def	v004=	4		//
	.def	v005=	5		//
	.def	v006=	6		//
	.def	v007=	7		//
	.def	v008=	8		//
	.def	v009=	9		//
	.def	v010=	10		//
	.def	v011=	11		//
	.def	v012=	12		//
	.def	v013=	13		//
	.def	v014=	14		//
	.def	v015=	15		//
	.def	v016=	16		//
	.def	v017=	17		//
	.def	v018=	18		//
	.def	v019=	19		//
	.def	v020=	20		//
	.def	v021=	21		//
	.def	v022=	22		//
	.def	v023=	23		//
	.def	v024=	24		//
	.def	v025=	25		//
	.def	v026=	26		//
	.def	v027=	27		//
	.def	v028=	28		//
	.def	v029=	29		//
	.def	v030=	30		//
	.def	v031=	31		//
	.def	v032=	32		//
	.def	v033=	33		//
	.def	v034=	34		//
	.def	v035=	35		//
	.def	v036=	36		//
	.def	v037=	37		//
	.def	v038=	38		//
	.def	v039=	39		//
	.def	v040=	40		//
	.def	v041=	41		//
	.def	v042=	42		//
	.def	v043=	43		//
	.def	v044=	44		//
	.def	v045=	45		//
	.def	v046=	46		//
	.def	v047=	47		//
	.def	v048=	48		//
	.def	v049=	49		//
	.def	v050=	50		//
	.def	v051=	51		//
	.def	v052=	52		//
	.def	v053=	53		//
	.def	v054=	54		//
	.def	v055=	55		//
	.def	v056=	56		//
	.def	v057=	57		//
	.def	v058=	58		//
	.def	v059=	59		//
	.def	v060=	60		//
	.def	v061=	61		//
	.def	v062=	62		//
	.def	v063=	63		//
	.def	v064=	64		//
	.def	v065=	65		//
	.def	v066=	66		//
	.def	v067=	67		//
	.def	v068=	68		//
	.def	v069=	69		//
	.def	v070=	70		//
	.def	v071=	71		//
	.def	v072=	72		//
	.def	v073=	73		//
	.def	v074=	74		//
	.def	v075=	75		//
	.def	v076=	76		//
	.def	v077=	77		//
	.def	v078=	78		//
	.def	v079=	79		//
	.def	v080=	80		//
	.def	v081=	81		//
	.def	v082=	82		//
	.def	v083=	83		//
	.def	v084=	84		//
	.def	v085=	85		//
	.def	v086=	86		//
	.def	v087=	87		//
	.def	v088=	88		//
	.def	v089=	89		//
	.def	v090=	90		//
	.def	v091=	91		//
	.def	v092=	92		//
	.def	v093=	93		//
	.def	v094=	94		//
	.def	v095=	95		//
	.def	v096=	96		//
	.def	v097=	97		//
	.def	v098=	98		//
	.def	v099=	99		//
	.def	v100=	100		//
	.def	v101=	101		//
	.def	v102=	102		//
	.def	v103=	103		//
	.def	v104=	104		//
	.def	v105=	105		//
	.def	v106=	106		//
	.def	v107=	107		//
	.def	v108=	108		//
	.def	v109=	109		//
	.def	v110=	110		//
	.def	v111=	111		//
	.def	v112=	112		//
	.def	v113=	113		//
	.def	v114=	114		//
	.def	v115=	115		//
	.def	v116=	116		//
	.def	v117=	117		//
	.def	v118=	118		//
	.def	v119=	119		//
	.def	v120=	120		//
	.def	v121=	121		//
	.def	v122=	122		//
	.def	v123=	123		//
	.def	v124=	124		//
	.def	v125=	125		//
	.def	v126=	126		//
	.def	v127=	127		//

// exact gate time parameter for N??

	.def	gtp1=	1		//
	.def	gtp2=	2		//
	.def	gtp3=	3		//

// parameter of MODT

	.def	mod_vib=0		// vibrate
	.def	mod_tre=1		// tremolo
	.def	mod_pan=2		// auto-panpot

// parameter of MEMACC

	.def	mem_set=0		//
	.def	mem_add=1		//
	.def	mem_sub=2		//
	.def	mem_mem_set=3		//
	.def	mem_mem_add=4		//
	.def	mem_mem_sub=5		//
	.def	mem_beq=6		//
	.def	mem_bne=7		//
	.def	mem_bhi=8		//
	.def	mem_bhs=9		//
	.def	mem_bls=10		//
	.def	mem_blo=11		//
	.def	mem_mem_beq=12		//
	.def	mem_mem_bne=13		//
	.def	mem_mem_bhi=14		//
	.def	mem_mem_bhs=15		//
	.def	mem_mem_bls=16		//
	.def	mem_mem_blo=17		//

	.def	reverb_set=0x80		// SOUND_MODE_REVERB_SET
	.def	PAM= PAN		//